<svg width="182" height="166" viewBox="0 0 182 166" fill="none" xmlns="http://www.w3.org/2000/svg">
<g clip-path="url(#clip0_229_1836)">
<path d="M16.8103 151.532L15.3121 149.147L14.0568 149.407C12.7368 149.679 12.427 150.125 12.9088 151.197L12.761 151.29L11.1758 148.77L11.3236 148.677C11.9431 149.263 12.7064 149.373 14.0062 149.115L21.0093 147.713L21.5944 148.646L16.5592 155.198C16.1462 155.74 16.0976 155.992 16.4641 156.856L16.3163 156.949L13.7794 152.913L13.9272 152.82C14.6196 153.804 14.9638 153.881 15.3728 153.358L16.8103 151.534V151.532ZM16.9743 151.325L19.2924 148.366L19.26 148.313L15.5692 149.091L16.9743 151.327V151.325Z" fill="#283C28"/>
<path d="M20.8053 162.484C21.5119 163.211 21.7913 163.278 22.1152 162.983L27.3691 158.223C27.693 157.929 27.6647 157.635 27.0127 156.858L27.1342 156.748L30.2096 160.155L30.0901 160.264C29.3673 159.52 29.1122 159.479 28.7782 159.782L23.089 164.937L23.4656 165.355C24.7229 166.747 25.634 166.715 28.2396 165.905L28.3652 166.062L25.7797 168.253L20.6777 162.598L20.8073 162.48L20.8053 162.484Z" fill="#283C28"/>
<path d="M28.426 170.564C29.2217 171.232 29.5173 171.279 29.8088 170.952L34.5444 165.672C34.838 165.346 34.7691 165.049 34.022 164.325L34.1314 164.203L37.5975 167.326L37.4882 167.446C36.6925 166.78 36.3888 166.742 36.0973 167.068L31.3617 172.348C31.0681 172.675 31.1471 172.963 31.8921 173.685L31.7747 173.815L28.3086 170.692L28.426 170.562V170.564Z" fill="#283C28"/>
<path d="M149.706 173.928C150.509 173.175 150.635 172.828 150.343 172.499L145.223 166.759L145.083 166.885C144.367 167.528 144.492 168.758 144.984 170.736L144.818 170.852L142.885 168.571L148.845 163.23L150.882 165.42L150.75 165.572C148.843 164.862 147.637 164.6 146.92 165.241L146.79 165.359L151.91 171.099C152.202 171.426 152.55 171.349 153.397 170.624L153.514 170.754L149.827 174.06L149.71 173.928H149.706Z" fill="#283C28"/>
<path d="M157.029 167.077C157.663 166.285 157.695 165.997 157.363 165.711L152.002 161.067C151.672 160.78 151.382 160.845 150.694 161.588L150.57 161.48L155.563 155.689L157.924 157.684L157.812 157.852C155.597 157.242 154.703 157.014 153.674 158.208L152.923 159.08L155.855 161.618L156.124 161.306C156.77 160.557 156.812 159.8 156.106 158.741L156.213 158.617L158.946 160.983L158.841 161.107C157.685 160.553 156.932 160.695 156.288 161.444L156.019 161.756L159.185 164.5L159.879 163.694C161.096 162.282 160.865 161.403 159.778 159.119L159.928 158.983L162.356 161.168L157.166 167.186L157.035 167.073L157.029 167.077Z" fill="#283C28"/>
<path d="M164.519 158.093C165.044 157.225 165.038 156.937 164.671 156.697L158.749 152.801C158.385 152.56 158.108 152.663 157.52 153.491L157.385 153.402L159.709 149.853C161.47 147.162 163.752 146.805 165.819 148.167C167.803 149.472 168.915 151.702 167.113 154.453L164.665 158.191L164.519 158.093ZM166.712 154.654C167.775 153.031 167.374 151.884 164.712 150.133C162.049 148.382 160.752 148.652 159.758 150.17L159.401 150.713L166.315 155.261L166.712 154.654Z" fill="#283C28"/>
<path d="M14.3087 131.579L14.2156 131.244C16.8213 128.887 18.1514 126.48 17.6068 124.534C17.1148 122.777 15.6956 122.138 14.3593 122.513C12.8146 122.947 12.2841 124.431 12.1748 127.101C12.0675 129.613 11.782 132.133 9.0893 132.89C6.31154 133.671 3.87998 132.145 3.02965 129.11C2.68344 127.876 2.7462 126.571 2.99118 125.599L1.70758 124.877L1.63672 124.625L6.43909 123.274L6.53222 123.609C4.00146 125.991 3.06609 127.722 3.50543 129.292C3.85771 130.548 5.01781 131.553 6.52007 131.131C8.0446 130.701 8.50014 129.195 8.57505 126.488C8.64388 124.323 8.95567 121.821 11.6707 121.056C14.2176 120.34 17.0946 121.2 18.0968 124.78C18.4308 125.973 18.4855 127.695 18.1798 128.933L19.599 129.822L19.6699 130.072L14.3047 131.581L14.3087 131.579Z" fill="#283C28"/>
<path d="M15.2265 115.453C15.0666 113.698 14.7629 113.302 14.0057 113.343L1.72646 114.007C0.969255 114.047 0.687835 114.477 0.716179 116.239L0.434759 116.255L0.0561573 109.244C-0.223238 104.058 1.42479 102.38 4.00212 102.24C6.42759 102.108 8.44815 103.719 8.72147 108.82L8.78424 109.971L13.8093 109.699C14.6111 109.656 14.8783 109.38 14.8338 107.335L15.0929 107.321L15.5302 115.439L15.2265 115.455V115.453ZM8.36717 109.076C8.22747 106.47 6.90945 105.823 4.20255 105.971C1.81959 106.099 0.303159 106.966 0.434759 109.419L0.489423 110.417L8.41576 109.989L8.36717 109.078V109.076Z" fill="#283C28"/>
<path d="M14.6543 98.316C14.8851 96.569 14.6765 96.1145 13.9274 95.9866L1.80409 93.919C1.05499 93.7912 0.686508 94.1462 0.328152 95.871L0.0507812 95.8243L1.385 87.9616L1.66237 88.0082C1.42549 89.7979 1.64415 90.1875 2.4135 90.3194L15.541 92.5575L15.705 91.5936C16.2517 88.3796 15.2252 87.1682 11.3258 84.4756L11.4048 84.1367L17.1668 85.3176L14.9519 98.3668L14.6522 98.316H14.6543Z" fill="#283C28"/>
<path d="M17.9518 81.1576C18.5795 79.512 18.4823 79.021 17.7838 78.7248L6.4703 73.8955C5.77181 73.5972 5.33045 73.859 4.58337 75.4518L4.32422 75.3423L9.51531 63.123L14.4695 65.1663L14.3744 65.5032C10.3899 65.6696 8.79253 65.767 7.72353 68.2871L6.94204 70.1275L13.1272 72.7673L13.4066 72.1079C14.0767 70.5272 13.7467 69.2529 12.0218 67.8792L12.1331 67.6195L17.8992 70.0808L17.7879 70.3405C15.5831 70.0382 14.4169 70.6733 13.7467 72.254L13.4673 72.9134L20.1526 75.7663L20.8754 74.066C22.1408 71.0852 21.2924 69.7562 18.2879 66.5603L18.4641 66.258L23.6288 68.5813L18.2333 81.2814L17.9539 81.1617L17.9518 81.1576Z" fill="#283C28"/>
<path d="M18.0165 54.6426L18.0024 54.6589L24.6775 59.7945C26.4328 61.1438 27.7124 61.1154 29.2308 59.4881L29.4718 59.6728L25.6675 64.6379L25.4266 64.4533C26.4794 62.688 26.1008 61.574 24.3455 60.2247L17.5671 55.0099C16.5001 54.1901 15.1375 54.182 13.8985 55.5862L13.6758 55.4137L17.0306 51.0349L30.2715 50.9172L30.2836 50.901L24.9508 46.7981C23.2299 45.4752 21.8937 45.5421 20.3712 47.137L20.1464 46.9645L23.977 41.9648L24.2017 42.1373C23.1833 43.931 23.5619 45.043 25.2829 46.368L34.4867 53.4495L33.7072 54.4661L18.0145 54.6426H18.0165Z" fill="#283C28"/>
<path d="M38.1536 48.7013C39.504 47.5732 39.6579 47.0984 39.1942 46.4957L31.6789 36.7419C31.2153 36.1392 30.703 36.1514 29.2737 37.1761L29.1016 36.9529L34.9203 32.4503C39.3319 29.0374 43.2758 29.7455 45.8997 33.1524C48.4183 36.4213 48.9812 40.7087 44.4663 44.2028L38.3378 48.9448L38.1516 48.7034L38.1536 48.7013ZM43.697 44.3023C46.3573 42.2427 46.3492 40.1345 42.9701 35.7476C39.591 31.3607 37.3093 31.0665 34.8191 32.9921L33.9262 33.682L42.7008 45.0713L43.697 44.3002V44.3023Z" fill="#283C28"/>
<path d="M50.515 30.7896C48.5754 26.35 50.2417 22.2025 54.2949 20.423C58.4656 18.5928 62.4966 20.1207 64.4443 24.5806C66.4021 29.0588 64.7257 33.188 60.6542 34.9757C56.5038 36.7978 52.4728 35.2699 50.515 30.7896ZM60.8263 26.2161C58.747 21.4578 56.684 19.8244 54.38 20.8369C52.076 21.8495 52.0537 24.398 54.133 29.1542C56.2203 33.9307 58.2632 35.5743 60.5874 34.5536C62.8914 33.5431 62.9137 30.9946 60.8263 26.2161Z" fill="#283C28"/>
<path d="M70.8044 25.5128L69.3184 16.946C69.1888 16.1972 68.709 15.972 66.988 16.2054L66.9395 15.9274L74.633 14.5882L74.6815 14.8662C73.3676 15.1604 72.7723 15.5297 72.908 16.323L74.469 25.318C74.9893 28.317 76.6636 29.2159 79.079 28.7959C80.0832 28.6214 81.053 28.1202 81.5652 27.3918C82.1827 26.5111 82.456 25.2957 82.1564 23.5608L81.0611 17.2443C80.6886 15.1015 79.6823 14.2412 77.4816 14.3812L77.433 14.1032L83.6728 13.0156L83.7214 13.2936C81.7596 13.9226 81.2656 15.0021 81.6381 17.1428L82.7334 23.4594C83.3084 26.779 82.0309 29.0536 78.0768 29.7435C73.9729 30.4577 71.4543 29.2646 70.8044 25.5169V25.5128Z" fill="#283C28"/>
<path d="M94.5206 26.9163C94.4679 27.7198 95.1219 28.0018 96.4804 28.1581L96.4602 28.4625L88.627 27.9369L88.6472 27.6326C90.4046 27.6853 90.8338 27.4296 90.8844 26.6728L91.7044 14.3785C91.755 13.6196 91.3642 13.2889 89.615 13.1063L89.6332 12.8242L97.4441 13.3477C101.987 13.6521 103.388 15.4661 103.259 17.4181C103.135 19.2625 101.9 20.5287 98.426 20.7965L98.422 20.8615C101.599 21.1394 102.413 22.6105 102.524 24.5341L102.54 26.5612C102.647 28.223 102.911 28.503 104.638 28.6836L104.619 28.9657C103.747 29.0164 102.987 28.986 102.295 28.9413C99.2663 28.7384 98.8674 27.8639 98.8411 25.989L98.8107 24.1567C98.7642 21.9308 98.2357 21.0461 95.8346 20.8858L94.9255 20.8249L94.5186 26.9183L94.5206 26.9163ZM96.1828 20.5591C98.7135 20.7296 99.3493 20.0092 99.5234 17.4059C99.6712 15.1719 98.9808 13.8185 96.448 13.6501L95.4094 13.5811L94.9498 20.4759L96.1828 20.5591Z" fill="#283C28"/>
<path d="M113.453 31.2326C115.166 31.7947 115.67 31.679 115.931 30.9648L120.173 19.3969C120.434 18.6827 120.132 18.2484 118.464 17.5646L118.561 17.2988L126.153 20.0949L126.056 20.3607C124.343 19.7987 123.833 19.9346 123.57 20.6489L119.328 32.2167C119.067 32.931 119.377 33.3449 121.043 34.0287L120.938 34.3148L113.344 31.5167L113.449 31.2306L113.453 31.2326Z" fill="#283C28"/>
<path d="M133.911 27.1321L133.893 27.1199L129.378 34.236C128.191 36.1068 128.333 37.3811 130.082 38.7548L129.92 39.0125L124.65 35.6543L124.812 35.3986C126.661 36.2935 127.734 35.8166 128.92 33.9458L133.504 26.7202C134.225 25.5839 134.111 24.2224 132.607 23.1105L132.759 22.873L137.407 25.8355L138.693 39.0429L138.711 39.0551L142.317 33.3696C143.481 31.5353 143.295 30.2062 141.576 28.8284L141.728 28.589L147.034 31.9715L146.883 32.2089C145.012 31.3506 143.939 31.8274 142.775 33.6597L136.549 43.4724L135.47 42.7846L133.909 27.1362L133.911 27.1321Z" fill="#283C28"/>
<path d="M150.003 48.3429L150.224 48.6107C148.798 51.8268 148.56 54.5681 149.845 56.1245C151.007 57.5306 152.562 57.5367 153.631 56.65C154.866 55.6233 154.751 54.0548 153.767 51.5691C152.846 49.2296 152.086 46.8109 154.241 45.0213C156.462 43.1768 159.304 43.5826 161.311 46.0094C162.126 46.9976 162.598 48.215 162.768 49.2032L164.234 49.3412L164.4 49.5421L160.559 52.7318L160.339 52.464C161.685 49.256 161.837 47.2938 160.8 46.0399C159.97 45.0355 158.502 44.5891 157.3 45.5874C156.081 46.5999 156.273 48.1623 157.304 50.6662C158.118 52.6709 158.847 55.0876 156.676 56.8894C154.639 58.5817 151.661 58.9652 149.294 56.1042C148.507 55.1505 147.758 53.5982 147.535 52.3422L145.877 52.1089L145.711 51.908L150.003 48.3429Z" fill="#283C28"/>
<path d="M156.797 65.5986C157.71 67.2787 158.238 67.6419 158.912 67.2929L170.769 61.1712L170.619 60.881C169.853 59.3937 167.736 59.069 164.205 59.0345L164.083 58.7058L168.75 56.4434L175.105 68.8087L170.548 71.2842L170.351 70.994C172.372 68.0924 173.34 66.1749 172.574 64.6876L172.435 64.4177L160.579 70.5395C159.904 70.8885 159.882 71.5094 160.726 73.2503L160.457 73.3904L156.525 65.7386L156.795 65.5986H156.797Z" fill="#283C28"/>
<path d="M170.125 76.7755C174.821 75.6108 178.617 77.9605 179.682 82.2642C180.775 86.6958 178.59 90.4171 173.875 91.5859C169.139 92.7607 165.362 90.407 164.295 86.081C163.205 81.6717 165.392 77.9504 170.127 76.7735L170.125 76.7755ZM172.877 87.7367C177.908 86.4888 179.864 84.7276 179.258 82.2784C178.653 79.8313 176.151 79.3768 171.12 80.6268C166.066 81.8807 164.106 83.6197 164.716 86.0891C165.321 88.5362 167.823 88.9907 172.875 87.7367H172.877Z" fill="#283C28"/>
<path d="M179.039 99.7315V99.7092L170.625 99.6726C168.412 99.6625 167.412 100.464 167.185 102.68H166.881L166.908 96.418H167.211C167.442 98.4633 168.414 99.1187 170.627 99.1288L179.171 99.1654C180.515 99.1714 181.602 98.3497 181.742 96.4809H182.023L181.999 102.002L171.534 110.131V110.153L178.255 110.181C180.424 110.189 181.446 109.325 181.695 107.132H181.977L181.95 113.436H181.669C181.396 111.391 180.422 110.735 178.253 110.725L166.65 110.676L166.656 109.394L179.037 99.7315H179.039Z" fill="#283C28"/>
<path d="M166.545 116.694C166.163 118.413 166.333 118.886 167.066 119.078L178.962 122.199C179.697 122.392 180.094 122.069 180.602 120.381L180.876 120.452L177.519 133.3L172.32 132.004L172.366 131.657C176.284 130.908 177.849 130.579 178.541 127.929L179.047 125.996L172.542 124.289L172.362 124.983C171.929 126.645 172.441 127.858 174.348 128.964L174.277 129.238L168.214 127.647L168.285 127.373C170.51 127.351 171.571 126.552 172.006 124.89L172.188 124.196L165.159 122.351L164.693 124.139C163.875 127.272 164.908 128.465 168.345 131.186L168.216 131.513L162.768 129.971L166.256 116.619L166.55 116.696L166.545 116.694Z" fill="#283C28"/>
<path d="M40.9052 83.0293C38.1902 87.7814 36.3235 97.6043 36.3539 104.59C36.3539 104.59 48.4205 105.23 49.1109 105.12C51.4129 104.755 51.9373 104.014 55.371 104.099C56.5696 104.13 59.0538 104.489 60.0721 104.639C61.0905 104.789 61.5096 102.358 61.5987 101.249C61.6878 100.139 61.3598 91.1944 60.9103 89.9039C60.4609 88.6134 60.6107 87.1727 61.0298 86.4828C60.7909 85.2228 57.9443 85.0117 56.9867 85.0422C55.4581 85.0909 46.9851 84.7723 46.1753 84.892C45.7258 85.4013 45.3371 85.4317 44.4381 85.312C43.5392 85.1923 43.3307 84.1717 42.8205 83.6319C42.2617 83.0374 40.9032 83.0313 40.9032 83.0313L40.9052 83.0293Z" fill="#283C28"/>
<path d="M37.7507 116.837C36.9125 115.755 36.293 107.911 36.293 107.911C36.2788 107.491 41.6643 107.689 43.8205 107.809C45.7074 107.915 50.4916 107.947 52.4453 107.931C52.8846 107.89 52.4453 108.771 52.7247 109.292C59.086 108.826 64.1759 106.125 66.6864 106.125C66.984 106.125 67.233 106.131 67.4254 106.143C68.3506 106.2 70.8956 106.673 72.2885 106.754C76.0401 106.969 83.5352 107.685 83.5493 107.915C83.6283 109.236 82.6221 113.146 82.0714 114.237C81.9135 114.552 80.6481 115.284 72.8878 116.238C72.8878 116.238 63.0785 116.759 53.8403 116.918C45.6831 117.058 37.9795 116.839 37.7487 116.839L37.7507 116.837Z" fill="#283C28"/>
<path d="M90.0212 106.551C87.5046 106.79 86.0611 107.088 85.9882 107.671C85.9477 107.991 86.4882 109.797 86.7474 111.112C86.9903 112.348 85.1358 116.331 85.401 116.656C85.9679 117.352 88.5513 117.715 90.661 117.715C93.0905 117.715 94.615 112.593 94.694 112.112C94.7729 111.632 93.7323 107.732 93.1775 106.709C92.9386 106.269 90.0232 106.549 90.0232 106.549L90.0212 106.551Z" fill="#283C28"/>
<path d="M78.3704 103.559C77.1334 103.559 76.7487 102.605 75.7648 102.627C69.6545 102.777 67.6825 101.732 67.3282 100.965C66.8869 100.006 66.8666 98.5 66.2714 96.9843C65.7855 95.7466 64.6962 94.5656 64.5039 93.1432C65.0425 90.2011 64.8177 86.9646 65.6417 85.8507C66.1337 85.2034 68.5167 85.0411 73.1024 83.1155C74.5561 83.014 76.3053 82.9531 78.415 82.9531C80.5246 82.9531 82.7092 83.014 84.2985 83.0647C87.0884 83.1581 89.6677 83.292 91.8158 83.5984C94.5511 83.99 100.706 84.9092 105.302 84.9092L105.032 83.6491C110.244 83.919 112.819 85.0593 113.418 85.4591C114.018 85.8588 115.953 89.1804 115.336 90.1808C113.412 93.2893 112.414 97.6438 111.303 98.6238C110.533 99.3036 107.486 100.633 103.526 101.365C98.8554 102.227 94.9155 102.041 91.9373 102.296C91.2631 102.353 88.1189 103.153 87.6553 103.197C86.9102 103.268 85.7441 103.307 84.2722 103.327C83.7316 103.335 82.8813 102.654 82.2658 102.658C81.8791 102.66 81.1806 103.425 80.7716 103.463C80.142 103.524 79.3503 103.559 78.3725 103.559H78.3704Z" fill="#283C28"/>
<path d="M42.7419 130.201C41.0129 128.367 38.63 121.878 38.6684 119.796C39.1179 119.618 47.4775 120.541 50.567 120.916C53.3731 121.257 52.1685 120.316 53.8813 120.316C54.0777 120.316 63.5691 120.563 64.6806 120.563C65.4115 120.563 67.6041 120.445 67.7762 120.675C68.8938 122.156 68.0192 126.861 67.9766 127.598C67.8572 129.68 68.8148 131.999 68.337 131.961C67.3045 131.961 62.6074 131.599 61.3359 131.502C59.7385 131.38 57.7159 132.92 56.7968 132.841C55.3147 132.711 53.6424 131.362 52.2839 131.48C49.6863 131.707 44.0984 131.64 42.7399 130.199L42.7419 130.201Z" fill="#283C28"/>
<path d="M61.4685 141.726C61.7681 141.064 60.8388 140.417 61.0291 139.404C61.0291 139.404 61.8268 138.323 62.6265 137.763C62.9181 137.558 63.489 138.272 63.6287 137.984C64.1632 136.882 64.5378 136.054 64.5439 135.762C64.2321 135.251 60.8105 135.328 56.7977 135.121C54.8845 135.024 51.7868 134.602 49.9302 134.602C47.0047 134.602 46.1361 135.642 46.0977 136.002C47.4865 139.881 55.9312 147.965 57.7979 147.967L61.4705 141.724L61.4685 141.726Z" fill="#283C28"/>
<path d="M113.41 134.575C112.048 134.575 108.666 134.997 104.729 135.162C102.72 135.247 100.951 135.145 99.3269 135.001C98.8329 134.957 97.8368 134.289 97.3671 134.242C96.948 134.2 97.0553 134.776 96.6504 134.736C95.4619 134.618 94.3322 134.523 93.2146 134.523C92.8461 134.523 89.1168 135.176 88.8233 135.164C86.1285 135.048 81.3201 135.683 76.2849 135.683C75.8131 135.683 74.9952 136.075 74.2481 136.083C73.4788 136.091 72.7823 135.714 72.4523 135.71C69.8993 135.683 69.4275 135.628 69.1785 135.722C67.5264 136.337 67.3159 137.873 65.105 140.604C63.7303 142.302 64.6414 145.317 63.5886 147.127C63.1573 147.868 61.2522 148.939 60.7541 149.929C60.5942 150.329 61.1125 151.198 66.5182 153.992C71.4562 156.544 84.1768 158.939 90.7406 159.036C90.9329 159.038 91.1293 159.04 91.3236 159.04C105.166 159.04 116.538 154.572 123.685 148.848C123.019 148.02 121.549 146.431 120.66 144.374C120.569 144.165 119.275 143.558 119.012 143.124C118.749 142.69 119.101 142.071 118.852 141.643C117.686 139.64 116.998 137.98 116.896 137.321C116.658 135.76 117.536 135.559 117.575 135.32C117.615 135.081 113.412 134.571 113.412 134.571L113.41 134.575Z" fill="#283C28"/>
<path d="M82.504 132.494C76.1791 132.494 74.0614 132.179 73.4075 131.96C72.9276 131.8 71.8019 131.12 71.4517 129.919C71.3221 129.477 72.0894 129.19 72.0105 128.679C71.9518 128.296 71.1925 128.17 71.1318 127.758C70.7411 125.106 71.2108 121.275 71.5711 120.715C71.7655 120.411 73.2091 119.954 79.3092 119.962C80.0401 119.962 81.2164 119.189 82.3522 119.394C84.6764 119.814 86.5451 121.315 89.499 121.756C90.7239 121.938 92.1857 121.727 92.8133 121.876C93.4916 122.036 93.1069 128.651 93.0927 128.959C93.0522 129.88 88.1405 132.321 87.4319 132.346C86.6362 132.372 84.7594 132.494 82.506 132.494H82.504Z" fill="#283C28"/>
<path d="M117.293 131.762C115.471 131.762 111.578 131.263 109.721 130.928C109.025 130.802 108.318 130.675 107.589 130.561C106.079 130.326 103.682 130.873 101.918 130.841C99.6364 130.798 96.3829 130.07 96.2877 129.321C96.3282 128.84 97.2676 127.124 97.5511 126.127C97.8406 125.109 97.9641 123.36 97.2859 121.797C96.1703 119.235 96.063 118.254 96.1683 117.114C96.2553 116.167 96.717 115.284 97.047 114.553C97.6058 113.314 98.3245 111.593 98.1261 109.911C97.9864 108.734 97.9844 108.001 98.1909 107.48C98.3711 107.023 99.3226 106.429 99.3226 106.429C99.3226 106.429 101.807 106.413 103.516 106.269C104.852 106.157 106.629 104.741 107.925 104.465C108.688 104.302 109.395 104.075 110.063 103.819C110.43 103.679 111.47 104.061 111.821 103.907C112.108 103.781 111.709 103.119 111.991 102.994C113.213 102.44 116.088 100.871 117.332 100.666C118.413 100.488 118.081 101.251 119.686 100.922C121.095 100.634 124.11 99.3311 126.594 98.9862C127.989 98.7914 128.191 99.9074 129.949 99.3859C131.718 98.8624 132.344 97.3852 133.543 97.1458C134.741 96.9064 137.754 97.6226 140.208 97.2635C141.133 97.1296 145.123 97.1458 145.123 97.1458C145.123 97.1458 145.273 98.3531 145.522 101.307C145.617 102.436 145.824 106.693 145.063 113.253C144.202 120.663 141.847 126.44 139.213 130.401C138.896 130.877 132.706 129.646 131.627 129.36C130.969 129.185 130.208 129.098 129.364 129.098C126.321 129.098 124.835 130.139 121.478 131.137L121.33 131.18C120.014 131.571 118.694 131.762 117.291 131.762H117.293Z" fill="#283C28"/>
<path d="M129.278 65.333C131.55 66.8102 139.616 78.0554 140.723 81.9777C140.634 82.5174 139.725 83.5259 136.022 83.4487C134.585 83.4183 131.631 82.1785 129.035 82.5377C124.842 83.0571 117.217 83.6557 115.58 82.8989C112.294 81.3791 111.551 79.9384 107.874 79.9384C107.384 79.9384 101.326 80.4051 100.537 80.0886C100.237 79.9689 98.0343 78.9969 98.2003 78.378C99.5183 73.4859 99.4475 68.8941 101.136 67.3337C101.766 66.6134 102.723 65.9722 102.723 65.9722C105.639 66.0513 109.232 65.1321 111.028 64.5721C112.826 64.0121 113.144 63.7726 114.662 64.2109C116.179 64.6512 121.37 64.4503 122.528 64.4503C123.686 64.4503 123.247 64.8115 125.124 65.2112C127 65.611 129.282 65.335 129.282 65.335L129.278 65.333Z" fill="#283C28"/>
<path d="M142.569 86.2622C143.845 88.8189 144.766 92.7391 144.766 93.7455C144.715 93.9322 143.885 93.6035 142.729 93.7049C141.875 93.78 141.213 94.4415 140.212 94.5044C139.305 94.5612 138.072 94.0235 137.099 94.0235C136.459 94.0235 134.582 94.2629 134.582 94.2629C134.582 94.2629 134.744 91.0204 134.625 90.4259C134.463 89.6224 134.861 88.9406 135.181 88.4212C135.501 87.9017 135.58 86.9399 135.58 86.9399C135.58 86.9399 137.058 87.0596 137.657 86.8608C138.257 86.6599 139.054 85.7002 139.654 85.6596C140.253 85.619 142.209 85.5399 142.569 86.2602V86.2622Z" fill="#283C28"/>
<path d="M98.1271 65.4503C98.0481 65.8115 97.4407 65.9698 95.651 65.9698C94.91 65.9698 93.8734 66.2518 92.6768 66.193C91.9743 66.1585 91.1725 66.1118 90.302 66.0611C87.5525 65.9028 84.3051 65.7689 81.1568 65.7689C78.9945 65.7689 79.5108 66.1422 78.1219 66.3289C76.978 66.4831 72.8377 66.5683 69.736 66.5683C64.5935 66.5683 57.9305 66.3776 54.4826 66.2478C54.1405 66.2356 52.3041 66.2762 52.1665 65.9677C52.0328 65.6654 57.5175 60.4851 58.8355 60.2842C62.1093 60.2842 70.6147 60.1645 75.739 60.8057C76.2573 60.8707 76.976 60.8362 77.8223 60.8362C78.4438 60.8362 79.1363 60.8321 79.8752 60.828C80.7195 60.824 81.7035 61.0452 82.6327 61.0452C84.5865 61.0452 87.3197 61.3881 89.5812 61.5646C92.2435 61.7736 94.0009 61.6924 95.1306 62.0009C95.7603 62.1733 97.4367 62.0049 97.7667 62.0049C98.206 62.5649 98.206 65.0871 98.1271 65.4463V65.4503Z" fill="#283C28"/>
<path d="M103.515 61.2893C102.616 61.2324 95.8783 58.2334 95.0158 58.0549C92.8717 57.6125 91.6509 57.6876 89.6607 57.6876C89.0979 57.6876 85.2511 59.1161 84.909 58.7285C84.3097 58.0488 83.3662 57.643 81.0825 57.643C79.6409 57.643 78.2683 57.1783 77.0818 57.087C74.8548 56.9166 67.3313 57.0261 64.4746 56.9105C67.7767 54.6054 78.8372 49.2425 94.1128 49.7843C107.269 50.5635 120.777 57.9149 120.605 58.4079C120.242 59.4468 114.375 60.4898 113.258 60.8895C113.025 60.9727 108.625 61.6099 103.515 61.2893Z" fill="#283C28"/>
<path d="M122.445 132.802C122.445 132.802 120.967 137.045 121.246 138.643C121.525 140.244 121.726 141.245 121.845 141.245C122.643 141.405 124.162 145.126 124.921 145.406C128.195 145.086 128.976 142.706 130.047 142.787C130.375 142.811 130.685 142.653 130.853 142.371C131.823 140.74 133.699 138.702 134.025 138.485C134.386 138.246 135.384 134.963 135.503 134.163C135.623 133.364 132.029 132.723 131.15 132.562C130.272 132.402 123.125 132.763 122.445 132.802Z" fill="#283C28"/>
<path d="M131.628 92.4652C130.391 93.4249 127.794 96.6329 124.121 96.8277C122.605 96.9069 119.05 97.0672 117.094 95.2268C117.734 94.547 117.812 94.3056 118.173 94.1067C118.533 93.9058 119.052 94.0276 118.892 93.2667C118.732 92.5058 118.612 91.1463 119.171 90.1845C119.73 89.2247 120.608 86.8223 120.568 86.0634C126.079 85.7022 130.59 86.3434 130.91 86.5443C131.23 86.7452 131.428 91.4263 131.628 92.4672V92.4652Z" fill="#283C28"/>
<path d="M81.5703 69.8084C82.2263 73.0123 82.6353 78.1906 82.9227 78.8074C83.2102 79.4242 84.3987 80.1223 84.8502 80.2034C85.3017 80.2846 86.2431 79.4648 86.6946 79.3816C87.1461 79.3005 88.13 80.3678 88.13 80.3678C88.13 80.3678 89.8105 79.9579 90.5069 80.0796C91.2034 80.2034 92.7623 80.3678 93.6633 79.9985C94.5642 79.6292 95.7547 77.2876 95.7952 76.0539C95.8357 74.8223 94.1148 71.9856 94.0743 71.2064C94.0338 70.4252 94.2788 69.6034 94.2788 69.6034C93.0903 68.9054 92.6793 68.8648 91.4909 68.9054C90.3024 68.946 89.7275 69.6866 88.294 69.7678C86.8586 69.8489 81.5703 69.8084 81.5703 69.8084Z" fill="#283C28"/>
<path d="M42.1836 79.6964C45.3379 73.2135 48.2939 70.3727 48.2939 70.3727C50.8489 70.7339 53.2056 70.253 54.5236 69.8918C55.8416 69.5307 59.3543 69.7315 61.5915 70.1313C63.8266 70.531 64.9847 69.9304 64.9847 69.9304C64.9847 69.9304 66.7826 70.3301 67.4608 70.4113C68.1391 70.4904 70.2568 70.531 70.4957 70.1313C70.7346 69.7315 70.9755 69.7315 71.7327 69.5712C73.8444 69.1248 75.703 69.0335 76.8833 69.9324C77.8815 70.6933 77.4016 72.3328 77.922 73.1343C78.4403 73.9338 78.9606 74.8956 78.9606 75.2547C78.9606 75.6139 77.922 76.6163 77.7235 77.4563C77.5231 78.2963 77.436 79.0877 76.3266 79.4976C75.5673 79.7776 71.2549 79.177 70.1778 79.2967C69.0987 79.4164 64.6669 80.3376 62.5511 80.7373C60.4354 81.1371 42.5865 80.4573 42.1876 79.6964H42.1836Z" fill="#283C28"/>
</g>
<defs>
<clipPath id="clip0_229_1836">
<rect width="182" height="165.447" fill="white"/>
</clipPath>
</defs>
</svg>
