<svg width="81" height="81" viewBox="0 0 81 81" fill="none" xmlns="http://www.w3.org/2000/svg">
<rect width="80.4736" height="80.4736" rx="40.2368" fill="#283C28"/>
<path d="M42.9506 35.685H34.3218C33.5678 35.685 32.9566 35.0738 32.9566 34.3198C32.9566 33.5658 33.5678 32.9546 34.3218 32.9546H46.1533C46.9072 32.9546 47.5185 33.5658 47.5185 34.3198V46.1513C47.5185 46.9053 46.9072 47.5165 46.1533 47.5165C45.3994 47.5165 44.7881 46.9053 44.7881 46.1513V37.708L35.2825 47.1215C34.7468 47.6519 33.8824 47.6478 33.3518 47.1121C32.8213 46.5764 32.8255 45.7119 33.3613 45.1815L42.9506 35.685ZM22.0352 40.2356C22.0352 50.2884 30.1846 58.4379 40.2375 58.4379C50.2903 58.4379 58.4399 50.2884 58.4399 40.2356C58.4399 30.1827 50.2903 22.0332 40.2375 22.0332C30.1846 22.0332 22.0352 30.1827 22.0352 40.2356ZM40.2375 55.7076C31.6926 55.7076 24.7655 48.7805 24.7655 40.2356C24.7655 31.6906 31.6926 24.7636 40.2375 24.7636C48.7824 24.7636 55.7095 31.6906 55.7095 40.2356C55.7095 48.7805 48.7824 55.7076 40.2375 55.7076Z" fill="#DBC6BC"/>
</svg>
