<svg width="33" height="32" viewBox="0 0 33 32" fill="none" xmlns="http://www.w3.org/2000/svg">
<path d="M18.8505 12.114H11.3447C10.6889 12.114 10.1572 11.5823 10.1572 10.9265C10.1572 10.2707 10.6889 9.73901 11.3447 9.73901H21.6364C22.2922 9.73901 22.8239 10.2707 22.8239 10.9265V21.2182C22.8239 21.874 22.2922 22.4057 21.6364 22.4057C20.9806 22.4057 20.4489 21.874 20.4489 21.2182V13.8737L12.1804 22.0621C11.7144 22.5235 10.9625 22.5198 10.501 22.0539C10.0396 21.5879 10.0432 20.836 10.5092 20.3746L18.8505 12.114ZM0.657227 16.0723C0.657227 24.8168 7.74605 31.9057 16.4906 31.9057C25.235 31.9057 32.3239 24.8168 32.3239 16.0723C32.3239 7.32783 25.235 0.239014 16.4906 0.239014C7.74605 0.239014 0.657227 7.32783 0.657227 16.0723ZM16.4906 29.5307C9.05773 29.5307 3.03223 23.5051 3.03223 16.0723C3.03223 8.63952 9.05773 2.61401 16.4906 2.61401C23.9234 2.61401 29.9489 8.63952 29.9489 16.0723C29.9489 23.5051 23.9234 29.5307 16.4906 29.5307Z" fill="#17181C"/>
</svg>
