<svg width="257" height="75" viewBox="0 0 257 75" fill="none" xmlns="http://www.w3.org/2000/svg">
<g clip-path="url(#clip0_95_9953)">
<path d="M86.3877 25.6088H86.9657C89.442 31.0849 92.3732 34.9132 96.7913 34.9132C100.836 34.9132 102.86 32.1956 102.86 29.602C102.86 25.9795 100.383 24.5375 95.2649 22.7671C91.1365 21.3265 86.8428 20.0086 86.8428 14.6974C86.8428 9.38624 91.0121 5.88633 96.585 5.88633C99.0202 5.88633 101.291 6.58686 102.777 7.28602L104.264 5.63965H104.758V14.8215H104.18C101.909 9.38624 99.2675 6.67 95.9236 6.67C93.1166 6.67 90.5571 8.48128 90.5571 11.7345C90.5571 15.2753 93.241 16.5932 97.9884 18.1578C101.91 19.4757 106.121 20.9163 106.121 26.2684C106.121 30.7973 103.437 35.7378 96.2953 35.7378C93.9421 35.7378 91.1761 34.9146 89.36 33.8856L86.8824 35.9027H86.3877V25.6101V25.6088Z" fill="#DBC6BC"/>
<path d="M106.615 42.5312C109.009 42.4903 109.547 42.2436 109.547 40.9666V18.9395C109.547 17.7047 108.968 16.9224 106.615 16.8815V16.3882L113.798 16.0992V18.8168C115.532 17.0873 117.555 15.8525 120.073 15.8525C124.862 15.8525 127.587 19.8881 127.587 25.4051C127.587 30.922 124.243 35.4918 118.835 35.4918C116.772 35.4918 115.367 35.0802 113.881 34.2979V40.9679C113.881 42.245 114.666 42.4916 117.803 42.5325V43.0259H106.615V42.5325V42.5312ZM122.922 25.6504C122.922 21.2033 121.272 17.5398 118.01 17.5398C116.441 17.5398 115.162 18.2812 113.881 19.5991V31.5803C114.748 33.8441 116.275 34.7095 118.134 34.7095C121.313 34.7095 122.922 31.5803 122.922 25.6517V25.6504Z" fill="#DBC6BC"/>
<path d="M128.247 34.6675C130.641 34.6266 131.219 34.3377 131.219 33.1029V8.48089C131.219 7.0812 130.807 6.46381 127.917 6.38068V5.88731L135.554 5.64062V33.1029C135.554 34.3377 136.091 34.6266 138.486 34.6675V35.1609H128.247V34.6675Z" fill="#DBC6BC"/>
<path d="M138.979 25.8984C138.979 20.0107 143.273 15.8525 148.309 15.8525C153.841 15.8525 156.689 19.7232 156.359 24.6228H143.686V25.6517C143.686 30.4273 145.833 33.8455 150.168 33.8455C152.768 33.8455 154.296 32.5275 155.989 30.3455L156.443 30.6754C154.792 33.3507 152.439 35.4918 148.31 35.4918C142.779 35.4918 138.981 31.5803 138.981 25.8984H138.979ZM143.727 23.8813H151.736C152.149 19.3524 151.117 16.6348 148.021 16.6348C145.544 16.6348 144.017 19.1467 143.727 23.8813Z" fill="#DBC6BC"/>
<path d="M156.855 34.6686C159.208 34.6278 159.786 34.3388 159.786 33.104V18.9409C159.786 17.7061 159.208 16.9238 156.855 16.8829V16.3895L164.038 16.1006V20.5463C165.895 17.6229 168.413 15.9766 171.179 15.9766C174.441 15.9766 176.257 17.9528 176.257 21.7402V33.104C176.257 34.3388 176.794 34.6278 179.189 34.6686V35.162H169.446V34.6686C171.346 34.6278 171.924 34.3388 171.924 33.104V22.5225C171.924 19.5582 171.058 18.0754 168.58 18.0754C166.805 18.0754 165.236 19.4342 164.121 21.5344V33.104C164.121 34.3388 164.699 34.6278 166.556 34.6686V35.162H156.855V34.6686Z" fill="#DBC6BC"/>
<path d="M179.063 25.9378C179.063 20.2968 182.902 15.851 188.558 15.851C190.54 15.851 191.655 16.2626 192.769 16.8391V8.48187C192.769 7.08218 192.356 6.46479 189.466 6.38165V5.88828L197.103 5.6416V33.063C197.103 34.092 197.723 34.7094 200.076 34.7503V35.1619L192.851 35.3268V33.0616C191.488 34.4613 189.631 35.4903 187.237 35.4903C182.118 35.4903 179.063 31.3321 179.063 25.9392V25.9378ZM192.769 32.1962V18.7322C191.86 17.4552 190.705 16.632 188.806 16.632C185.668 16.632 183.769 20.2545 183.769 25.7306C183.769 30.2595 185.668 33.7594 189.259 33.7594C190.869 33.7594 191.901 33.1421 192.769 32.1948V32.1962Z" fill="#DBC6BC"/>
<path d="M199.498 25.7335C199.498 19.8867 203.874 15.8525 209.158 15.8525C214.443 15.8525 218.778 19.7232 218.778 25.5686C218.778 31.4141 214.402 35.4905 209.158 35.4905C203.626 35.4905 199.498 31.6199 199.498 25.7322V25.7335ZM213.947 25.6517C213.947 19.2284 212.09 16.6348 208.952 16.6348C205.814 16.6348 204.286 19.2284 204.286 25.6517C204.286 32.0751 206.186 34.7095 209.324 34.7095C212.461 34.7095 213.947 32.0751 213.947 25.6517Z" fill="#DBC6BC"/>
<path d="M221.832 29.6859V18.7759C221.832 17.5412 221.213 16.7998 218.819 16.7589V16.2655L226.167 16.1006V28.7809C226.167 31.7452 227.033 33.3507 229.511 33.3507C231.327 33.3507 232.773 32.0751 233.846 29.9748V18.7759C233.846 17.5412 233.227 16.8406 230.873 16.7998V16.3064L238.18 16.1006V33.1463C238.18 34.2175 238.799 34.6291 241.153 34.7109V35.1634H233.928V30.9643C232.152 33.9286 229.799 35.4523 227.074 35.4523C223.855 35.4523 221.831 33.5579 221.831 29.6886L221.832 29.6859Z" fill="#DBC6BC"/>
<path d="M241.317 34.6675C243.671 34.6266 244.249 34.3377 244.249 33.1029V18.9397C244.249 17.705 243.671 16.9227 241.317 16.8818V16.3884L248.5 16.0995V20.2577C249.944 17.5809 251.968 15.9346 254.073 15.9346C256.344 15.9346 257.376 17.3343 257.376 18.9397C257.376 20.5452 256.344 21.6165 254.857 21.6165C253.37 21.6165 252.257 20.5452 252.257 19.0638C252.257 18.6522 252.381 18.1166 252.504 17.7867C250.894 17.9925 249.779 19.1864 248.582 21.2035V33.1016C248.582 34.3364 249.366 34.5844 252.173 34.6662V35.1595H241.316V34.6662L241.317 34.6675Z" fill="#DBC6BC"/>
<path d="M86.352 68.7811C88.7462 68.7402 89.3652 68.4513 89.3652 67.2165V53.0533C89.3652 51.8185 88.7462 51.0362 86.352 50.9954V50.502L93.7 50.2131V67.2165C93.7 68.4513 94.1537 68.7402 96.7132 68.7811V69.2745H86.3506V68.7811H86.352ZM88.6232 43.9955C88.6232 42.3083 89.6959 41.1553 91.3071 41.1553C92.9183 41.1553 94.032 42.2265 94.032 43.8729C94.032 45.5193 92.9593 46.6723 91.3071 46.6723C89.6549 46.6723 88.6232 45.6433 88.6232 43.9955Z" fill="#DBC6BC"/>
<path d="M97.1689 68.7819C99.5222 68.741 100.1 68.4521 100.1 67.2173V53.0541C100.1 51.8194 99.5222 51.0371 97.1689 50.9962V50.5028L104.352 50.2139V54.6596C106.209 51.7362 108.727 50.0898 111.493 50.0898C114.755 50.0898 116.571 52.066 116.571 55.8535V67.2173C116.571 68.4521 117.108 68.741 119.503 68.7819V69.2753H109.76V68.7819C111.66 68.741 112.238 68.4521 112.238 67.2173V56.6358C112.238 53.6715 111.372 52.1887 108.894 52.1887C107.119 52.1887 105.55 53.5475 104.435 55.6477V67.2173C104.435 68.4521 105.013 68.741 106.87 68.7819V69.2753H97.1689V68.7819Z" fill="#DBC6BC"/>
<path d="M127.634 59.723H128.212C130.689 65.1991 133.62 69.0275 138.038 69.0275C142.083 69.0275 144.107 66.3099 144.107 63.7163C144.107 60.0937 141.629 58.6518 136.511 56.8814C132.383 55.4408 128.089 54.1229 128.089 48.8117C128.089 43.5005 132.259 40.0006 137.832 40.0006C140.267 40.0006 142.538 40.7011 144.023 41.4003L145.51 39.7539H146.005V48.9357H145.427C143.156 43.5005 140.514 40.7843 137.17 40.7843C134.363 40.7843 131.804 42.5955 131.804 45.8488C131.804 49.3896 134.488 50.7075 139.235 52.2721C143.157 53.59 147.367 55.0306 147.367 60.3827C147.367 64.9115 144.684 69.852 137.542 69.852C135.189 69.852 132.423 69.0288 130.607 67.9999L128.129 70.0169H127.634V59.7244V59.723Z" fill="#DBC6BC"/>
<path d="M151.825 64.2097V51.776H147.986V51.2404L151.825 50.3341V45.1046L156.16 43.54V50.4567H162.022V51.7338H156.16V64.579C156.16 67.0499 156.862 67.9958 158.554 67.9958C159.751 67.9958 160.948 67.1726 162.022 65.2373L162.517 65.5671C161.196 68.2425 159.379 69.6844 156.779 69.6844C153.559 69.6844 151.825 67.9958 151.825 64.2083V64.2097Z" fill="#DBC6BC"/>
<path d="M162.64 59.8468C162.64 54 167.016 49.9658 172.3 49.9658C177.585 49.9658 181.92 53.8364 181.92 59.6819C181.92 65.5273 177.544 69.6038 172.3 69.6038C166.769 69.6038 162.64 65.7331 162.64 59.8454V59.8468ZM177.089 59.765C177.089 53.3417 175.232 50.7481 172.094 50.7481C168.956 50.7481 167.429 53.3417 167.429 59.765C167.429 66.1883 169.328 68.8228 172.466 68.8228C175.603 68.8228 177.089 66.1883 177.089 59.765Z" fill="#DBC6BC"/>
<path d="M182.043 68.7819C184.396 68.741 184.974 68.4521 184.974 67.2173V53.0541C184.974 51.8194 184.396 51.0371 182.043 50.9962V50.5028L189.226 50.2139V54.6596C191.083 51.7362 193.601 50.0898 196.367 50.0898C199.629 50.0898 201.445 52.066 201.445 55.8535V67.2173C201.445 68.4521 201.983 68.741 204.377 68.7819V69.2753H194.634V68.7819C196.534 68.741 197.112 68.4521 197.112 67.2173V56.6358C197.112 53.6715 196.246 52.1887 193.768 52.1887C191.993 52.1887 190.424 53.5475 189.309 55.6477V67.2173C189.309 68.4521 189.887 68.741 191.744 68.7819V69.2753H182.043V68.7819Z" fill="#DBC6BC"/>
<path d="M204.252 60.0117C204.252 54.124 208.546 49.9658 213.582 49.9658C219.114 49.9658 221.962 53.8364 221.632 58.736H208.959V59.765C208.959 64.5406 211.106 67.9587 215.44 67.9587C218.041 67.9587 219.569 66.6408 221.262 64.4588L221.716 64.7886C220.065 67.464 217.712 69.6051 213.583 69.6051C208.051 69.6051 204.254 65.6936 204.254 60.0117H204.252ZM209 57.9946H217.009C217.422 53.4657 216.39 50.7481 213.294 50.7481C210.817 50.7481 209.29 53.2599 209 57.9946Z" fill="#DBC6BC"/>
<path d="M3.17973 22.8398C1.30754 26.0999 0.0216061 32.8421 0.040738 37.634C0.040738 37.634 8.36174 38.0729 8.83867 37.9979C10.4253 37.7472 10.7874 37.2388 13.1543 37.2974C13.9797 37.3179 15.6947 37.5645 16.3971 37.6681C17.0995 37.7717 17.3879 36.1022 17.4508 35.3403C17.5122 34.5784 17.2854 28.44 16.9752 27.5555C16.665 26.6696 16.7688 25.6815 17.0572 25.2072C16.8918 24.3418 14.9294 24.1986 14.2694 24.2191C13.2158 24.2518 7.37235 24.0337 6.81479 24.1155C6.50458 24.4658 6.23674 24.4862 5.61768 24.4044C4.99863 24.3227 4.85377 23.6221 4.50257 23.2514C4.1172 22.8439 3.1811 22.8398 3.1811 22.8398H3.17973Z" fill="#DBC6BC"/>
<path d="M1.00581 46.038C0.427753 45.2966 1.84492e-05 39.9131 1.84492e-05 39.9131C-0.00954749 39.6256 3.7034 39.7618 5.19023 39.8436C6.49119 39.9159 9.79144 39.939 11.1375 39.9268C11.4409 39.8995 11.1375 40.5033 11.3302 40.8603C15.7169 40.5401 19.2262 38.6865 20.959 38.6865C21.1653 38.6865 21.3362 38.6906 21.4687 38.6988C22.1069 38.7383 23.8616 39.0627 24.8223 39.1172C27.4092 39.2644 32.5775 39.7564 32.5871 39.9131C32.6418 40.8195 31.9475 43.503 31.5676 44.2526C31.4583 44.4679 30.5864 44.9722 25.235 45.625C25.235 45.625 18.4705 45.9835 12.1009 46.0925C6.47616 46.1892 1.16433 46.038 1.00444 46.038H1.00581Z" fill="#DBC6BC"/>
<path d="M37.0483 38.9791C35.3141 39.144 34.3179 39.3471 34.2674 39.7478C34.24 39.9672 34.6117 41.2074 34.7907 42.1097C34.9588 42.9574 33.6797 45.6914 33.8615 45.9149C34.2523 46.3919 36.0343 46.6413 37.4883 46.6413C39.1637 46.6413 40.2146 43.1264 40.2693 42.7966C40.324 42.4668 39.6065 39.79 39.2225 39.0895C39.0572 38.7869 37.0469 38.9791 37.0469 38.9791H37.0483Z" fill="#DBC6BC"/>
<path d="M29.0169 36.9264C28.1642 36.9264 27.8991 36.2708 27.2199 36.2885C23.0068 36.3921 21.6457 35.6739 21.4024 35.1478C21.0977 34.4895 21.084 33.4564 20.6741 32.4165C20.3392 31.5661 19.5876 30.7565 19.4551 29.7807C19.8268 27.7623 19.671 25.5421 20.2395 24.7762C20.5798 24.3319 22.2224 24.2201 25.3846 22.8995C26.3863 22.8299 27.5943 22.7891 29.0484 22.7891C30.5584 22.7891 32.0097 22.8299 33.1057 22.8667C35.0298 22.9308 36.8077 23.0221 38.2891 23.2334C40.1763 23.5019 44.4195 24.1329 47.5885 24.1329L47.4027 23.2674C50.9954 23.4528 52.7719 24.2351 53.1846 24.5104C53.5973 24.7843 54.9324 27.0645 54.5061 27.7514C53.1805 29.8843 52.4917 32.8717 51.7251 33.545C51.1949 34.0111 49.0931 34.9243 46.3627 35.4258C43.1417 36.0173 40.425 35.8892 38.371 36.0636C37.9064 36.1032 35.739 36.651 35.4179 36.681C34.9041 36.7287 34.1005 36.756 33.0838 36.7696C32.7121 36.7751 32.1259 36.3076 31.6995 36.3103C31.433 36.3117 30.952 36.8364 30.6691 36.8623C30.2359 36.9032 29.6893 36.9277 29.0156 36.9277L29.0169 36.9264Z" fill="#DBC6BC"/>
<path d="M4.44632 55.2095C3.25468 53.9515 1.6107 49.4976 1.63803 48.0693C1.94824 47.9466 7.71241 48.5804 9.84288 48.838C11.7779 49.0724 10.9471 48.4264 12.1278 48.4264C12.2631 48.4264 18.8075 48.5967 19.5742 48.5967C20.0771 48.5967 21.5899 48.515 21.7101 48.6731C22.4809 49.6898 21.8768 52.9185 21.8481 53.4241C21.7648 54.8524 22.4262 56.4443 22.0955 56.417C21.3835 56.417 18.1448 56.169 17.2674 56.1022C16.166 56.0191 14.7707 57.0753 14.138 57.0208C13.1158 56.9322 11.9638 56.0054 11.0263 56.0872C9.23476 56.2426 5.38105 56.1976 4.44495 55.2081L4.44632 55.2095Z" fill="#DBC6BC"/>
<path d="M17.3601 63.1188C17.5665 62.6649 16.9255 62.2206 17.0567 61.5256C17.0567 61.5256 17.6074 60.7841 18.1582 60.3998C18.3604 60.2594 18.7526 60.7501 18.8497 60.5525C19.2173 59.796 19.4769 59.2277 19.4796 59.0274C19.2651 58.6771 16.905 58.7289 14.1377 58.5885C12.8176 58.5217 10.6817 58.2314 9.40123 58.2314C7.38282 58.2314 6.78563 58.9456 6.7583 59.1923C7.71626 61.8554 13.5406 67.4024 14.8265 67.4037L17.3601 63.1201V63.1188Z" fill="#DBC6BC"/>
<path d="M53.1788 58.2113C52.24 58.2113 49.9073 58.5002 47.1933 58.6147C45.8089 58.6733 44.5886 58.6038 43.468 58.5056C43.1277 58.4757 42.4404 58.0177 42.1165 57.985C41.8281 57.955 41.9006 58.3516 41.6231 58.3244C40.8046 58.2426 40.0256 58.1772 39.2535 58.1772C38.9993 58.1772 36.4275 58.6256 36.2252 58.616C34.3681 58.537 31.0514 58.9731 27.579 58.9731C27.2537 58.9731 26.6893 59.243 26.1742 59.2471C25.659 59.2511 25.1643 58.9936 24.9347 58.9908C23.1745 58.9731 22.8493 58.935 22.6771 58.999C21.5374 59.4201 21.3925 60.475 19.8688 62.349C18.9204 63.5143 19.5491 65.5845 18.822 66.8247C18.5241 67.3331 17.2109 68.0677 16.8665 68.7464C16.7558 69.0204 17.1138 69.6159 20.8418 71.5335C24.2473 73.2849 33.0193 74.9285 37.544 74.9953C37.6779 74.998 37.8132 74.998 37.9457 74.998C47.4912 74.998 55.3325 71.9315 60.2617 68.005C59.8012 67.4367 58.7886 66.3464 58.1763 64.9358C58.1148 64.7927 57.2211 64.377 57.0407 64.0785C56.859 63.7787 57.1022 63.3562 56.93 63.0618C56.1265 61.6866 55.6509 60.5486 55.5812 60.0961C55.4159 59.0249 56.0213 58.8873 56.05 58.7237C56.0773 58.5588 53.1802 58.2099 53.1802 58.2099L53.1788 58.2113Z" fill="#DBC6BC"/>
<path d="M31.8667 56.7824C27.5046 56.7824 26.0451 56.5671 25.5942 56.4172C25.2635 56.3068 24.4872 55.8407 24.2454 55.0161C24.1565 54.7122 24.6854 54.516 24.6307 54.1643C24.5897 53.9013 24.0663 53.8154 24.0253 53.5333C23.7561 51.7138 24.08 49.0848 24.3287 48.7005C24.4626 48.492 25.4575 48.1785 29.6652 48.184C30.1694 48.184 30.9798 47.6538 31.7628 47.7942C33.3658 48.0817 34.6545 49.1121 36.692 49.4146C37.5366 49.54 38.5437 49.3956 38.9769 49.4964C39.4456 49.6068 39.1792 54.1452 39.1696 54.3565C39.1423 54.9875 35.7546 56.6639 35.2653 56.6802C34.716 56.6993 33.4218 56.7824 31.8681 56.7824H31.8667Z" fill="#DBC6BC"/>
<path d="M55.8549 56.281C54.5976 56.281 51.9123 55.9376 50.6332 55.7086C50.1536 55.6227 49.6657 55.5355 49.1628 55.4565C48.1215 55.2943 46.468 55.6718 45.2531 55.6486C43.6802 55.6186 41.4363 55.1185 41.3707 54.6047C41.398 54.2748 42.0458 53.0973 42.2425 52.4131C42.4421 51.714 42.5268 50.5132 42.0594 49.442C41.2914 47.6839 41.2163 47.0106 41.2887 46.2297C41.3488 45.5796 41.6672 44.9744 41.8941 44.4715C42.2794 43.6197 42.7755 42.4395 42.6375 41.2865C42.5405 40.4783 42.5405 39.9754 42.6826 39.6183C42.8069 39.3048 43.4629 38.8973 43.4629 38.8973C43.4629 38.8973 45.1766 38.8864 46.3545 38.7869C47.2756 38.7092 48.5028 37.7389 49.3951 37.5494C49.9226 37.4377 50.4078 37.2823 50.8697 37.1065C51.1225 37.0097 51.8399 37.2714 52.0818 37.1664C52.2813 37.0792 52.0053 36.6267 52.1993 36.5395C53.0425 36.1606 55.0254 35.0839 55.8822 34.9422C56.6284 34.8195 56.3988 35.3429 57.5057 35.118C58.4773 34.9204 60.5559 34.0263 62.2695 33.7892C63.2316 33.6556 63.371 34.4202 64.5831 34.0631C65.7953 33.7061 66.2353 32.6907 67.0607 32.5258C67.8861 32.3609 69.9646 32.8529 71.6565 32.6076C72.2946 32.5149 75.0455 32.5258 75.0455 32.5258C75.0455 32.5258 75.1494 33.3544 75.3202 35.3824C75.3858 36.1565 75.5279 39.0786 75.0032 43.5802C74.4101 48.6652 72.7866 52.6285 70.9691 55.3474C70.7504 55.6745 66.4826 54.8295 65.7379 54.6333C65.2842 54.5133 64.7594 54.4534 64.1773 54.4534C62.0796 54.4534 61.0533 55.1675 58.7383 55.8517L58.6372 55.8817C57.7298 56.1502 56.8183 56.281 55.8521 56.281H55.8549Z" fill="#DBC6BC"/>
<path d="M64.121 10.6962C65.6871 11.7102 71.249 19.4269 72.0129 22.1172C71.9514 22.4879 71.3255 23.1789 68.7701 23.1257C67.7793 23.1053 65.7417 22.2535 63.9515 22.5015C61.0599 22.8586 55.8014 23.2688 54.6726 22.7482C52.4068 21.7056 51.8944 20.7161 49.358 20.7161C49.0205 20.7161 44.8429 21.0364 44.299 20.8197C44.0926 20.738 42.573 20.0715 42.6878 19.6463C43.5966 16.2895 43.5488 13.1385 44.7117 12.0672C45.1449 11.5725 45.8063 11.1336 45.8063 11.1336C47.8165 11.1882 50.2941 10.5571 51.5336 10.1728C52.7731 9.78847 52.9931 9.62356 54.0399 9.92613C55.0867 10.2287 58.6657 10.091 59.4638 10.091C60.2618 10.091 59.9598 10.3377 61.254 10.613C62.5481 10.887 64.121 10.6975 64.121 10.6975V10.6962Z" fill="#DBC6BC"/>
<path d="M73.2865 25.0578C74.1666 26.8119 74.8007 29.5022 74.8007 30.1932C74.7652 30.3213 74.1926 30.0951 73.3959 30.1659C72.8069 30.2177 72.3505 30.6716 71.6617 30.7152C71.0372 30.7547 70.1858 30.3854 69.5135 30.3854C69.0721 30.3854 67.7793 30.5503 67.7793 30.5503C67.7793 30.5503 67.8914 28.3247 67.808 27.9172C67.6959 27.3652 67.972 26.8977 68.192 26.542C68.412 26.1849 68.4667 25.5253 68.4667 25.5253C68.4667 25.5253 69.4861 25.6071 69.8988 25.4708C70.3115 25.3331 70.8623 24.6748 71.275 24.6476C71.6877 24.6203 73.0378 24.5658 73.2852 25.0592L73.2865 25.0578Z" fill="#DBC6BC"/>
<path d="M42.638 10.7767C42.5833 11.0234 42.1638 11.1338 40.9312 11.1338C40.4201 11.1338 39.7053 11.3273 38.8799 11.2864C38.3948 11.2633 37.8427 11.2305 37.2428 11.1965C35.3474 11.0874 33.1076 10.9961 30.9361 10.9961C29.4452 10.9961 29.8005 11.2524 28.8439 11.3805C28.054 11.4868 25.2006 11.5454 23.062 11.5454C19.5157 11.5454 14.9214 11.4145 12.5435 11.3259C12.3071 11.3164 11.0417 11.3464 10.946 11.1338C10.8531 10.9266 14.6357 7.3722 15.5445 7.23454C17.8021 7.23454 23.6674 7.15277 27.2013 7.59162C27.558 7.6366 28.054 7.61343 28.6375 7.61343C29.0666 7.61343 29.5436 7.6107 30.0533 7.60798C30.6355 7.60525 31.3133 7.75653 31.9556 7.75653C33.303 7.75653 35.1875 7.99095 36.7467 8.11361C38.582 8.25671 39.7942 8.20083 40.5731 8.41345C41.0077 8.53202 42.1638 8.41617 42.392 8.41617C42.6954 8.80051 42.6954 10.53 42.6394 10.7781L42.638 10.7767Z" fill="#DBC6BC"/>
<path d="M46.3563 7.92131C45.7358 7.88315 41.0895 5.82381 40.4951 5.70115C39.0164 5.39723 38.1746 5.44902 36.8012 5.44902C36.4131 5.44902 33.7606 6.4303 33.5242 6.16318C33.1115 5.6957 32.461 5.41767 30.8854 5.41767C29.8919 5.41767 28.9449 5.09876 28.1263 5.03606C26.5903 4.91885 21.4028 4.99381 19.4336 4.91477C21.7117 3.33517 29.3384 -0.344639 39.8719 0.026068C48.9445 0.560322 58.259 5.60439 58.1401 5.94375C57.89 6.65654 53.845 7.37206 53.0743 7.646C52.9144 7.70324 49.8806 8.14073 46.3563 7.91994V7.92131Z" fill="#DBC6BC"/>
<path d="M59.4071 56.9935C59.4071 56.9935 58.3876 59.9046 58.5817 61.0031C58.7744 62.1016 58.9124 62.7885 58.9944 62.7885C59.5451 62.8989 60.5919 65.4516 61.1139 65.6451C63.3715 65.4257 63.9113 63.7916 64.6492 63.8474C64.8747 63.8638 65.0879 63.7561 65.2041 63.5612C65.8723 62.4423 67.1664 61.044 67.3919 60.8941C67.6393 60.7291 68.328 58.4776 68.4114 57.9284C68.4934 57.3792 66.0158 56.9403 65.4104 56.8299C64.805 56.7195 59.8758 56.9676 59.4071 56.9948V56.9935Z" fill="#DBC6BC"/>
<path d="M65.7416 29.3131C64.8875 29.9728 63.0973 32.1739 60.5651 32.3061C59.5183 32.3606 57.068 32.471 55.7192 31.2076C56.1593 30.7401 56.2153 30.5765 56.4626 30.4389C56.71 30.3012 57.068 30.3844 56.9587 29.8624C56.848 29.3404 56.766 28.4068 57.1514 27.7485C57.5368 27.0889 58.1422 25.4412 58.1148 24.9205C61.9152 24.6739 65.0255 25.1127 65.2469 25.2504C65.4683 25.388 65.605 28.6003 65.743 29.3145L65.7416 29.3131Z" fill="#DBC6BC"/>
<path d="M31.2226 13.767C31.6749 15.9667 31.9578 19.5184 32.1559 19.9423C32.3541 20.3648 33.174 20.8445 33.4842 20.9004C33.7944 20.9563 34.4449 20.3934 34.7565 20.3362C35.0681 20.2803 35.7459 21.0135 35.7459 21.0135C35.7459 21.0135 36.9047 20.7314 37.3858 20.8159C37.8668 20.9004 38.9409 21.0135 39.5627 20.76C40.1845 20.5065 41.0044 18.8997 41.0331 18.0533C41.0618 17.207 39.8743 15.2621 39.8456 14.7265C39.8169 14.1909 39.9863 13.6267 39.9863 13.6267C39.1664 13.1469 38.8835 13.1197 38.0636 13.1469C37.2436 13.1755 36.8473 13.6825 35.8579 13.7384C34.8686 13.7943 31.2212 13.767 31.2212 13.767H31.2226Z" fill="#DBC6BC"/>
<path d="M4.06094 20.5525C6.23651 16.1041 8.27405 14.1538 8.27405 14.1538C10.0369 14.4004 11.6604 14.072 12.5692 13.8239C13.4779 13.5772 15.9008 13.7135 17.4423 13.9888C18.9838 14.2628 19.7832 13.8512 19.7832 13.8512C19.7832 13.8512 21.0227 14.1251 21.4901 14.181C21.9588 14.2355 23.4169 14.2628 23.5823 13.9888C23.7477 13.7149 23.913 13.7149 24.4364 13.6045C25.8918 13.2992 27.175 13.2352 27.9881 13.8512C28.6768 14.3732 28.3461 15.4989 28.7042 16.0482C29.0622 16.5974 29.4203 17.2571 29.4203 17.5037C29.4203 17.7504 28.7042 18.4373 28.5662 19.0138C28.4281 19.5903 28.368 20.1328 27.6027 20.4149C27.0793 20.6071 24.1057 20.1955 23.3623 20.2772C22.6189 20.359 19.5619 20.9914 18.1024 21.2653C16.6429 21.5393 4.33425 21.0732 4.05957 20.5512L4.06094 20.5525Z" fill="#DBC6BC"/>
</g>
<defs>
<clipPath id="clip0_95_9953">
<rect width="257" height="75" fill="white"/>
</clipPath>
</defs>
</svg>
