<svg width="22" height="21" viewBox="0 0 22 21" fill="none" xmlns="http://www.w3.org/2000/svg">
<path d="M19.885 19.2912L15.542 14.9482M15.542 14.9482C16.2849 14.2053 16.8741 13.3234 17.2762 12.3528C17.6782 11.3821 17.8852 10.3418 17.8852 9.29122C17.8852 8.24062 17.6782 7.20031 17.2762 6.22968C16.8742 5.25905 16.2849 4.37711 15.542 3.63422C14.7991 2.89133 13.9171 2.30204 12.9465 1.9C11.9759 1.49795 10.9356 1.29102 9.88497 1.29102C8.83437 1.29102 7.79406 1.49795 6.82343 1.9C5.8528 2.30204 4.97086 2.89133 4.22797 3.63422C2.72764 5.13455 1.88477 7.16944 1.88477 9.29122C1.88477 11.413 2.72764 13.4479 4.22797 14.9482C5.7283 16.4486 7.76319 17.2914 9.88497 17.2914C12.0068 17.2914 14.0416 16.4486 15.542 14.9482Z" stroke="white" stroke-width="2.5" stroke-linecap="round" stroke-linejoin="round"/>
</svg>
