<svg width="71" height="71" viewBox="0 0 71 71" fill="none" xmlns="http://www.w3.org/2000/svg">
<circle cx="35" cy="35" r="35" transform="matrix(1 0 0 -1 0.929688 70.4277)" fill="#F9C275"/>
<path d="M50.18 49.3026L43.3036 42.6071M43.3036 42.6071C44.4798 41.4618 45.4129 40.1022 46.0495 38.6058C46.686 37.1094 47.0137 35.5056 47.0137 33.8859C47.0137 32.2662 46.686 30.6624 46.0495 29.166C45.4129 27.6696 44.4798 26.31 43.3036 25.1647C42.1274 24.0194 40.731 23.1109 39.1941 22.4911C37.6573 21.8713 36.0101 21.5522 34.3467 21.5522C32.6832 21.5522 31.0361 21.8713 29.4992 22.4911C27.9624 23.1109 26.566 24.0194 25.3898 25.1647C23.0142 27.4777 21.6797 30.6148 21.6797 33.8859C21.6797 37.157 23.0142 40.2941 25.3898 42.6071C27.7653 44.9201 30.9872 46.2195 34.3467 46.2195C37.7062 46.2195 40.9281 44.9201 43.3036 42.6071ZM34.3467 29.2609V38.5109M29.5967 33.8859H39.0967" stroke="#17181C" stroke-width="2.5" stroke-linecap="round" stroke-linejoin="round"/>
</svg>
