<svg width="32" height="31" viewBox="0 0 32 31" fill="none" xmlns="http://www.w3.org/2000/svg">
<path d="M30.5003 29.7503L23.6239 23.0549M23.6239 23.0549C24.8001 21.9096 25.7332 20.5499 26.3698 19.0535C27.0063 17.5571 27.334 15.9533 27.334 14.3337C27.334 12.714 27.0063 11.1102 26.3698 9.61377C25.7332 8.11738 24.8001 6.75773 23.6239 5.61244C22.4477 4.46716 21.0513 3.55867 19.5144 2.93884C17.9776 2.31902 16.3304 2 14.667 2C13.0035 2 11.3564 2.31902 9.81954 2.93884C8.28271 3.55867 6.88631 4.46716 5.71008 5.61244C3.33455 7.92545 2 11.0626 2 14.3337C2 17.6047 3.33455 20.7419 5.71008 23.0549C8.0856 25.3679 11.3075 26.6673 14.667 26.6673C18.0265 26.6673 21.2484 25.3679 23.6239 23.0549ZM14.667 9.70865V18.9587M9.91699 14.3337H19.417" stroke="#17181C" stroke-width="2.5" stroke-linecap="round" stroke-linejoin="round"/>
</svg>
