<svg width="33" height="33" viewBox="0 0 33 33" fill="none" xmlns="http://www.w3.org/2000/svg">
<path d="M18.5546 12.29H11.0488C10.393 12.29 9.86133 11.7584 9.86133 11.1025C9.86133 10.4467 10.393 9.91504 11.0488 9.91504H21.3405C21.9963 9.91504 22.528 10.4467 22.528 11.1025V21.3942C22.528 22.05 21.9963 22.5817 21.3405 22.5817C20.6847 22.5817 20.153 22.05 20.153 21.3942V14.0498L11.8845 22.2381C11.4185 22.6995 10.6666 22.6959 10.2051 22.2299C9.74367 21.7639 9.74733 21.012 10.2133 20.5506L18.5546 12.29ZM0.361328 16.2484C0.361328 24.9928 7.45015 32.0817 16.1947 32.0817C24.9391 32.0817 32.028 24.9928 32.028 16.2484C32.028 7.50386 24.9391 0.415039 16.1947 0.415039C7.45015 0.415039 0.361328 7.50386 0.361328 16.2484ZM16.1947 29.7067C8.76183 29.7067 2.73633 23.6812 2.73633 16.2484C2.73633 8.81554 8.76183 2.79004 16.1947 2.79004C23.6275 2.79004 29.653 8.81554 29.653 16.2484C29.653 23.6812 23.6275 29.7067 16.1947 29.7067Z" fill="white"/>
</svg>
