<svg width="390" height="844" viewBox="0 0 390 844" fill="none" xmlns="http://www.w3.org/2000/svg">
<rect y="0.15625" width="389.627" height="843.844" rx="20" fill="#DBC6BC"/>
<g clip-path="url(#clip0_273_1748)">
<path d="M860.328 389.854C834.185 354.779 834.005 316.483 839.527 277.186C842.839 253.601 844.489 230.27 824.373 209.586C799.215 183.715 764.976 178.372 729.68 195.639C723.533 198.648 717.14 201.678 712.051 205.622C667.755 239.917 611.77 253.498 552.047 260.838C537.233 262.66 522.412 264.89 507.957 267.957C452.438 279.731 432.042 307.383 446.743 350.634C460.72 391.743 493.222 424.563 526.915 456.7C551.734 480.373 578.376 502.718 612.821 518.343C675.604 546.827 753.814 524.574 771.016 473.43C778.713 450.553 771.143 429.002 761.371 407.647C754.073 391.707 745.904 375.989 741.707 359.28C735.926 336.269 745.106 315.714 758.424 295.722C766.133 284.139 774.269 272.649 776.604 259.408C778.892 246.452 766.233 237.708 749.995 241.321C734.469 244.775 725.083 253.865 716.868 263.837C702.033 281.842 697.443 302.892 688.077 322.528C673.276 353.551 653.559 382.328 621.103 404.473C600.94 418.229 578.742 430.886 549.832 420.438C524.434 411.26 505.848 380.785 509.553 357.897C514.396 327.943 537.326 308.87 571.897 298.05C625.846 281.166 677.034 261.354 719.402 229.284C735.58 217.035 756.741 208.038 779.385 218.79C803.718 230.342 801.689 250.174 798.303 268.917C795.909 282.177 791.811 295.263 788.199 308.379C781.64 332.186 789.576 353.37 806.485 373.254C818.246 387.087 830.4 400.766 839.187 416.009C856.051 445.272 852.731 473.11 825.743 497.283C779.212 538.965 717.34 559.148 648.437 564.181C600.282 567.696 568.471 544.153 544.237 514.312C538.789 507.602 533.727 500.654 529.29 493.51C511.336 464.614 487.98 438.933 459.289 415.638C426.488 389.002 405.939 357.345 408.66 319.25C411.846 274.667 443.038 243.949 499.748 236.944C578.662 227.198 652.049 207.511 722.808 178.981C775.886 157.58 814.428 164.156 846.791 194.317C852.106 199.267 856.556 204.481 860.321 209.911V159.196C842.726 149.125 822.943 141.847 799.574 139.235C775.786 136.577 753.847 142.611 733.558 151.252C701.894 164.74 671.739 180.427 639.623 193.192C590.031 212.9 538.124 217.959 484.614 202.298C434.483 187.622 421.532 152.429 427.858 115.253C428.37 112.254 429.441 108.754 433.885 108.284C438.807 107.763 440.889 111.35 442.273 114.205C445.22 120.291 448.061 126.475 449.93 132.798C463.414 178.341 495.464 195.148 555.619 189.269C598.825 185.047 635.638 169.262 672.418 152.976C703.364 139.271 733.89 124.895 768.289 116.621C802.893 108.295 832.895 113.338 860.315 126.113V70.8917C831.99 67.9598 804.949 75.3619 778.214 88.7673C726.739 114.571 670.841 134.135 615.715 154.524C559.737 175.229 494.938 154.426 475.481 111.64C456.608 70.1484 491.426 22.5508 550.131 10.0849C592.459 1.09805 634.048 5.63018 671.26 21.7249C719.655 42.6614 770.93 50.4456 825.078 51.3489C836.866 51.545 848.614 52.1128 860.321 53.0162V18.4574C822.876 18.3439 785.398 20.868 748.006 18.4987C726.221 17.1205 707.382 8.85119 688.569 0.845127C629.186 -24.4274 567.826 -29.868 505.016 -7.8836C435.94 16.2946 400.298 57.9974 397.571 117.235C395.814 155.345 402.127 193.249 399.772 231.348C397.936 261.138 389.98 290.215 384.998 319.632C381.08 342.757 382.364 365.511 398.216 385.967C442.533 443.14 486.949 500.334 536.873 554.683C560.329 580.214 591.993 597.408 635.266 596.437C646.282 596.19 657.371 595.157 667.356 591.781C719.894 574.009 772.633 555.927 817.235 527.563C834.138 516.816 849.106 504.943 860.321 491.44V389.859L860.328 389.854Z" fill="#000602" fill-opacity="0.05"/>
<path d="M373.97 766.63C358.903 747.975 337.762 733.935 314.666 721.748C260.81 693.327 223.691 655.511 209.189 606.024C192.698 549.734 156.145 505.925 89.0511 478.371C45.0338 460.299 10.0834 433.839 -19.4921 402.847C-38.3244 383.114 -56.0524 362.667 -78.7163 345.256C-102.904 326.679 -131.268 320.438 -164.489 326.204C-184.659 329.704 -204.282 335.191 -225.177 336.11C-270.285 338.081 -307.903 323.974 -342.667 303.512C-356.258 295.517 -369.575 287.072 -386.305 283.175C-390.703 282.147 -396.61 280.207 -399.29 284.398C-401.659 288.099 -396.004 290.159 -392.904 292.161C-370.294 306.749 -347.071 320.779 -324.886 335.738C-279.911 366.069 -228.15 378.37 -169.206 372.361C-116.547 366.993 -72.9489 378.953 -44.2182 414.549C-10.3055 456.557 19.423 500.515 45.9851 545.578C66.2143 579.9 64.8839 617.344 65.2564 654.081C65.5624 684.237 73.2323 712.121 96.4417 736.991C111.535 753.163 112.128 770.77 101.331 788.697C90.2752 807.058 79.1993 825.409 67.9638 843.702C66.3207 846.376 65.3495 850.955 60.3471 849.979C55.6772 849.065 55.95 844.698 55.7903 841.338C55.0919 826.58 59.9213 812.457 66.1278 798.871C78.8268 771.059 74.4164 746.912 46.7168 725.413C27.971 710.867 21.0129 692.356 24.166 671.833C26.1085 659.201 27.3457 646.426 30.765 634.027C43.0648 589.413 35.4813 547.87 0.324677 510.514C-30.2886 477.984 -62.6979 446.507 -91.9474 413.161C-113.653 388.41 -144.094 380.77 -181.678 389.731C-231.363 401.578 -281.94 407.493 -332.922 395.373C-362.83 388.26 -391.381 377.642 -421.429 371.009C-443.148 366.214 -459.586 367.669 -470.109 374.658V451.859C-455.814 481.793 -433.077 508.335 -406.422 533.334C-375.316 562.504 -345.075 592.262 -340.505 631.911C-337.266 659.976 -320.422 682.373 -296.801 702.659C-283.383 714.186 -269.181 725.32 -259.276 739.025C-247.808 754.897 -251.267 766.548 -270.491 776.933C-287.102 785.91 -305.555 792.538 -325.046 795.733C-374.977 803.92 -419.134 820.365 -457.457 846.536C-461.309 849.169 -465.559 851.698 -470.103 853.685V883.516C-445.164 879.474 -420.837 873.558 -396.51 867.648C-320.682 849.225 -244.382 832.971 -163.777 835.263C-122.235 836.445 -81.4503 841.281 -47.3647 860.989C-11.6426 881.637 17.5405 906.161 31.6896 938.195H70.7378C60.2739 925.151 46.0582 914.058 32.122 903.053C0.643951 878.189 -19.0797 850.748 -15.8733 814.378C-14.1039 794.288 -39.6216 782.823 -65.8377 790.339C-75.3437 793.064 -84.2575 797.209 -93.0583 801.215C-113.733 810.635 -135.406 814.109 -158.536 808.013C-184.825 801.086 -209.877 803.223 -234.663 812.38C-261.757 822.394 -290.734 826.622 -320.556 827.638C-323.383 827.737 -327.554 828.315 -328.319 825.868C-329.05 823.514 -324.813 822.869 -322.478 822.415C-281.135 814.341 -243.783 799.32 -206.757 783.448C-187.765 775.307 -166.405 775.07 -145.358 777.223C-118.157 780.01 -93.6969 774.683 -70.1217 764.545C-52.0611 756.781 -33.8142 748.734 -11.7157 751.16C22.5961 754.934 39.2863 774.275 30.4589 800.224C26.8601 810.795 22.6293 821.202 21.1393 832.186C18.3986 852.39 26.5475 868.939 46.5239 882.168C65.915 895.016 86.3105 907.09 101.537 923.303C106.041 928.094 110.092 933.028 113.445 938.18H144.657C133.933 927.737 123.044 917.388 114.037 905.908C88.9514 873.935 87.7274 842.82 117.882 812.297C123.975 806.129 129.776 799.78 135.543 793.42C159.564 766.935 159.571 753.091 134.133 727.653C117.057 710.578 101.571 692.939 97.5859 671.043C94.6589 654.958 92.7365 638.724 91.4592 622.511C88.0733 579.445 80.6229 537.366 47.9475 500.603C44.6414 496.881 37.5169 492.618 41.7078 488.225C46.178 483.538 53.9011 487.512 60.1808 488.38C60.8394 488.473 61.438 488.782 62.07 488.984C117.369 506.952 157.349 535.791 172.403 582.403C180.505 607.49 181.077 634.275 197.747 657.421C236.051 710.609 297.397 745.131 361.583 777.119C365.814 779.225 371.761 781.115 376.039 777.331C380.103 773.733 376.518 769.769 373.97 766.615V766.63ZM-120.858 747.165C-193.227 752.889 -249.816 723.844 -271.463 665.948C-287.794 622.279 -315.26 584.664 -352.486 550.286C-371.518 532.705 -389.173 513.915 -392.891 490.021C-398.938 451.178 -375.03 429.235 -321.533 423.196C-295.969 420.31 -270.325 419.149 -234.936 418.947C-216.902 418.71 -189.328 419.562 -162.374 424.687C-117.838 433.153 -88.8143 456.66 -73.5875 488.251C-48.9944 539.245 -29.1643 591.658 -15.4941 645.135C-0.247406 704.801 -56.1389 742.049 -120.858 747.17V747.165Z" fill="#000602" fill-opacity="0.05"/>
<path d="M860.33 514.581C802.449 570.464 727.726 607.815 635.307 624.911C573.981 636.257 551.803 628.209 519.473 586.243C501.087 562.375 480.126 539.957 458.027 518.107C428.219 488.632 397.985 459.266 380.184 423.882C349.018 361.945 352.783 297.612 360.66 233.316C365.835 191.045 372.161 149.069 367.245 106.365C359.828 41.9394 399.641 -14.1391 471.065 -36.8152C549.102 -61.5922 627.112 -63.5383 700.798 -25.6088C739.407 -5.73562 781.069 2.33239 827.355 -2.17908C838.278 -3.24243 849.294 -3.707 860.343 -3.9909V-94.1895H818.488C822.645 -92.7493 826.57 -91.051 830.169 -89.0844C857.323 -74.2388 858.101 -53.6584 831.845 -38.0644C816.525 -28.9692 798.937 -24.7519 777.278 -24.7261C756.822 -25.2114 735.648 -30.0532 716.883 -40.1808C693.088 -53.0184 692.695 -70.0319 715.353 -84.1186C722.031 -88.2688 729.728 -91.6292 738.003 -94.1895H637.602C610.694 -82.152 581.418 -73.6297 550.659 -67.3013C508.57 -58.6448 465.784 -51.8415 427.308 -34.6215C360.041 -4.51225 328.669 39.0488 339.931 95.6694C348.3 137.733 343.756 178.249 329.9 218.883C320.826 245.488 310.762 272.247 316.15 300.281C320.407 322.425 330.598 343.873 330.419 366.523C330.139 401.185 345.067 431.759 369.161 460.376C389.749 484.823 406.579 510.792 417.063 539.023C422.471 553.579 426.536 568.471 435.496 582.119C471.398 636.778 561.921 666.82 644.9 647.443C728.87 627.838 802.722 595.793 860.343 546.125V514.581H860.33Z" fill="#000602" fill-opacity="0.05"/>
<path d="M89.0042 407.239C108.941 414.084 129.343 420.129 149.253 427.015C218.901 451.11 251.636 495.368 258.062 552.02C263.803 602.652 293.372 638.755 353.873 659.474C373.623 666.242 392.083 675.213 408.62 686.161C458.492 719.192 456.543 739.055 436.872 771.497C413.989 809.241 413.829 846.448 440.597 883.644C453.044 900.931 463.348 918.951 468.47 938.174H507.684C504.006 919.194 494.393 901.473 481.056 884.501C469.814 870.192 458.598 855.863 451.627 839.82C440.511 814.237 449.232 791.009 464.04 767.987C482.612 739.112 478.654 719.316 450.981 695.236C431.185 678.005 406.678 665.287 381.573 653.445C337.702 632.751 309.896 603.473 302.299 564.016C291.915 510.095 273.562 459.684 219.14 420.903C193.11 402.351 174.997 378.255 154.062 356.188C142.434 343.929 127.859 334.137 106.267 337.559C85.7314 340.811 69.0012 349.679 56.2423 362.594C47.222 371.721 48.2997 380.986 57.6659 389.71C66.1607 397.618 77.0769 403.136 89.0042 407.234V407.239ZM92.909 369.485C97.366 363.89 104.757 364.086 111.848 365.63C131.292 369.867 146.1 379.102 157.342 391.929C159.697 394.619 161.36 397.664 158.699 400.797C156.138 403.812 151.993 404.137 145.288 403.967C127.467 402.201 109.267 396.972 96.122 384.14C91.7649 379.887 88.7182 374.761 92.9157 369.491L92.909 369.485Z" fill="#000602" fill-opacity="0.05"/>
<path d="M200.175 933.617C202.576 935.145 205.004 936.657 207.419 938.185H279.435C256.086 927.639 236.03 914.115 221.076 896.431C214.584 888.75 218.282 882.261 230.382 882.112C232.671 882.798 237.434 883.629 241.372 885.498C264.535 896.487 282.595 911.354 295.68 929.802C297.529 932.409 299.498 935.403 297.769 938.185H359.348C348.531 904.261 326.213 874.441 295.707 847.775C270.295 825.568 237.553 815.931 199.224 817.423C148.967 819.379 126.25 846.923 145.654 882.886C157.109 904.117 177.817 919.375 200.182 933.617H200.175Z" fill="#000602" fill-opacity="0.05"/>
<path d="M106.207 556.949C123.516 586.387 136.567 616.682 132.084 649.558C128.445 676.225 139.281 698.054 163.302 716.745C175.635 726.341 183.784 737.661 185.268 751.691C186.512 763.502 195.186 772.266 207.16 779.256C224.283 789.249 244.146 794.432 264.555 798.081C310.621 806.324 342.997 826.12 356.348 862.176C365.927 888.042 381.886 911.074 403.851 931.861C406.013 933.905 408.075 936.011 409.978 938.174H436.646C433.52 933.797 429.987 929.559 426.435 925.362C410.111 906.078 398.263 885.42 392.622 862.801C384.766 831.318 362.993 808.095 326.885 792.418C297.416 779.622 269.777 764.658 244.884 746.829C199.736 714.495 166.888 676.896 161.845 627.775C159.916 608.966 161.253 589.856 153.045 571.676C145.614 555.215 134.498 540.839 112.713 533.649C103.606 530.644 97.998 533.509 99.6943 541.438C100.832 546.744 103.313 552.015 106.207 556.939V556.949Z" fill="#000602" fill-opacity="0.05"/>
<path d="M332.446 -94.1895C265.133 -65.5049 225.273 -23.4563 217.962 37.5415C213.599 73.9637 197.401 108.564 158.399 132.298C95.8022 170.387 23.287 184.371 -55.1087 178.626C-93.0925 175.844 -126.772 150.117 -132.812 123.482C-138.394 98.8594 -124.637 81.0871 -83.3604 64.5381C-45.9952 49.5532 -15.4751 28.7044 12.2245 4.64491C32.8661 -13.2823 53.6076 -31.3798 82.0389 -42.3436C114.748 -54.9592 163.022 -36.5984 163.388 -9.69477C164.033 37.9493 140.698 78.2171 91.139 107.511C63.4195 123.889 31.7619 118.005 0.90918 113.628C-23.0918 110.221 -47.2392 106.267 -71.2335 113.147C-86.6997 117.582 -89.3872 125.902 -78.9566 135.829C-64.8674 149.244 -45.9154 156.352 -24.1362 156.507C107.064 157.426 185.646 85.5882 189.584 2.05882C191.567 -40.0569 214.044 -71.5237 260.723 -92.3673C262.093 -92.9816 263.483 -93.5752 264.86 -94.1791H82.0721C78.4001 -89.7502 74.6018 -85.4143 69.9453 -81.6306C37.8619 -55.5683 11.1402 -26.2437 -17.2579 2.07946C-39.4029 24.1619 -63.1112 46.2961 -100.19 52.2632C-177.276 64.6723 -245.44 50.4359 -301.538 6.09023C-325.126 -12.5596 -353.411 -24.7726 -386.28 -30.3681C-414.778 -35.2409 -443.894 -38.7509 -470.104 -48.2488V-21.3864C-435.472 -16.8853 -401.373 -10.6188 -370.434 2.84341C-305.715 31.0014 -250.808 70.1852 -190.034 102.87C-173.085 111.986 -166.346 127.585 -164.75 143.752C-164.417 147.123 -164.703 150.814 -168.94 152.755C-173.431 154.814 -177.834 153.136 -181.706 151.165C-192.416 145.709 -199.627 137.708 -207.15 129.908C-273.253 61.3429 -352.62 12.238 -470.104 17.2399V44.1074C-451.298 43.0751 -432.459 42.6208 -413.587 43.2764C-390.357 44.0816 -366.895 45.0262 -346.207 54.5912C-314.07 69.4419 -304.059 94.3015 -298.771 120.72C-288.2 173.577 -257.421 200.941 -195.356 210.428C-159.155 215.962 -122.136 213.799 -85.5622 216.003C-80.7793 216.225 -75.9898 216.354 -71.2202 216.689C60.8185 225.924 157.721 182.895 223.397 95.6539C240.846 72.4719 252.254 46.6058 268.013 22.5979C298.673 -24.1067 338.253 -64.5242 392.495 -94.1843H332.453L332.446 -94.1895ZM144.09 -81.4241C153.623 -89.7141 166.102 -92.8577 180.231 -93.2758C188.054 -92.8835 197.068 -93.028 199.742 -85.6207C202.503 -77.9605 194.114 -74.7757 187.343 -71.7198C176.732 -66.9451 165.171 -64.5035 152.778 -65.0971C147.529 -65.3501 142.926 -66.6405 140.691 -70.7597C138.423 -74.9253 140.691 -78.4612 144.097 -81.4241H144.09Z" fill="#000602" fill-opacity="0.05"/>
<path d="M558.341 668.729C489.145 656.78 441.542 624.327 406.845 578.19C384.859 548.964 368.635 517.724 352.942 486.298C333.491 447.342 312.178 409.376 268.247 382.436C242.417 366.595 221.675 347.294 203.515 326.027C177.252 295.268 139.701 284.159 93.4216 292.16C67.9172 296.569 44.3951 306.288 18.0593 308.534C-19.093 311.703 -52.5734 303.016 -84.7698 290.034C-117.026 277.021 -149.502 272.912 -184.346 284.738C-203.045 291.082 -223.6 291.975 -244.122 291.014C-286.151 289.048 -321.507 274.135 -355.852 257.008C-388.201 240.877 -421.482 226.45 -461.408 225.211C-464.289 225.355 -467.209 225.376 -470.109 225.546V244.573C-463.537 247.841 -456.452 250.411 -449.035 252.352C-399.437 265.319 -350.989 280.489 -304.484 299.093C-262.655 315.822 -220.002 319.131 -174.168 310.191C-121.849 299.986 -76.3016 310.227 -41.145 343.449C-29.9693 354.005 -20.1508 365.345 -12.6804 377.646C9.15866 413.604 43.4838 440.218 88.592 458.042C155.752 484.579 198.439 526.127 218.549 581.948C236.47 631.708 269.318 671.997 329.068 698.446C354.1 709.524 375.007 726.181 397.984 740.108C401.769 742.4 406.924 745.326 411.534 742.136C415.765 739.21 412.698 735.142 410.796 731.823C408.96 728.612 406.718 725.505 404.237 722.563C387.513 702.762 364.623 688.107 338.906 675.889C321.611 667.676 304.568 659.283 289.401 648.675C254.284 624.11 241.878 591.379 233.775 557.032C220.943 502.615 185.108 463.323 114.835 445.432C88.2661 438.67 62.775 429.353 41.242 414.915C21.1059 401.411 6.32483 385.064 9.07217 363.575C13.0302 332.614 43.1046 319.25 76.1259 309.793C107.438 300.827 130.181 306.423 152.573 327.266C176.773 349.788 197.501 374.75 227.522 393.178C284.418 428.103 319.495 473.43 330.824 528.595C341.088 578.546 375.081 613.533 431.019 637.614C451.288 646.337 470.299 656.821 488.287 668.306C533.967 697.476 540.679 730.021 508.782 768.627C503.135 775.467 496.901 782.043 491.706 789.078C482.074 802.122 474.783 815.791 478.488 831.359C479.726 836.557 482.506 841.42 489.923 842.783C497.467 844.166 502.416 840.398 506.647 836.294C512.674 830.451 516.811 823.74 520.024 816.741C536.342 781.227 557.782 747.727 583.14 715.532C605.245 687.472 599.478 675.832 558.321 668.729H558.341Z" fill="#000602" fill-opacity="0.05"/>
<path d="M438.029 -94.1902C390.18 -75.9636 353.859 -45.7305 325.528 -7.07324C296.252 32.8745 274.845 75.7645 247.624 116.492C191.886 199.877 106.412 243.572 -16.8853 238.544C-61.2885 236.732 -105.785 233.666 -150.135 234.471C-208.86 235.54 -263.009 225.598 -315.161 205.059C-364.195 185.754 -415.503 171.522 -470.104 165.344V194.322C-464.19 194.973 -458.296 195.726 -452.455 196.64C-401.28 204.662 -355.36 223.311 -308.656 240.222C-261.818 257.178 -213.27 266.155 -161.523 260.415C-127.604 256.652 -93.1789 253.56 -60.5234 262.175C-2.02435 277.609 54.6321 275.586 113.623 262.506C170.12 249.983 207.246 263.667 239.589 302.025C249.401 313.665 257.776 326.043 266.71 338.127C275.317 349.782 283.626 361.613 296.312 371.034C300.057 373.816 304.387 377.161 310.082 375.246C316.148 373.207 315.683 368.272 315.45 364.107C314.785 352.353 311.146 340.951 305.465 330.178C282.615 286.864 275.816 243.758 302.072 199.412C318.889 171.017 324.49 140.84 320.18 109.373C315.064 72.0428 319.135 35.6619 344.32 2.17167C377.581 -42.0656 430.798 -63.2551 491.739 -75.9791C520.995 -82.0907 551.322 -85.193 579.534 -94.1953H438.036L438.029 -94.1902ZM264.707 232.432C258.74 239.602 251.276 246.158 238.671 243.789C226.131 241.435 221.708 233.377 221.142 224.478C219.639 200.893 230.309 180.22 248.336 161.668C253.272 156.589 259.785 152.454 268.798 154.622C277.147 156.63 280.167 162.401 281.71 168.467C282.761 172.601 283.014 176.86 283.44 179.807C282.335 199.371 277.659 216.864 264.707 232.438V232.432Z" fill="#000602" fill-opacity="0.05"/>
<path d="M-29.8571 -94.1895C-53.8979 -69.9906 -83.1475 -49.3431 -110.508 -27.4981C-136.997 -6.35503 -164.058 -3.59859 -195.749 -19.2133C-247.862 -44.8987 -304.618 -59.9146 -364.487 -69.8254C-393.457 -74.6208 -421.33 -81.6255 -445.111 -94.1895H-470.104V-80.2008C-450.979 -69.7686 -428.887 -63.3473 -405.059 -60.534C-337.287 -52.5228 -278.315 -32.9335 -228.198 4.26294C-203.119 22.8715 -171.082 33.7527 -135.127 35.0432C-105.399 35.7142 -82.6219 25.9944 -69.0915 5.69278C-54.9091 -15.5845 -35.6311 -33.1297 -12.9539 -49.1108C6.0047 -62.4697 23.3935 -77.0004 36.0924 -94.1895H-29.8637H-29.8571Z" fill="#000602" fill-opacity="0.05"/>
<path d="M36.7197 95.5184C21.1869 94.8835 -1.17764 93.9285 -22.1519 87.28C-36.188 82.8305 -38.7291 75.1754 -27.6865 67.3139C8.52121 41.5407 42.6534 13.8472 83.644 -7.63647C94.2276 -13.1803 105.476 -17.8208 118.448 -19.2042C133.369 -20.7941 147.598 -12.7777 147.305 -1.42673C146.64 24.3775 139.309 49.0151 119.812 70.4678C101.266 90.8727 73.8121 96.1585 36.7197 95.5235V95.5184Z" fill="#000602" fill-opacity="0.05"/>
</g>
<defs>
<clipPath id="clip0_273_1748">
<rect x="0.234375" width="389.765" height="843.999" rx="20" fill="white"/>
</clipPath>
</defs>
</svg>
