<svg width="52" height="51" viewBox="0 0 52 51" fill="none" xmlns="http://www.w3.org/2000/svg">
<circle cx="25.9961" cy="25.3213" r="25.2734" fill="#283C28"/>
<path d="M38.3105 19.8379V31.4926C38.3105 32.4348 37.9505 33.3414 37.3041 34.027C36.6577 34.7125 35.7738 35.1252 34.8331 35.1804L34.6164 35.1866H17.3776C16.4354 35.1866 15.5287 34.8266 14.8432 34.1802C14.1577 33.5338 13.745 32.6499 13.6898 31.7093L13.6836 31.4926V19.8379L25.3136 27.5917L25.4565 27.6729C25.6248 27.7552 25.8097 27.7979 25.997 27.7979C26.1844 27.7979 26.3693 27.7552 26.5376 27.6729L26.6804 27.5917L38.3105 19.8379Z" fill="#DBC6BC"/>
<path d="M34.6154 15.4849C35.9452 15.4849 37.1113 16.1867 37.7614 17.242L25.996 25.0856L14.2305 17.242C14.5393 16.7406 14.9635 16.3203 15.4677 16.0162C15.9719 15.712 16.5415 15.5328 17.1291 15.4935L17.3766 15.4849H34.6154Z" fill="#DBC6BC"/>
</svg>
