<svg width="52" height="52" viewBox="0 0 52 52" fill="none" xmlns="http://www.w3.org/2000/svg">
<circle cx="25.9961" cy="25.9604" r="25.2734" fill="#283C28"/>
<path d="M26.1016 25.375C25.2728 25.375 24.4779 25.0458 23.8919 24.4597C23.3058 23.8737 22.9766 23.0788 22.9766 22.25C22.9766 21.4212 23.3058 20.6263 23.8919 20.0403C24.4779 19.4542 25.2728 19.125 26.1016 19.125C26.9304 19.125 27.7252 19.4542 28.3113 20.0403C28.8973 20.6263 29.2266 21.4212 29.2266 22.25C29.2266 22.6604 29.1457 23.0667 28.9887 23.4459C28.8316 23.825 28.6015 24.1695 28.3113 24.4597C28.0211 24.7499 27.6766 24.9801 27.2974 25.1371C26.9183 25.2942 26.5119 25.375 26.1016 25.375ZM26.1016 13.5C23.7809 13.5 21.5553 14.4219 19.9144 16.0628C18.2734 17.7038 17.3516 19.9294 17.3516 22.25C17.3516 28.8125 26.1016 38.5 26.1016 38.5C26.1016 38.5 34.8516 28.8125 34.8516 22.25C34.8516 19.9294 33.9297 17.7038 32.2887 16.0628C30.6478 14.4219 28.4222 13.5 26.1016 13.5Z" fill="#DBC6BC"/>
</svg>
