<svg width="52" height="51" viewBox="0 0 52 51" fill="none" xmlns="http://www.w3.org/2000/svg">
<circle cx="25.9961" cy="25.5513" r="25.2734" fill="#283C28"/>
<path d="M35.9961 30.4624V34.3913C35.9962 34.6726 35.8896 34.9435 35.6979 35.1493C35.5061 35.3551 35.2434 35.4805 34.9628 35.5002C34.4772 35.5335 34.0805 35.5513 33.7739 35.5513C23.955 35.5513 15.9961 27.5924 15.9961 17.7735C15.9961 17.4668 16.0128 17.0702 16.0472 16.5846C16.0669 16.304 16.1923 16.0413 16.3981 15.8495C16.6039 15.6577 16.8748 15.5511 17.1561 15.5513H21.085C21.2228 15.5511 21.3558 15.6022 21.458 15.6946C21.5603 15.787 21.6245 15.9141 21.6383 16.0513C21.6639 16.3068 21.6872 16.5102 21.7094 16.6646C21.9302 18.2056 22.3828 19.7044 23.0516 21.1102C23.1572 21.3324 23.0883 21.5979 22.8883 21.7402L20.4905 23.4535C21.9566 26.8696 24.6789 29.5919 28.095 31.0579L29.8061 28.6646C29.876 28.5668 29.9781 28.4967 30.0944 28.4664C30.2108 28.4362 30.334 28.4477 30.4428 28.499C31.8483 29.1667 33.3467 29.6181 34.8872 29.8379C35.0416 29.8602 35.245 29.8835 35.4983 29.909C35.6352 29.9231 35.7621 29.9875 35.8543 30.0897C35.9464 30.1919 35.9963 30.3247 35.9961 30.4624Z" fill="#DBC6BC"/>
</svg>
