<svg width="80" height="79" viewBox="0 0 80 79" fill="none" xmlns="http://www.w3.org/2000/svg">
<rect x="0.78125" y="0.522217" width="78.4609" height="78.4609" rx="39.2305" fill="#DBC6BC"/>
<path d="M42.658 35.316H34.2449C33.5098 35.316 32.9139 34.72 32.9139 33.9849C32.9139 33.2498 33.5098 32.6539 34.2449 32.6539H45.7806C46.5156 32.6539 47.1116 33.2498 47.1116 33.9849V45.5205C47.1116 46.2556 46.5156 46.8516 45.7806 46.8516C45.0455 46.8516 44.4495 46.2556 44.4495 45.5205V37.2884L35.1816 46.4665C34.6593 46.9836 33.8165 46.9795 33.2993 46.4572C32.782 45.9349 32.7861 45.0921 33.3084 44.575L42.658 35.316ZM22.2656 39.7527C22.2656 49.5541 30.2113 57.4999 40.0127 57.4999C49.8141 57.4999 57.7599 49.5541 57.7599 39.7527C57.7599 29.9513 49.8141 22.0056 40.0127 22.0056C30.2113 22.0056 22.2656 29.9513 22.2656 39.7527ZM40.0127 54.8378C31.6815 54.8378 24.9277 48.0839 24.9277 39.7527C24.9277 31.4215 31.6815 24.6677 40.0127 24.6677C48.344 24.6677 55.0978 31.4215 55.0978 39.7527C55.0978 48.0839 48.344 54.8378 40.0127 54.8378Z" fill="#283C28"/>
</svg>
