<svg width="27" height="27" viewBox="0 0 27 27" fill="none" xmlns="http://www.w3.org/2000/svg">
<path d="M13.4123 0.225586C10.8343 0.225586 8.31428 0.990038 6.17079 2.42227C4.0273 3.8545 2.35666 5.89019 1.37012 8.27191C0.383577 10.6536 0.125454 13.2744 0.628387 15.8028C1.13132 18.3312 2.37272 20.6537 4.19561 22.4766C6.0185 24.2995 8.341 25.5409 10.8694 26.0438C13.3978 26.5468 16.0186 26.2887 18.4003 25.3021C20.782 24.3156 22.8177 22.6449 24.25 20.5014C25.6822 18.358 26.4466 15.8379 26.4466 13.2599C26.443 9.80413 25.0686 6.49092 22.6249 4.04729C20.1813 1.60367 16.8681 0.229235 13.4123 0.225586ZM19.1349 10.9614L12.1164 17.9799C12.0233 18.0731 11.9127 18.1471 11.791 18.1975C11.6692 18.248 11.5388 18.2739 11.407 18.2739C11.2752 18.2739 11.1448 18.248 11.0231 18.1975C10.9013 18.1471 10.7908 18.0731 10.6976 17.9799L7.68971 14.972C7.50157 14.7838 7.39588 14.5286 7.39588 14.2626C7.39588 13.9965 7.50157 13.7413 7.68971 13.5532C7.87784 13.3651 8.13301 13.2594 8.39908 13.2594C8.66514 13.2594 8.92031 13.3651 9.10845 13.5532L11.407 15.853L17.7161 9.54264C17.8093 9.44949 17.9199 9.37559 18.0416 9.32518C18.1633 9.27476 18.2938 9.24881 18.4255 9.24881C18.5572 9.24881 18.6877 9.27476 18.8094 9.32518C18.9311 9.37559 19.0417 9.44949 19.1349 9.54264C19.228 9.6358 19.3019 9.74639 19.3523 9.8681C19.4028 9.98982 19.4287 10.1203 19.4287 10.252C19.4287 10.3838 19.4028 10.5142 19.3523 10.6359C19.3019 10.7576 19.228 10.8682 19.1349 10.9614Z" fill="#283C28"/>
</svg>
