<svg width="24" height="24" viewBox="0 0 24 24" fill="none" xmlns="http://www.w3.org/2000/svg">
<path d="M6.65802 0.222656C6.87591 0.222656 7.08487 0.309211 7.23894 0.463281C7.39301 0.61735 7.47956 0.826312 7.47956 1.0442V2.58048H16.3018V1.05476C16.3018 0.836875 16.3883 0.627913 16.5424 0.473843C16.6965 0.319774 16.9054 0.233219 17.1233 0.233219C17.3412 0.233219 17.5502 0.319774 17.7042 0.473843C17.8583 0.627913 17.9448 0.836875 17.9448 1.05476V2.58048H21.1254C21.7477 2.58048 22.3446 2.82762 22.7847 3.26757C23.2249 3.70751 23.4723 4.30425 23.4727 4.92658V21.3492C23.4723 21.9715 23.2249 22.5683 22.7847 23.0082C22.3446 23.4482 21.7477 23.6953 21.1254 23.6953H2.34727C1.72494 23.6953 1.12808 23.4482 0.687913 23.0082C0.247749 22.5683 0.000311165 21.9715 0 21.3492L0 4.92658C0.000311165 4.30425 0.247749 3.70751 0.687913 3.26757C1.12808 2.82762 1.72494 2.58048 2.34727 2.58048H5.83648V1.04303C5.83679 0.825342 5.92348 0.616681 6.07752 0.462866C6.23155 0.30905 6.44034 0.222656 6.65802 0.222656ZM1.64309 9.30892V21.3492C1.64309 21.4417 1.6613 21.5333 1.69669 21.6187C1.73208 21.7041 1.78395 21.7818 1.84934 21.8472C1.91472 21.9125 1.99235 21.9644 2.07779 21.9998C2.16322 22.0352 2.25479 22.0534 2.34727 22.0534H21.1254C21.2179 22.0534 21.3094 22.0352 21.3949 21.9998C21.4803 21.9644 21.5579 21.9125 21.6233 21.8472C21.6887 21.7818 21.7406 21.7041 21.776 21.6187C21.8114 21.5333 21.8296 21.4417 21.8296 21.3492V9.32535L1.64309 9.30892ZM7.82461 17.38V19.3353H5.86816V17.38H7.82461ZM12.714 17.38V19.3353H10.7587V17.38H12.714ZM17.6045 17.38V19.3353H15.648V17.38H17.6045ZM7.82461 12.7125V14.6677H5.86816V12.7125H7.82461ZM12.714 12.7125V14.6677H10.7587V12.7125H12.714ZM17.6045 12.7125V14.6677H15.648V12.7125H17.6045ZM5.83648 4.2224H2.34727C2.25479 4.2224 2.16322 4.24061 2.07779 4.276C1.99235 4.31139 1.91472 4.36326 1.84934 4.42865C1.78395 4.49404 1.73208 4.57166 1.69669 4.6571C1.6613 4.74253 1.64309 4.8341 1.64309 4.92658V7.66701L21.8296 7.68344V4.92658C21.8296 4.8341 21.8114 4.74253 21.776 4.6571C21.7406 4.57166 21.6887 4.49404 21.6233 4.42865C21.5579 4.36326 21.4803 4.31139 21.3949 4.276C21.3094 4.24061 21.2179 4.2224 21.1254 4.2224H17.9448V5.3127C17.9448 5.53059 17.8583 5.73955 17.7042 5.89362C17.5502 6.04769 17.3412 6.13425 17.1233 6.13425C16.9054 6.13425 16.6965 6.04769 16.5424 5.89362C16.3883 5.73955 16.3018 5.53059 16.3018 5.3127V4.2224H7.47956V5.30214C7.47956 5.52003 7.39301 5.72899 7.23894 5.88306C7.08487 6.03713 6.87591 6.12368 6.65802 6.12368C6.44013 6.12368 6.23117 6.03713 6.0771 5.88306C5.92303 5.72899 5.83648 5.52003 5.83648 5.30214V4.2224Z" fill="#283C28"/>
</svg>
