<svg width="21" height="22" viewBox="0 0 21 22" fill="none" xmlns="http://www.w3.org/2000/svg">
<path d="M19.7789 21.9453C17.3484 21.9453 14.9423 21.4203 12.5607 20.3703C10.1792 19.3203 8.01579 17.8231 6.07057 15.8786C4.12535 13.9342 2.62813 11.7759 1.57891 9.40365C0.529684 7.03142 0.00468403 4.62031 0.00390625 2.17031V0.945312H6.88724L7.96641 6.80781L4.64141 10.162C5.06918 10.9203 5.54557 11.6398 6.07057 12.3203C6.59557 13.0009 7.15946 13.6328 7.76224 14.2161C8.32613 14.78 8.94368 15.3198 9.61491 15.8355C10.2861 16.3511 11.0102 16.8322 11.7872 17.2786L15.1706 13.8953L21.0039 15.0911V21.9453H19.7789Z" fill="#DCC5BD"/>
</svg>
