<svg width="22" height="22" viewBox="0 0 22 22" fill="none" xmlns="http://www.w3.org/2000/svg">
<path d="M20.6773 21.9453C18.2468 21.9453 15.8407 21.4203 13.4592 20.3703C11.0776 19.3203 8.91423 17.8231 6.96901 15.8786C5.02379 13.9342 3.52657 11.7759 2.47734 9.40365C1.42812 7.03142 0.903122 4.62031 0.902344 2.17031V0.945312H7.78568L8.86484 6.80781L5.53984 10.162C5.96762 10.9203 6.44401 11.6398 6.96901 12.3203C7.49401 13.0009 8.0579 13.6328 8.66068 14.2161C9.22457 14.78 9.84212 15.3198 10.5133 15.8355C11.1846 16.3511 11.9087 16.8322 12.6857 17.2786L16.069 13.8953L21.9023 15.0911V21.9453H20.6773Z" fill="white"/>
</svg>
