<svg width="34" height="25" viewBox="0 0 34 25" fill="none" xmlns="http://www.w3.org/2000/svg">
<path d="M33.4547 21.2201V3.67012C33.4547 2.05162 32.1482 0.745117 30.5297 0.745117H3.21016C1.59166 0.745117 0.285156 2.05162 0.285156 3.67012V21.2201C0.285156 22.8386 1.59166 24.1451 3.21016 24.1451H30.5297C32.1482 24.1451 33.4547 22.8386 33.4547 21.2201ZM30.9002 3.45562C31.5437 4.09912 31.1927 4.76212 30.8417 5.09362L22.9247 12.3476L30.5297 20.2646C30.7637 20.5376 30.9197 20.9666 30.6467 21.2591C30.3932 21.5711 29.8082 21.5516 29.5547 21.3566L21.0332 14.0831L16.8602 17.8856L12.7067 14.0831L4.18516 21.3566C3.93166 21.5516 3.34666 21.5711 3.09316 21.2591C2.82016 20.9666 2.97616 20.5376 3.21016 20.2646L10.8152 12.3476L2.89816 5.09362C2.54716 4.76212 2.19616 4.09912 2.83966 3.45562C3.48316 2.81212 4.14616 3.12412 4.69216 3.59212L16.8602 13.4201L29.0477 3.59212C29.5937 3.12412 30.2567 2.81212 30.9002 3.45562Z" fill="white"/>
</svg>
