<svg width="34" height="25" viewBox="0 0 34 25" fill="none" xmlns="http://www.w3.org/2000/svg">
<path d="M33.5562 21.2201V3.67012C33.5562 2.05162 32.2497 0.745117 30.6312 0.745117H3.31172C1.69322 0.745117 0.386719 2.05162 0.386719 3.67012V21.2201C0.386719 22.8386 1.69322 24.1451 3.31172 24.1451H30.6312C32.2497 24.1451 33.5562 22.8386 33.5562 21.2201ZM31.0017 3.45562C31.6452 4.09912 31.2942 4.76212 30.9432 5.09362L23.0262 12.3476L30.6312 20.2646C30.8652 20.5376 31.0212 20.9666 30.7482 21.2591C30.4947 21.5711 29.9097 21.5516 29.6562 21.3566L21.1347 14.0831L16.9617 17.8856L12.8082 14.0831L4.28672 21.3566C4.03322 21.5516 3.44822 21.5711 3.19472 21.2591C2.92172 20.9666 3.07772 20.5376 3.31172 20.2646L10.9167 12.3476L2.99972 5.09362C2.64872 4.76212 2.29772 4.09912 2.94122 3.45562C3.58472 2.81212 4.24772 3.12412 4.79372 3.59212L16.9617 13.4201L29.1492 3.59212C29.6952 3.12412 30.3582 2.81212 31.0017 3.45562Z" fill="#DCC5BD"/>
</svg>
