<svg width="31" height="31" viewBox="0 0 31 31" fill="none" xmlns="http://www.w3.org/2000/svg">
<path d="M27.5566 0.0410156H2.55664C1.8936 0.0410156 1.25771 0.304408 0.788874 0.773249C0.320033 1.24209 0.0566406 1.87797 0.0566406 2.54102V27.541C0.0566406 28.2041 0.320033 28.8399 0.788874 29.3088C1.25771 29.7776 1.8936 30.041 2.55664 30.041H27.5566C28.2197 30.041 28.8556 29.7776 29.3244 29.3088C29.7932 28.8399 30.0566 28.2041 30.0566 27.541V2.54102C30.0566 1.87797 29.7932 1.24209 29.3244 0.773249C28.8556 0.304408 28.2197 0.0410156 27.5566 0.0410156ZM23.8066 16.291H16.3066V23.791C16.3066 24.1225 16.1749 24.4405 15.9405 24.6749C15.7061 24.9093 15.3882 25.041 15.0566 25.041C14.7251 25.041 14.4072 24.9093 14.1728 24.6749C13.9383 24.4405 13.8066 24.1225 13.8066 23.791V16.291H6.30664C5.97512 16.291 5.65718 16.1593 5.42276 15.9249C5.18834 15.6905 5.05664 15.3725 5.05664 15.041C5.05664 14.7095 5.18834 14.3916 5.42276 14.1571C5.65718 13.9227 5.97512 13.791 6.30664 13.791H13.8066V6.29102C13.8066 5.9595 13.9383 5.64155 14.1728 5.40713C14.4072 5.17271 14.7251 5.04102 15.0566 5.04102C15.3882 5.04102 15.7061 5.17271 15.9405 5.40713C16.1749 5.64155 16.3066 5.9595 16.3066 6.29102V13.791H23.8066C24.1382 13.791 24.4561 13.9227 24.6905 14.1571C24.9249 14.3916 25.0566 14.7095 25.0566 15.041C25.0566 15.3725 24.9249 15.6905 24.6905 15.9249C24.4561 16.1593 24.1382 16.291 23.8066 16.291Z" fill="#DBC6BC"/>
</svg>
