<svg width="33" height="27" viewBox="0 0 33 27" fill="none" xmlns="http://www.w3.org/2000/svg">
<path d="M11.7504 15.0691V18.3176C11.7504 18.7778 11.9063 19.1638 12.2182 19.4756C12.53 19.7875 12.9155 19.9429 13.3746 19.9418C13.8337 19.9407 14.2197 19.7848 14.5327 19.474C14.8456 19.1633 15.001 18.7778 14.9988 18.3176V15.0691H18.2473C18.7075 15.0691 19.0935 14.9132 19.4053 14.6014C19.7172 14.2895 19.8726 13.904 19.8715 13.4449C19.8704 12.9858 19.7145 12.6003 19.4037 12.2885C19.0929 11.9766 18.7075 11.8207 18.2473 11.8207H14.9988V8.57227C14.9988 8.11207 14.8429 7.72659 14.5311 7.41582C14.2192 7.10506 13.8337 6.94913 13.3746 6.94805C12.9155 6.94696 12.53 7.10289 12.2182 7.41582C11.9063 7.72876 11.7504 8.11424 11.7504 8.57227V11.8207H8.50195C8.04176 11.8207 7.65628 11.9766 7.34551 12.2885C7.03474 12.6003 6.87882 12.9858 6.87773 13.4449C6.87665 13.904 7.03258 14.2901 7.34551 14.603C7.65844 14.9159 8.04392 15.0713 8.50195 15.0691H11.7504ZM3.6293 26.4387C2.73598 26.4387 1.97151 26.1209 1.3359 25.4853C0.700289 24.8496 0.381942 24.0846 0.380859 23.1902V3.69961C0.380859 2.80629 0.699206 2.04182 1.3359 1.40621C1.97259 0.770601 2.73706 0.452255 3.6293 0.451172H23.1199C24.0132 0.451172 24.7782 0.769518 25.4149 1.40621C26.0516 2.04291 26.3694 2.80737 26.3684 3.69961V11.0086L31.4846 5.8923C31.7554 5.6216 32.0531 5.55393 32.378 5.68928C32.7028 5.82463 32.8652 6.0818 32.8652 6.46078V20.4291C32.8652 20.808 32.7028 21.0652 32.378 21.2006C32.0531 21.3359 31.7554 21.2682 31.4846 20.9975L26.3684 15.8813V23.1902C26.3684 24.0836 26.0506 24.8486 25.4149 25.4853C24.7793 26.122 24.0143 26.4398 23.1199 26.4387H3.6293Z" fill="#DCC5BD"/>
</svg>
