<svg width="33" height="27" viewBox="0 0 33 27" fill="none" xmlns="http://www.w3.org/2000/svg">
<path d="M11.6488 15.0691V18.3176C11.6488 18.7778 11.8048 19.1638 12.1166 19.4756C12.4285 19.7875 12.8139 19.9429 13.273 19.9418C13.7322 19.9407 14.1182 19.7848 14.4311 19.474C14.744 19.1633 14.8994 18.7778 14.8973 18.3176V15.0691H18.1457C18.6059 15.0691 18.9919 14.9132 19.3038 14.6014C19.6156 14.2895 19.771 13.904 19.7699 13.4449C19.7688 12.9858 19.6129 12.6003 19.3021 12.2885C18.9914 11.9766 18.6059 11.8207 18.1457 11.8207H14.8973V8.57227C14.8973 8.11207 14.7413 7.72659 14.4295 7.41582C14.1176 7.10506 13.7322 6.94913 13.273 6.94805C12.8139 6.94696 12.4285 7.10289 12.1166 7.41582C11.8048 7.72876 11.6488 8.11424 11.6488 8.57227V11.8207H8.40039C7.9402 11.8207 7.55471 11.9766 7.24395 12.2885C6.93318 12.6003 6.77725 12.9858 6.77617 13.4449C6.77509 13.904 6.93101 14.2901 7.24395 14.603C7.55688 14.9159 7.94236 15.0713 8.40039 15.0691H11.6488ZM3.52773 26.4387C2.63441 26.4387 1.86995 26.1209 1.23434 25.4853C0.598727 24.8496 0.28038 24.0846 0.279297 23.1902V3.69961C0.279297 2.80629 0.597644 2.04182 1.23434 1.40621C1.87103 0.770601 2.6355 0.452255 3.52773 0.451172H23.0184C23.9117 0.451172 24.6767 0.769518 25.3134 1.40621C25.9501 2.04291 26.2679 2.80737 26.2668 3.69961V11.0086L31.3831 5.8923C31.6538 5.6216 31.9516 5.55393 32.2764 5.68928C32.6012 5.82463 32.7637 6.0818 32.7637 6.46078V20.4291C32.7637 20.808 32.6012 21.0652 32.2764 21.2006C31.9516 21.3359 31.6538 21.2682 31.3831 20.9975L26.2668 15.8813V23.1902C26.2668 24.0836 25.949 24.8486 25.3134 25.4853C24.6778 26.122 23.9128 26.4398 23.0184 26.4387H3.52773Z" fill="white"/>
</svg>
