<svg width="41" height="41" viewBox="0 0 41 41" fill="none" xmlns="http://www.w3.org/2000/svg">
<path fill-rule="evenodd" clip-rule="evenodd" d="M0.246094 20.4873C0.246094 9.44161 9.2004 0.487305 20.2461 0.487305C31.2918 0.487305 40.2461 9.44161 40.2461 20.4873C40.2461 31.533 31.2918 40.4873 20.2461 40.4873C9.2004 40.4873 0.246094 31.533 0.246094 20.4873ZM20.2461 10.4873C25.7461 10.4873 30.2461 14.9873 30.2461 20.4873C30.2461 25.4873 26.6211 29.7373 21.6211 30.4873V23.3623H23.9961L24.4961 20.4873H21.7461V18.6123C21.7461 17.8623 22.1211 17.1123 23.3711 17.1123H24.6211V14.6123C24.6211 14.6123 23.4961 14.3623 22.3711 14.3623C20.1211 14.3623 18.6211 15.7373 18.6211 18.2373V20.4873H16.1211V23.3623H18.6211V30.3623C13.8711 29.6123 10.2461 25.4873 10.2461 20.4873C10.2461 14.9873 14.7461 10.4873 20.2461 10.4873Z" fill="#283C28"/>
</svg>
