<svg width="182" height="183" viewBox="0 0 182 183" fill="none" xmlns="http://www.w3.org/2000/svg">
<g clip-path="url(#clip0_105_679)">
<path d="M16.7858 138.707L15.2876 136.323L14.0324 136.582C12.7123 136.854 12.4026 137.301 12.8844 138.372L12.7366 138.465L11.1514 135.945L11.2992 135.852C11.9187 136.438 12.682 136.548 13.9818 136.29L20.9849 134.888L21.57 135.822L16.5348 142.373C16.1218 142.915 16.0732 143.167 16.4396 144.031L16.2918 144.125L13.755 140.089L13.9028 139.995C14.5952 140.979 14.9394 141.057 15.3484 140.533L16.7858 138.709V138.707ZM16.9498 138.5L19.268 135.541L19.2356 135.489L15.5448 136.266L16.9498 138.502V138.5Z" fill="#283C28"/>
<path d="M20.7809 149.66C21.4875 150.386 21.7669 150.453 22.0908 150.159L27.3446 145.399C27.6686 145.105 27.6402 144.81 26.9883 144.033L27.1098 143.924L30.1852 147.331L30.0657 147.44C29.3429 146.695 29.0878 146.655 28.7538 146.957L23.0646 152.113L23.4412 152.531C24.6985 153.923 25.6096 153.891 28.2152 153.081L28.3408 153.237L25.7553 155.429L20.6533 149.774L20.7829 149.656L20.7809 149.66Z" fill="#283C28"/>
<path d="M28.4006 157.74C29.1963 158.407 29.4919 158.454 29.7834 158.127L34.519 152.848C34.8126 152.521 34.7437 152.225 33.9966 151.5L34.106 151.379L37.5721 154.501L37.4628 154.621C36.6671 153.956 36.3634 153.917 36.0719 154.244L31.3363 159.523C31.0427 159.85 31.1217 160.138 31.8668 160.861L31.7493 160.99L28.2832 157.868L28.4006 157.738V157.74Z" fill="#283C28"/>
<path d="M34.3309 162.969C35.1711 163.535 35.4586 163.543 35.7157 163.19L39.8844 157.448C40.1415 157.095 40.0524 156.812 39.2567 156.183L39.3519 156.052L45.5168 160.546L43.7392 163.123L43.5631 163.026C43.9862 160.763 44.0895 159.769 42.8059 158.833L41.9373 158.2L39.5766 161.451L39.9107 161.694C40.7084 162.277 41.4372 162.25 42.4313 161.457L42.5629 161.552L40.4452 164.47L40.3136 164.375C40.7691 163.174 40.5768 162.459 39.7771 161.877L39.443 161.634L37.4123 164.43C37.141 164.805 37.1653 165.024 38.0744 165.732L37.9853 165.854L34.2256 163.113L34.3288 162.971L34.3309 162.969Z" fill="#283C28"/>
<path d="M43.3486 169.32C44.2536 169.776 44.5391 169.75 44.7517 169.366L48.1753 163.149C48.3859 162.766 48.2624 162.498 47.3958 161.974L47.4748 161.832L54.16 165.529L52.7003 168.257L52.514 168.181C52.6517 165.883 52.6902 164.959 51.3114 164.198L50.3052 163.64L48.4324 167.039L48.7928 167.238C49.6573 167.717 50.4064 167.601 51.2932 166.69L51.4349 166.769L49.6897 169.939L49.548 169.86C49.8496 168.61 49.5541 167.904 48.6895 167.425L48.3292 167.224L46.3066 170.898L47.2359 171.412C48.8657 172.315 49.6776 171.903 51.6799 170.365L51.8439 170.485L50.2121 173.317L43.2656 169.474L43.3507 169.32H43.3486Z" fill="#283C28"/>
<path d="M57.8838 176.598C58.8576 176.878 59.1309 176.809 59.2706 176.381L61.4734 169.632C61.6131 169.204 61.439 168.975 60.4874 168.624L60.538 168.47L64.8261 169.876L64.7755 170.032C64.0163 169.823 63.6174 169.837 63.4697 170.288L62.4594 173.382L65.5469 174.395L66.5572 171.3C66.705 170.848 66.379 170.596 65.6542 170.318L65.7048 170.164L69.9929 171.57L69.9423 171.724C68.9563 171.44 68.6931 171.525 68.5514 171.954L66.3486 178.702C66.2089 179.131 66.377 179.344 67.3387 179.699L67.284 179.865L62.9959 178.459L63.0506 178.293C63.7997 178.497 64.2066 178.499 64.3524 178.047L65.4679 174.63L62.3804 173.617L61.2649 177.034C61.1171 177.487 61.4349 177.722 62.1719 178.004L62.1172 178.171L57.8291 176.765L57.8838 176.598Z" fill="#283C28"/>
<path d="M75.6084 178.187L72.8427 177.686L72.1868 178.79C71.4964 179.948 71.6158 180.48 72.7294 180.847L72.699 181.02L69.7734 180.49L69.8038 180.318C70.6521 180.255 71.2494 179.766 71.9357 178.629L75.6306 172.503L76.7118 172.7L78.1371 180.847C78.2586 181.519 78.4104 181.724 79.2931 182.036L79.2628 182.209L74.5778 181.36L74.6082 181.188C75.7987 181.34 76.0902 181.137 75.9789 180.482L75.6043 178.189L75.6084 178.187ZM75.5658 177.925L74.9524 174.214L74.8916 174.202L72.9723 177.454L75.5658 177.923V177.925Z" fill="#283C28"/>
<path d="M84.173 175.594H84.1609L83.9402 180.447C83.8815 181.724 84.3188 182.32 85.5862 182.503L85.5781 182.677L81.9824 182.513L81.9905 182.336C83.1709 182.253 83.5697 181.707 83.6284 180.431L83.8532 175.503C83.8876 174.727 83.4422 174.08 82.3732 173.956L82.3813 173.794L85.5518 173.938L89.9715 180.169H89.9837L90.1598 176.292C90.2165 175.04 89.7448 174.429 88.4895 174.234L88.4976 174.072L92.1176 174.238L92.1095 174.401C90.9292 174.51 90.5283 175.056 90.4716 176.306L90.1679 183L89.431 182.966L84.1751 175.592L84.173 175.594Z" fill="#283C28"/>
<path d="M94.8058 182.683C95.81 182.554 96.0307 182.369 95.9923 181.933L95.3444 174.861C95.3039 174.425 95.0528 174.273 94.0405 174.328L94.0264 174.165L98.2456 173.776C101.445 173.482 103.143 175.048 103.37 177.517C103.587 179.887 102.54 182.146 99.266 182.448L94.8241 182.858L94.8079 182.683H94.8058ZM98.8591 182.259C100.789 182.081 101.434 181.054 101.143 177.872C100.851 174.693 99.8329 173.843 98.027 174.009L97.3791 174.068L98.1363 182.324L98.8591 182.257V182.259Z" fill="#283C28"/>
<path d="M106.045 177.414C105.393 174.506 107.14 172.303 109.628 171.743C110.531 171.54 111.392 171.615 112.037 171.803L112.469 171.039L112.614 171.006L113.361 174.342L113.167 174.387C111.882 172.71 110.887 171.704 109.474 172.021C108.134 172.323 107.632 174.027 108.211 176.619C108.81 179.295 110.272 180.441 111.833 180.09C113.088 179.808 113.819 179.066 114.135 177.558L114.392 177.617C114.135 178.932 113.376 180.283 111.254 180.762C108.583 181.363 106.65 180.104 106.047 177.416L106.045 177.414Z" fill="#283C28"/>
<path d="M121.056 176.852C121.215 177.286 121.626 177.282 122.378 177.047L122.438 177.211L118.193 178.771L118.134 178.607C119.071 178.224 119.237 177.988 119.088 177.576L116.65 170.911C116.5 170.499 116.217 170.416 115.253 170.73L115.196 170.578L119.43 169.022C121.894 168.117 123.054 168.744 123.44 169.803C123.805 170.801 123.451 171.759 121.685 172.715L121.697 172.749C123.434 172.15 124.206 172.735 124.714 173.721L125.196 174.784C125.639 175.634 125.844 175.72 126.795 175.409L126.852 175.561C126.405 175.793 125.998 175.955 125.623 176.093C123.981 176.696 123.566 176.328 123.115 175.348L122.671 174.391C122.127 173.23 121.643 172.889 120.341 173.368L119.849 173.548L121.058 176.852H121.056ZM120.446 173.114C121.819 172.611 121.985 172.081 121.469 170.671C121.025 169.46 120.345 168.91 118.972 169.415L118.409 169.622L119.778 173.36L120.446 173.114Z" fill="#283C28"/>
<path d="M131.834 169.397L129.342 170.702L129.498 171.976C129.66 173.317 130.081 173.664 131.186 173.268L131.267 173.425L128.629 174.804L128.548 174.648C129.182 174.078 129.352 173.323 129.202 172.004L128.376 164.892L129.35 164.383L135.46 169.947C135.964 170.403 136.211 170.472 137.102 170.176L137.183 170.332L132.962 172.54L132.881 172.384C133.915 171.771 134.021 171.434 133.533 170.984L131.834 169.401V169.397ZM131.642 169.216L128.886 166.66L128.829 166.688L129.303 170.44L131.642 169.218V169.216Z" fill="#283C28"/>
<path d="M139.358 168.75C140.17 168.141 140.273 167.873 140.024 167.512L135.995 161.672C135.746 161.311 135.452 161.303 134.598 161.849L134.505 161.715L140.773 157.37L142.611 159.903L142.462 160.037C140.469 158.89 139.568 158.464 138.263 159.369L137.378 159.982L139.66 163.287L140 163.052C140.812 162.49 141.028 161.792 140.609 160.589L140.743 160.495L142.79 163.462L142.656 163.555C141.676 162.727 140.939 162.675 140.127 163.237L139.789 163.472L141.751 166.315C142.014 166.696 142.229 166.745 143.197 166.12L143.282 166.244L139.459 168.892L139.36 168.748L139.358 168.75Z" fill="#283C28"/>
<path d="M149.681 161.104C150.485 160.351 150.611 160.004 150.319 159.676L145.199 153.935L145.059 154.061C144.342 154.704 144.468 155.934 144.96 157.912L144.794 158.028L142.86 155.747L148.821 150.407L150.858 152.596L150.726 152.748C148.819 152.038 147.612 151.776 146.895 152.418L146.766 152.535L151.886 158.276C152.178 158.602 152.526 158.525 153.372 157.801L153.49 157.931L149.803 161.236L149.685 161.104H149.681Z" fill="#283C28"/>
<path d="M157.004 154.252C157.638 153.46 157.67 153.172 157.338 152.886L151.977 148.242C151.647 147.956 151.358 148.02 150.669 148.763L150.546 148.656L155.539 142.865L157.899 144.859L157.788 145.028C155.573 144.417 154.678 144.189 153.65 145.383L152.898 146.255L155.83 148.794L156.099 148.481C156.745 147.732 156.788 146.975 156.081 145.916L156.188 145.792L158.922 148.158L158.816 148.282C157.66 147.728 156.907 147.87 156.263 148.619L155.994 148.931L159.161 151.675L159.855 150.869C161.072 149.457 160.841 148.578 159.754 146.294L159.904 146.158L162.331 148.343L157.142 154.361L157.01 154.248L157.004 154.252Z" fill="#283C28"/>
<path d="M164.495 145.269C165.019 144.401 165.013 144.112 164.647 143.873L158.725 139.977C158.361 139.736 158.083 139.839 157.496 140.667L157.36 140.578L159.685 137.029C161.446 134.338 163.728 133.981 165.795 135.343C167.779 136.647 168.89 138.877 167.089 141.629L164.641 145.366L164.495 145.269ZM166.688 141.83C167.751 140.206 167.35 139.06 164.687 137.309C162.025 135.558 160.727 135.828 159.733 137.345L159.377 137.889L166.291 142.436L166.688 141.83Z" fill="#283C28"/>
<path d="M14.2843 118.755L14.1912 118.42C16.7969 116.062 18.127 113.656 17.5824 111.71C17.0904 109.953 15.6712 109.313 14.3349 109.689C12.7902 110.123 12.2597 111.606 12.1504 114.277C12.0431 116.789 11.7576 119.309 9.06488 120.066C6.28712 120.847 3.85557 119.321 3.00523 116.285C2.65903 115.052 2.72179 113.747 2.96677 112.775L1.68317 112.053L1.6123 111.801L6.41467 110.45L6.5078 110.785C3.97705 113.167 3.04168 114.897 3.48102 116.468C3.8333 117.724 4.9934 118.728 6.49566 118.306C8.02019 117.876 8.47572 116.371 8.55063 113.664C8.61947 111.499 8.93126 108.997 11.6463 108.232C14.1932 107.516 17.0702 108.376 18.0724 111.955C18.4064 113.148 18.4611 114.871 18.1554 116.109L19.5746 116.998L19.6455 117.247L14.2803 118.757L14.2843 118.755Z" fill="#283C28"/>
<path d="M15.2011 102.63C15.0412 100.874 14.7375 100.479 13.9803 100.519L1.70107 101.183C0.943864 101.223 0.662444 101.654 0.690789 103.415L0.409368 103.431L0.0307666 96.4206C-0.248629 91.2342 1.3994 89.5562 3.97672 89.4161C6.4022 89.2843 8.42276 90.8954 8.69608 95.9965L8.75885 97.147L13.7839 96.8751C14.5857 96.8325 14.8529 96.5565 14.8084 94.5112L15.0675 94.497L15.5048 102.615L15.2011 102.632V102.63ZM8.34178 96.2522C8.20208 93.6468 6.88406 92.9995 4.17716 93.1476C1.7942 93.2755 0.277769 94.1419 0.409368 96.5951L0.464033 97.5934L8.39037 97.1653L8.34178 96.2542V96.2522Z" fill="#283C28"/>
<path d="M14.6299 85.4919C14.8607 83.7448 14.6521 83.2903 13.903 83.1625L1.77968 81.0948C1.03057 80.967 0.662094 81.3221 0.303738 83.0468L0.0263672 83.0001L1.36058 75.1374L1.63795 75.1841C1.40108 76.9737 1.61973 77.3633 2.38908 77.4952L15.5166 79.7333L15.6806 78.7695C16.2273 75.5554 15.2008 74.344 11.3014 71.6514L11.3804 71.3126L17.1424 72.4935L14.9275 85.5426L14.6278 85.4919H14.6299Z" fill="#283C28"/>
<path d="M17.9265 68.3338C18.5541 66.6883 18.4569 66.1972 17.7584 65.901L6.44491 61.0717C5.74642 60.7734 5.30506 61.0352 4.55798 62.628L4.29883 62.5185L9.48992 50.2993L14.4441 52.3426L14.349 52.6794C10.3646 52.8458 8.76714 52.9432 7.69814 55.4633L6.91664 57.3037L13.1018 59.9435L13.3812 59.2841C14.0514 57.7034 13.7213 56.4291 11.9964 55.0555L12.1077 54.7957L17.8738 57.257L17.7625 57.5167C15.5577 57.2144 14.3915 57.8495 13.7213 59.4302L13.442 60.0896L20.1272 62.9425L20.85 61.2422C22.1154 58.2614 21.2671 56.9324 18.2625 53.7365L18.4387 53.4342L23.6035 55.7575L18.2079 68.4576L17.9285 68.3379L17.9265 68.3338Z" fill="#283C28"/>
<path d="M17.9911 41.8176L17.977 41.8338L24.6521 46.9695C26.4074 48.3188 27.687 48.2904 29.2054 46.6631L29.4464 46.8477L25.6421 51.8129L25.4012 51.6283C26.454 49.863 26.0754 48.749 24.3201 47.3997L17.5417 42.1849C16.4747 41.3651 15.1122 41.357 13.8731 42.7611L13.6504 42.5887L17.0052 38.2099L30.2461 38.0922L30.2582 38.076L24.9254 33.9731C23.2045 32.6502 21.8683 32.7171 20.3458 34.312L20.121 34.1395L23.9516 29.1398L24.1763 29.3123C23.1579 31.106 23.5365 32.218 25.2575 33.543L34.4613 40.6245L33.6819 41.6411L17.9891 41.8176H17.9911Z" fill="#283C28"/>
<path d="M38.1272 35.8764C39.4776 34.7482 39.6315 34.2734 39.1679 33.6708L31.6525 23.9169C31.1889 23.3143 30.6767 23.3264 29.2473 24.3511L29.0752 24.1279L34.8939 19.6254C39.3055 16.2124 43.2495 16.9206 45.8734 20.3274C48.392 23.5963 48.9548 27.8838 44.4399 31.3779L38.3115 36.1199L38.1252 35.8784L38.1272 35.8764ZM43.6706 31.4773C46.3309 29.4178 46.3228 27.3096 42.9438 22.9227C39.5647 18.5358 37.283 18.2415 34.7927 20.1671L33.8998 20.857L42.6745 32.2463L43.6706 31.4753V31.4773Z" fill="#283C28"/>
<path d="M50.4896 17.9656C48.55 13.526 50.2163 9.37848 54.2695 7.59897C58.4402 5.76872 62.4712 7.29663 64.4189 11.7566C66.3767 16.2348 64.7003 20.364 60.6288 22.1516C56.4784 23.9738 52.4474 22.4459 50.4896 17.9656ZM60.8009 13.392C58.7217 8.63381 56.6586 7.00038 54.3546 8.0129C52.0506 9.02542 52.0283 11.574 54.1076 16.3302C56.1949 21.1067 58.2378 22.7502 60.562 21.7296C62.866 20.7191 62.8883 18.1706 60.8009 13.392Z" fill="#283C28"/>
<path d="M70.7781 12.6879L69.292 4.12109C69.1624 3.37236 68.6826 3.14713 66.9617 3.38047L66.9131 3.10249L74.6066 1.76328L74.6552 2.04127C73.3412 2.33549 72.746 2.70478 72.8816 3.49816L74.4426 12.4931C74.9629 15.4921 76.6373 16.391 79.0526 15.971C80.0568 15.7965 81.0266 15.2953 81.5388 14.5669C82.1563 13.6862 82.4297 12.4708 82.13 10.7359L81.0347 4.41937C80.6622 2.27664 79.656 1.41631 77.4552 1.55632L77.4066 1.27833L83.6465 0.190735L83.6951 0.468721C81.7332 1.09774 81.2392 2.17722 81.6117 4.31791L82.707 10.6345C83.282 13.9541 82.0045 16.2287 78.0504 16.9186C73.9466 17.6328 71.428 16.4397 70.7781 12.692V12.6879Z" fill="#283C28"/>
<path d="M94.4952 14.0921C94.4426 14.8956 95.0965 15.1776 96.455 15.3339L96.4348 15.6382L88.6016 15.1127L88.6218 14.8083C90.3792 14.8611 90.8084 14.6054 90.859 13.8486L91.679 1.55429C91.7296 0.795405 91.3388 0.464663 89.5896 0.282044L89.6078 0L97.4187 0.523506C101.962 0.827871 103.363 2.64188 103.233 4.59387C103.11 6.43832 101.875 7.70447 98.4007 7.97231L98.3966 8.03724C101.573 8.31523 102.387 9.78632 102.498 11.7099L102.515 13.737C102.622 15.3988 102.885 15.6788 104.612 15.8594L104.594 16.1414C103.721 16.1922 102.962 16.1617 102.27 16.1171C99.2409 15.9142 98.842 15.0396 98.8157 13.1648L98.7853 11.3325C98.7388 9.10658 98.2103 8.22189 95.8092 8.06159L94.9001 8.00072L94.4932 14.0941L94.4952 14.0921ZM96.1574 7.73491C98.6882 7.90535 99.3239 7.18502 99.498 4.5817C99.6458 2.34766 98.9554 0.994256 96.4226 0.825842L95.384 0.756852L94.9244 7.65172L96.1574 7.73491Z" fill="#283C28"/>
<path d="M113.429 18.408C115.141 18.97 115.646 18.8544 115.907 18.1401L120.148 6.57227C120.41 5.85802 120.108 5.4238 118.44 4.73999L118.537 4.47418L126.129 7.27028L126.032 7.53609C124.319 6.97403 123.809 7.10998 123.546 7.82422L119.304 19.3921C119.043 20.1063 119.353 20.5203 121.019 21.2041L120.914 21.4902L113.319 18.6921L113.425 18.4059L113.429 18.408Z" fill="#283C28"/>
<path d="M133.886 14.3072L133.867 14.295L129.352 21.411C128.166 23.2819 128.308 24.5561 130.057 25.9298L129.895 26.1875L124.625 22.8294L124.787 22.5737C126.635 23.4685 127.708 22.9917 128.895 21.1209L133.479 13.8953C134.199 12.759 134.086 11.3974 132.582 10.2855L132.734 10.0481L137.382 13.0106L138.668 26.218L138.686 26.2301L142.292 20.5446C143.456 18.7103 143.27 17.3812 141.551 16.0035L141.703 15.7641L147.009 19.1466L146.857 19.384C144.986 18.5257 143.913 19.0025 142.749 20.8348L136.524 30.6475L135.444 29.9596L133.884 14.3112L133.886 14.3072Z" fill="#283C28"/>
<path d="M149.977 35.5193L150.197 35.7872C148.772 39.0033 148.533 41.7446 149.819 43.3009C150.981 44.7071 152.536 44.7132 153.605 43.8265C154.84 42.7997 154.724 41.2312 153.74 38.7456C152.819 36.406 152.06 33.9874 154.214 32.1977C156.435 30.3533 159.278 30.7591 161.284 33.1859C162.1 34.174 162.572 35.3915 162.742 36.3797L164.208 36.5177L164.374 36.7185L160.533 39.9083L160.312 39.6404C161.659 36.4324 161.811 34.4703 160.774 33.2163C159.944 32.2119 158.476 31.7655 157.273 32.7638C156.055 33.7763 156.247 35.3387 157.277 37.8426C158.091 39.8474 158.82 42.264 156.65 44.0659C154.613 45.7581 151.635 46.1416 149.268 43.2806C148.481 42.3269 147.731 40.7747 147.509 39.5187L145.851 39.2853L145.685 39.0845L149.977 35.5193Z" fill="#283C28"/>
<path d="M156.771 52.7747C157.684 54.4548 158.213 54.818 158.887 54.469L170.743 48.3472L170.593 48.0571C169.828 46.5697 167.71 46.2451 164.179 46.2106L164.058 45.8819L168.725 43.6194L175.08 55.9847L170.522 58.4602L170.326 58.1701C172.347 55.2685 173.314 53.351 172.549 51.8637L172.409 51.5938L160.553 57.7156C159.879 58.0646 159.857 58.6855 160.701 60.4264L160.432 60.5664L156.5 52.9147L156.769 52.7747H156.771Z" fill="#283C28"/>
<path d="M170.1 63.951C174.795 62.7863 178.591 65.136 179.656 69.4397C180.75 73.8713 178.565 77.5926 173.85 78.7614C169.114 79.9362 165.336 77.5825 164.269 73.2564C163.18 68.8472 165.367 65.1259 170.102 63.949L170.1 63.951ZM172.852 74.9122C177.883 73.6643 179.838 71.903 179.233 69.4539C178.628 67.0068 176.125 66.5523 171.094 67.8022C166.041 69.0562 164.081 70.7951 164.69 73.2646C165.296 75.7116 167.798 76.1662 172.849 74.9122H172.852Z" fill="#283C28"/>
<path d="M179.014 86.9082V86.8859L170.599 86.8493C168.386 86.8392 167.386 87.6407 167.159 89.8564H166.856L166.882 83.5947H167.186C167.417 85.64 168.388 86.2954 170.601 86.3055L179.145 86.3421C180.49 86.3481 181.577 85.5264 181.716 83.6576H181.998L181.974 89.1787L171.508 97.3073V97.3296L178.23 97.358C180.398 97.3661 181.421 96.5017 181.67 94.3083H181.951L181.925 100.613H181.644C181.37 98.5674 180.396 97.912 178.228 97.9018L166.625 97.8531L166.631 96.5707L179.012 86.9082H179.014Z" fill="#283C28"/>
<path d="M166.52 103.869C166.137 105.588 166.308 106.061 167.04 106.254L178.937 109.374C179.672 109.567 180.069 109.244 180.577 107.556L180.85 107.627L177.493 120.475L172.294 119.179L172.341 118.832C176.258 118.083 177.823 117.754 178.516 115.104L179.022 113.171L172.517 111.464L172.337 112.158C171.904 113.82 172.416 115.033 174.323 116.139L174.252 116.413L168.188 114.822L168.259 114.549C170.484 114.526 171.545 113.727 171.98 112.065L172.163 111.371L165.133 109.527L164.668 111.314C163.85 114.447 164.882 115.64 168.32 118.361L168.19 118.688L162.742 117.146L166.231 103.794L166.524 103.871L166.52 103.869Z" fill="#283C28"/>
<path d="M40.8788 70.2047C38.1638 74.9568 36.2971 84.7796 36.3275 91.7658C36.3275 91.7658 48.3942 92.405 49.0846 92.2954C51.3865 91.9302 51.9109 91.1895 55.3446 91.2748C56.5432 91.3052 59.0274 91.6644 60.0458 91.8145C61.0642 91.9647 61.4833 89.5338 61.5723 88.4239C61.6614 87.314 61.3334 78.3697 60.884 77.0792C60.4345 75.7887 60.5843 74.3481 61.0034 73.6582C60.7645 72.3981 57.9179 72.1871 56.9603 72.2175C55.4317 72.2662 46.9587 71.9476 46.1489 72.0674C45.6994 72.5767 45.3107 72.6071 44.4118 72.4874C43.5128 72.3677 43.3043 71.347 42.7941 70.8073C42.2353 70.2128 40.8768 70.2067 40.8768 70.2067L40.8788 70.2047Z" fill="#283C28"/>
<path d="M37.7243 104.011C36.8862 102.93 36.2666 95.0854 36.2666 95.0854C36.2525 94.6654 41.6379 94.8642 43.7941 94.984C45.681 95.0895 50.4652 95.1219 52.4189 95.1057C52.8583 95.0651 52.4189 95.9457 52.6983 96.4672C59.0597 96.0005 64.1495 93.2998 66.66 93.2998C66.9576 93.2998 67.2067 93.3059 67.399 93.3181C68.3242 93.3749 70.8692 93.8477 72.2621 93.9288C76.0137 94.1439 83.5088 94.8602 83.523 95.0895C83.6019 96.4104 82.5957 100.32 82.045 101.412C81.8871 101.727 80.6217 102.459 72.8614 103.413C72.8614 103.413 63.0522 103.934 53.8139 104.093C45.6568 104.233 37.9531 104.013 37.7223 104.013L37.7243 104.011Z" fill="#283C28"/>
<path d="M89.9938 93.7259C87.4773 93.9653 86.0337 94.2636 85.9608 94.846C85.9203 95.1666 86.4609 96.9725 86.72 98.2873C86.963 99.523 85.1085 103.506 85.3737 103.831C85.9406 104.527 88.524 104.89 90.6336 104.89C93.0631 104.89 94.5877 99.7685 94.6666 99.2876C94.7456 98.8068 93.7049 94.9068 93.1502 93.8842C92.9113 93.4439 89.9959 93.7239 89.9959 93.7239L89.9938 93.7259Z" fill="#283C28"/>
<path d="M78.3441 90.735C77.107 90.735 76.7224 89.7814 75.7384 89.8037C69.6281 89.9538 67.6562 88.9089 67.3019 88.1419C66.8605 87.1821 66.8403 85.6765 66.245 84.1608C65.7591 82.923 64.6699 81.7421 64.4775 80.3197C65.0161 77.3775 64.7914 74.1411 65.6154 73.0271C66.1073 72.3798 68.4903 72.2175 73.076 70.2919C74.5297 70.1905 76.279 70.1296 78.3886 70.1296C80.4982 70.1296 82.6828 70.1905 84.2721 70.2412C87.062 70.3345 89.6414 70.4684 91.7895 70.7748C94.5247 71.1664 100.68 72.0856 105.275 72.0856L105.006 70.8256C110.217 71.0954 112.793 72.2358 113.392 72.6355C113.991 73.0352 115.927 76.3569 115.309 77.3572C113.386 80.4658 112.388 84.8202 111.276 85.8003C110.507 86.48 107.46 87.8091 103.5 88.5416C98.829 89.4039 94.8892 89.2173 91.911 89.4729C91.2368 89.5298 88.0926 90.3292 87.6289 90.3739C86.8839 90.4449 85.7177 90.4834 84.2458 90.5037C83.7052 90.5118 82.8549 89.8301 82.2394 89.8341C81.8527 89.8361 81.1542 90.6011 80.7453 90.6397C80.1156 90.7005 79.324 90.735 78.3461 90.735H78.3441Z" fill="#283C28"/>
<path d="M42.7146 117.377C40.9856 115.543 38.6026 109.054 38.6411 106.972C39.0905 106.793 47.4501 107.717 50.5397 108.092C53.3458 108.433 52.1412 107.491 53.854 107.491C54.0504 107.491 63.5417 107.739 64.6532 107.739C65.3841 107.739 67.5768 107.621 67.7489 107.85C68.8664 109.332 67.9918 114.037 67.9493 114.774C67.8298 116.856 68.7875 119.175 68.3097 119.136C67.2771 119.136 62.58 118.775 61.3086 118.678C59.7112 118.556 57.6886 120.096 56.7694 120.017C55.2874 119.887 53.6151 118.538 52.2566 118.655C49.659 118.883 44.0711 118.816 42.7126 117.375L42.7146 117.377Z" fill="#283C28"/>
<path d="M61.4431 128.902C61.7427 128.241 60.8134 127.594 61.0037 126.581C61.0037 126.581 61.8014 125.5 62.6012 124.939C62.8927 124.735 63.4636 125.449 63.6033 125.161C64.1378 124.059 64.5124 123.231 64.5185 122.939C64.2067 122.427 60.7851 122.505 56.7723 122.298C54.8591 122.2 51.7614 121.778 49.9048 121.778C46.9793 121.778 46.1107 122.819 46.0723 123.178C47.4611 127.058 55.9058 135.142 57.7725 135.144L61.4451 128.9L61.4431 128.902Z" fill="#283C28"/>
<path d="M113.384 121.752C112.021 121.752 108.64 122.174 104.702 122.338C102.694 122.423 100.924 122.322 99.3005 122.178C98.8065 122.133 97.8104 121.466 97.3407 121.419C96.9216 121.376 97.0289 121.953 96.624 121.912C95.4356 121.794 94.3058 121.699 93.1883 121.699C92.8198 121.699 89.0905 122.352 88.7969 122.34C86.1021 122.225 81.2937 122.86 76.2585 122.86C75.7868 122.86 74.9688 123.251 74.2217 123.259C73.4524 123.268 72.7559 122.89 72.4259 122.886C69.8729 122.86 69.4012 122.805 69.1521 122.898C67.5001 123.513 67.2895 125.049 65.0786 127.78C63.7039 129.479 64.615 132.494 63.5622 134.304C63.131 135.044 61.2258 136.116 60.7277 137.106C60.5678 137.506 61.0861 138.374 66.4918 141.168C71.4298 143.721 84.1504 146.115 90.7142 146.213C90.9065 146.215 91.1029 146.217 91.2973 146.217C105.14 146.217 116.512 141.748 123.659 136.024C122.993 135.197 121.523 133.608 120.634 131.55C120.543 131.341 119.249 130.735 118.986 130.3C118.723 129.866 119.075 129.247 118.826 128.819C117.66 126.816 116.971 125.157 116.87 124.497C116.631 122.937 117.51 122.736 117.548 122.496C117.589 122.257 113.386 121.748 113.386 121.748L113.384 121.752Z" fill="#283C28"/>
<path d="M82.4786 119.67C76.1538 119.67 74.036 119.355 73.3821 119.136C72.9022 118.976 71.7766 118.296 71.4263 117.095C71.2967 116.653 72.064 116.367 71.9851 115.855C71.9264 115.472 71.1671 115.346 71.1064 114.934C70.7157 112.282 71.1854 108.451 71.5458 107.891C71.7401 107.587 73.1837 107.13 79.2838 107.138C80.0147 107.138 81.191 106.365 82.3268 106.57C84.651 106.99 86.5197 108.492 89.4736 108.932C90.6985 109.115 92.1603 108.904 92.7879 109.052C93.4662 109.212 93.0815 115.827 93.0673 116.135C93.0268 117.056 88.1151 119.497 87.4065 119.522C86.6109 119.548 84.734 119.67 82.4807 119.67H82.4786Z" fill="#283C28"/>
<path d="M117.265 118.937C115.443 118.937 111.549 118.438 109.693 118.103C108.996 117.978 108.29 117.85 107.561 117.736C106.05 117.501 103.653 118.049 101.89 118.016C99.6081 117.974 96.3546 117.245 96.2594 116.496C96.2999 116.015 97.2393 114.299 97.5228 113.303C97.8123 112.284 97.9358 110.535 97.2576 108.972C96.142 106.41 96.0347 105.43 96.14 104.289C96.227 103.342 96.6886 102.459 97.0186 101.729C97.5774 100.489 98.2962 98.7682 98.0978 97.0861C97.9581 95.9092 97.956 95.1767 98.1626 94.6552C98.3427 94.1987 99.2943 93.6041 99.2943 93.6041C99.2943 93.6041 101.778 93.5879 103.487 93.4438C104.824 93.3322 106.601 91.9159 107.897 91.64C108.66 91.4776 109.367 91.2504 110.035 90.9947C110.401 90.8547 111.442 91.2362 111.792 91.082C112.08 90.9562 111.681 90.2947 111.962 90.1689C113.185 89.6149 116.06 88.0464 117.303 87.8415C118.384 87.6629 118.052 88.4259 119.658 88.0972C121.067 87.809 124.082 86.5064 126.566 86.1614C127.961 85.9666 128.163 87.0826 129.921 86.5612C131.69 86.0376 132.316 84.5605 133.514 84.321C134.713 84.0816 137.725 84.7979 140.179 84.4387C141.104 84.3048 145.095 84.321 145.095 84.321C145.095 84.321 145.245 85.5283 145.494 88.4827C145.589 89.6109 145.795 93.8679 145.034 100.428C144.174 107.838 141.819 113.615 139.185 117.576C138.867 118.053 132.678 116.821 131.599 116.535C130.941 116.36 130.18 116.273 129.335 116.273C126.292 116.273 124.806 117.314 121.45 118.312L121.302 118.355C119.986 118.747 118.666 118.937 117.263 118.937H117.265Z" fill="#283C28"/>
<path d="M129.251 52.5089C131.522 53.9861 139.588 65.2313 140.696 69.1536C140.607 69.6933 139.698 70.7018 135.995 70.6247C134.557 70.5942 131.603 69.3544 129.008 69.7136C124.815 70.233 117.19 70.8316 115.552 70.0748C112.266 68.555 111.523 67.1143 107.847 67.1143C107.357 67.1143 101.299 67.581 100.509 67.2645C100.21 67.1448 98.007 66.1728 98.173 65.5539C99.491 60.6618 99.4201 56.07 101.109 54.5096C101.738 53.7893 102.696 53.1481 102.696 53.1481C105.611 53.2272 109.205 52.308 111.001 51.748C112.799 51.188 113.117 50.9485 114.635 51.3868C116.151 51.8271 121.343 51.6262 122.501 51.6262C123.659 51.6262 123.219 51.9874 125.096 52.3871C126.973 52.7869 129.255 52.5109 129.255 52.5109L129.251 52.5089Z" fill="#283C28"/>
<path d="M142.543 73.437C143.818 75.9936 144.739 79.9138 144.739 80.9203C144.689 81.1069 143.859 80.7782 142.703 80.8797C141.848 80.9548 141.186 81.6162 140.186 81.6791C139.279 81.736 138.046 81.1982 137.072 81.1982C136.432 81.1982 134.556 81.4377 134.556 81.4377C134.556 81.4377 134.718 78.1952 134.598 77.6007C134.436 76.7971 134.835 76.1154 135.155 75.5959C135.475 75.0765 135.554 74.1147 135.554 74.1147C135.554 74.1147 137.032 74.2344 137.631 74.0355C138.23 73.8347 139.028 72.8749 139.627 72.8343C140.227 72.7937 142.182 72.7146 142.543 73.4349V73.437Z" fill="#283C28"/>
<path d="M98.0997 52.6266C98.0208 52.9878 97.4134 53.146 95.6236 53.146C94.8826 53.146 93.846 53.4281 92.6495 53.3692C91.9469 53.3347 91.1452 53.2881 90.2746 53.2373C87.5252 53.0791 84.2777 52.9452 81.1295 52.9452C78.9672 52.9452 79.4835 53.3185 78.0946 53.5052C76.9507 53.6594 72.8104 53.7446 69.7087 53.7446C64.5662 53.7446 57.9032 53.5539 54.4553 53.424C54.1131 53.4118 52.2768 53.4524 52.1391 53.144C52.0055 52.8417 57.4902 47.6614 58.8082 47.4605C62.082 47.4605 70.5873 47.3408 75.7116 47.982C76.2299 48.0469 76.9486 48.0124 77.7949 48.0124C78.4165 48.0124 79.1089 48.0084 79.8479 48.0043C80.6922 48.0003 81.6761 48.2214 82.6054 48.2214C84.5591 48.2214 87.2924 48.5643 89.5538 48.7409C92.2162 48.9499 93.9736 48.8687 95.1033 49.1771C95.7329 49.3496 97.4093 49.1812 97.7393 49.1812C98.1787 49.7412 98.1787 52.2634 98.0997 52.6225V52.6266Z" fill="#283C28"/>
<path d="M103.49 48.4649C102.591 48.4081 95.8529 45.4091 94.9904 45.2305C92.8464 44.7882 91.6255 44.8633 89.6353 44.8633C89.0725 44.8633 85.2257 46.2918 84.8836 45.9042C84.2843 45.2245 83.3408 44.8186 81.0571 44.8186C79.6155 44.8186 78.2429 44.354 77.0564 44.2627C74.8294 44.0922 67.3059 44.2018 64.4492 44.0861C67.7514 41.7811 78.8118 36.4182 94.0874 36.9599C107.243 37.7391 120.752 45.0905 120.579 45.5836C120.217 46.6225 114.35 47.6655 113.232 48.0652C112.999 48.1484 108.6 48.7855 103.49 48.4649Z" fill="#283C28"/>
<path d="M122.417 119.978C122.417 119.978 120.939 124.221 121.219 125.82C121.498 127.421 121.699 128.421 121.818 128.421C122.616 128.582 124.134 132.303 124.893 132.583C128.167 132.262 128.949 129.882 130.02 129.964C130.348 129.988 130.657 129.83 130.826 129.548C131.795 127.916 133.672 125.879 133.998 125.662C134.358 125.422 135.357 122.139 135.476 121.34C135.595 120.54 132.002 119.899 131.123 119.739C130.244 119.579 123.098 119.94 122.417 119.978Z" fill="#283C28"/>
<path d="M131.601 79.6399C130.364 80.5997 127.766 83.8077 124.094 84.0025C122.577 84.0816 119.022 84.2419 117.066 82.4015C117.706 81.7218 117.785 81.4803 118.146 81.2815C118.506 81.0806 119.024 81.2023 118.864 80.4414C118.704 79.6805 118.585 78.321 119.144 77.3592C119.702 76.3995 120.581 73.997 120.541 73.2381C126.052 72.8769 130.562 73.5181 130.882 73.719C131.202 73.9199 131.401 78.601 131.601 79.6419V79.6399Z" fill="#283C28"/>
<path d="M81.543 56.983C82.1989 60.187 82.6079 65.3652 82.8954 65.9821C83.1829 66.5989 84.3713 67.2969 84.8228 67.3781C85.2743 67.4593 86.2158 66.6395 86.6672 66.5563C87.1187 66.4752 88.1027 67.5425 88.1027 67.5425C88.1027 67.5425 89.7831 67.1326 90.4796 67.2543C91.176 67.3781 92.735 67.5425 93.6359 67.1732C94.5369 66.8039 95.7274 64.4623 95.7679 63.2286C95.8083 61.9969 94.0874 59.1603 94.0469 58.3811C94.0064 57.5999 94.2514 56.7781 94.2514 56.7781C93.063 56.0801 92.652 56.0395 91.4635 56.0801C90.2751 56.1207 89.7001 56.8613 88.2667 56.9425C86.8312 57.0236 81.543 56.983 81.543 56.983Z" fill="#283C28"/>
<path d="M42.1562 66.8729C45.3106 60.3899 48.2665 57.5492 48.2665 57.5492C50.8216 57.9104 53.1782 57.4295 54.4962 57.0683C55.8142 56.7071 59.3269 56.908 61.5641 57.3077C63.7993 57.7075 64.9574 57.1068 64.9574 57.1068C64.9574 57.1068 66.7552 57.5066 67.4335 57.5877C68.1117 57.6669 70.2294 57.7075 70.4683 57.3077C70.7073 56.908 70.9482 56.908 71.7054 56.7477C73.8171 56.3013 75.6756 56.21 76.856 57.1089C77.8541 57.8698 77.3743 59.5093 77.8946 60.3108C78.4129 61.1102 78.9332 62.072 78.9332 62.4312C78.9332 62.7903 77.8946 63.7927 77.6962 64.6328C77.4958 65.4728 77.4087 66.2641 76.2992 66.674C75.54 66.954 71.2276 66.3534 70.1505 66.4731C69.0714 66.5929 64.6395 67.5141 62.5238 67.9138C60.4081 68.3135 42.5591 67.6338 42.1603 66.8729H42.1562Z" fill="#283C28"/>
</g>
<defs>
<clipPath id="clip0_105_679">
<rect width="182" height="183" fill="white"/>
</clipPath>
</defs>
</svg>
