<svg width="42" height="41" viewBox="0 0 42 41" fill="none" xmlns="http://www.w3.org/2000/svg">
<path d="M20.7461 23.9873C18.8242 23.9873 17.1586 22.4873 17.1586 20.4873C17.1586 18.6123 18.6961 16.9873 20.7461 16.9873C22.668 16.9873 24.3336 18.4873 24.3336 20.4873C24.3336 22.3623 22.668 23.9873 20.7461 23.9873Z" fill="#283C28"/>
<path fill-rule="evenodd" clip-rule="evenodd" d="M25.1023 11.9873H16.3898C15.3648 12.1123 14.8523 12.2373 14.468 12.3623C13.9555 12.4873 13.5711 12.7373 13.1867 13.1123C12.8826 13.409 12.7389 13.7058 12.5652 14.0644C12.5194 14.159 12.4714 14.258 12.418 14.3623C12.3981 14.4203 12.3753 14.4813 12.3507 14.5467C12.2167 14.904 12.0336 15.392 12.0336 16.2373V24.7373C12.1617 25.7373 12.2898 26.2373 12.418 26.6123C12.5461 27.1123 12.8023 27.4873 13.1867 27.8623C13.4909 28.159 13.795 28.2992 14.1627 28.4687C14.2596 28.5134 14.361 28.5601 14.468 28.6123C14.5274 28.6316 14.59 28.654 14.657 28.6779C15.0232 28.8087 15.5234 28.9873 16.3898 28.9873H25.1023C26.1273 28.8623 26.6398 28.7373 27.0242 28.6123C27.5367 28.4873 27.9211 28.2373 28.3055 27.8623C28.6096 27.5656 28.7533 27.2688 28.927 26.9102C28.9728 26.8156 29.0207 26.7166 29.0742 26.6123C29.094 26.5543 29.1169 26.4933 29.1415 26.4279C29.2755 26.0706 29.4586 25.5826 29.4586 24.7373V16.2373C29.3305 15.2373 29.2023 14.7373 29.0742 14.3623C28.9461 13.8623 28.6898 13.4873 28.3055 13.1123C28.0013 12.8156 27.6972 12.6754 27.3295 12.5059C27.2327 12.4613 27.131 12.4144 27.0242 12.3623C26.9648 12.343 26.9022 12.3206 26.8352 12.2967C26.469 12.1659 25.9688 11.9873 25.1023 11.9873ZM20.7461 15.1123C17.6711 15.1123 15.2367 17.4873 15.2367 20.4873C15.2367 23.4873 17.6711 25.8623 20.7461 25.8623C23.8211 25.8623 26.2555 23.4873 26.2555 20.4873C26.2555 17.4873 23.8211 15.1123 20.7461 15.1123ZM27.6648 14.9873C27.6648 15.6777 27.0912 16.2373 26.3836 16.2373C25.676 16.2373 25.1023 15.6777 25.1023 14.9873C25.1023 14.2969 25.676 13.7373 26.3836 13.7373C27.0912 13.7373 27.6648 14.2969 27.6648 14.9873Z" fill="#283C28"/>
<path fill-rule="evenodd" clip-rule="evenodd" d="M0.246094 20.4873C0.246094 9.44161 9.42426 0.487305 20.7461 0.487305C32.0679 0.487305 41.2461 9.44161 41.2461 20.4873C41.2461 31.533 32.0679 40.4873 20.7461 40.4873C9.42426 40.4873 0.246094 31.533 0.246094 20.4873ZM16.3898 10.1123H25.1023C26.2555 10.2373 27.0242 10.3623 27.6648 10.6123C28.4336 10.9873 28.9461 11.2373 29.5867 11.8623C30.2273 12.4873 30.6117 13.1123 30.868 13.7373C31.1242 14.3623 31.3805 15.1123 31.3805 16.2373V24.7373C31.2523 25.8623 31.1242 26.6123 30.868 27.2373C30.4836 27.9873 30.2273 28.4873 29.5867 29.1123C28.9461 29.7373 28.3055 30.1123 27.6648 30.3623C27.0242 30.6123 26.2555 30.8623 25.1023 30.8623H16.3898C15.2367 30.7373 14.468 30.6123 13.8273 30.3623C13.0586 29.9873 12.5461 29.7373 11.9055 29.1123C11.2648 28.4873 10.8805 27.8623 10.6242 27.2373C10.368 26.6123 10.1117 25.8623 10.1117 24.7373V16.2373C10.2398 15.1123 10.368 14.3623 10.6242 13.7373C11.0086 12.9873 11.2648 12.4873 11.9055 11.8623C12.5461 11.2373 13.1867 10.8623 13.8273 10.6123C14.468 10.3623 15.2367 10.1123 16.3898 10.1123Z" fill="#283C28"/>
</svg>
