<svg width="42" height="41" viewBox="0 0 42 41" fill="none" xmlns="http://www.w3.org/2000/svg">
<path fill-rule="evenodd" clip-rule="evenodd" d="M0.246094 20.4873C0.246094 9.44161 9.42426 0.487305 20.7461 0.487305C32.0679 0.487305 41.2461 9.44161 41.2461 20.4873C41.2461 31.533 32.0679 40.4873 20.7461 40.4873C9.42426 40.4873 0.246094 31.533 0.246094 20.4873ZM10.7523 17.1123V30.4873H15.1086V17.1123H10.7523ZM10.4961 12.8623C10.4961 14.2373 11.5211 15.2373 12.9305 15.2373C14.3398 15.2373 15.3648 14.2373 15.3648 12.8623C15.3648 11.4873 14.3398 10.4873 12.9305 10.4873C11.6492 10.4873 10.4961 11.4873 10.4961 12.8623ZM26.6399 30.4873H30.7398V22.2373C30.7398 18.1123 28.1773 16.7373 25.743 16.7373C23.5648 16.7373 22.0273 18.1123 21.643 18.9873V17.1123H17.543V30.4873H21.8992V23.3623C21.8992 21.4873 23.1805 20.4873 24.4617 20.4873C25.743 20.4873 26.6399 21.1123 26.6399 23.2373V30.4873Z" fill="#283C28"/>
</svg>
