<svg width="41" height="41" viewBox="0 0 41 41" fill="none" xmlns="http://www.w3.org/2000/svg">
<path d="M20.2461 0.487305C16.2905 0.487305 12.4237 1.66028 9.1347 3.85791C5.84571 6.05554 3.28226 9.17911 1.76851 12.8336C0.254759 16.4882 -0.141307 20.5095 0.630397 24.3891C1.4021 28.2687 3.30692 31.8324 6.10397 34.6294C8.90101 37.4265 12.4647 39.3313 16.3443 40.103C20.2239 40.8747 24.2452 40.4786 27.8998 38.9649C31.5543 37.4511 34.6779 34.8877 36.8755 31.5987C39.0731 28.3097 40.2461 24.4429 40.2461 20.4873C40.2408 15.1846 38.132 10.1006 34.3824 6.35102C30.6328 2.60144 25.5488 0.492599 20.2461 0.487305ZM32.1241 15.9133V17.2053C32.1241 17.3042 32.1043 17.4021 32.0659 17.4932C32.0275 17.5843 31.9712 17.6668 31.9003 17.7358C31.8295 17.8047 31.7455 17.8588 31.6534 17.8948C31.5613 17.9308 31.4629 17.948 31.3641 17.9453C29.2524 17.7961 27.2322 17.025 25.5581 15.7293V25.1853C25.5576 26.2318 25.3487 27.2678 24.9435 28.2327C24.5383 29.1976 23.945 30.0722 23.1981 30.8053C22.4451 31.5576 21.5496 32.152 20.5639 32.5538C19.5783 32.9556 18.5224 33.1567 17.4581 33.1453C15.3178 33.1422 13.2636 32.3024 11.7341 30.8053C10.7609 29.8241 10.0599 28.6064 9.70009 27.2721C9.34029 25.9378 9.33409 24.5328 9.6821 23.1953C10.0001 21.9113 10.6421 20.7313 11.5481 19.7693C12.2238 18.9435 13.0754 18.2791 14.0409 17.8247C15.0063 17.3704 16.0611 17.1376 17.1281 17.1433H18.7681V20.5493C18.7688 20.6482 18.7485 20.7462 18.7083 20.8366C18.6682 20.927 18.6093 21.0078 18.5355 21.0737C18.4617 21.1396 18.3747 21.1889 18.2803 21.2185C18.1859 21.2481 18.0863 21.2572 17.9881 21.2453C17.0359 20.9593 16.0098 21.0542 15.1262 21.5099C14.2425 21.9657 13.5704 22.7467 13.2514 23.6884C12.9324 24.6301 12.9915 25.6588 13.4162 26.5578C13.8409 27.4568 14.5981 28.1557 15.5281 28.5073C16.0681 28.8173 16.6721 28.9993 17.2921 29.0413C17.7721 29.0613 18.2521 29.0013 18.7081 28.8573C19.4693 28.6005 20.1315 28.1125 20.6022 27.4615C21.0729 26.8104 21.3288 26.0287 21.3341 25.2253V7.9953C21.3341 7.80469 21.4097 7.62186 21.5443 7.48689C21.6789 7.35192 21.8615 7.27583 22.0521 7.2753H24.8821C25.066 7.27553 25.2428 7.3461 25.3763 7.47254C25.5098 7.59898 25.5899 7.77171 25.6001 7.9553C25.7033 8.83776 25.9835 9.6903 26.4241 10.4618C26.8647 11.2334 27.4565 11.908 28.1641 12.4453C29.1203 13.1631 30.2559 13.6032 31.4461 13.7173C31.6244 13.7325 31.7911 13.8119 31.9153 13.9406C32.0396 14.0693 32.1131 14.2386 32.1221 14.4173L32.1241 15.9133Z" fill="#283C28"/>
</svg>
