<svg width="42" height="41" viewBox="0 0 42 41" fill="none" xmlns="http://www.w3.org/2000/svg">
<path d="M20.8749 40.8153C32.0115 40.8153 41.0389 31.7879 41.0389 20.6513C41.0389 9.51472 32.0115 0.487305 20.8749 0.487305C9.73835 0.487305 0.710938 9.51472 0.710938 20.6513C0.710938 28.729 5.46157 35.6977 12.3214 38.9158L16.9389 17.2073C17.0572 16.6914 17.3736 16.2428 17.8197 15.9581C18.2659 15.6735 18.8061 15.5756 19.3238 15.6857C19.8414 15.7958 20.295 16.105 20.5867 16.5466C20.8784 16.9882 20.9848 17.5268 20.883 18.0461C20.3305 20.6513 19.8466 21.6595 19.8687 22.8693C19.903 24.7647 20.4192 25.777 20.9193 26.3012C21.4294 26.8356 22.1654 27.1239 23.1272 27.1078C24.1092 27.0876 25.2203 26.7428 26.2043 26.1218C28.1178 24.92 28.9405 22.8592 28.9405 20.6513C28.9392 19.4531 28.6709 18.2702 28.1551 17.1887C27.6394 16.1071 26.8892 15.1541 25.959 14.3988C25.0288 13.6435 23.942 13.105 22.7776 12.8223C21.6132 12.5397 20.4004 12.52 19.2274 12.7647C18.0545 13.0095 16.9508 13.5125 15.9966 14.2372C15.0424 14.9619 14.2616 15.8902 13.7111 16.9544C13.1606 18.0187 12.8541 19.1922 12.8139 20.3898C12.7737 21.5873 13.0008 22.7788 13.4788 23.8775C13.6736 24.364 13.6715 24.9072 13.4727 25.3921C13.2739 25.877 12.8942 26.2655 12.4139 26.4752C11.9336 26.6849 11.3906 26.6994 10.8998 26.5156C10.409 26.3319 10.0091 25.9642 9.78473 25.4906C8.98204 23.6495 8.65033 21.6376 8.81954 19.6363C8.98874 17.6349 9.65354 15.7072 10.7539 14.027C11.8543 12.3468 13.3557 10.967 15.1227 10.0121C16.8896 9.05713 18.8665 8.5571 20.8749 8.5571C22.8834 8.5571 24.8603 9.05713 26.6272 10.0121C28.3941 10.967 29.8955 12.3468 30.9959 14.027C32.0963 15.7072 32.7611 17.6349 32.9303 19.6363C33.0995 21.6376 32.7678 23.6495 31.9651 25.4906C31.2231 27.2006 29.8681 28.5838 28.3517 29.5376C26.8293 30.4953 25.0106 31.1083 23.1998 31.1406C21.5484 31.1708 19.8284 30.7131 18.4431 29.5113L16.1565 40.2628C17.6688 40.6257 19.2497 40.8173 20.8729 40.8173L20.8749 40.8153Z" fill="#283C28"/>
</svg>
