<svg width="40" height="41" viewBox="0 0 40 41" fill="none" xmlns="http://www.w3.org/2000/svg">
<path d="M22.9149 20.4873L17.7961 17.4873V23.4873L22.9149 20.4873Z" fill="#283C28"/>
<path fill-rule="evenodd" clip-rule="evenodd" d="M0.246094 20.4873C0.246094 9.44161 8.97654 0.487305 19.7461 0.487305C30.5156 0.487305 39.2461 9.44161 39.2461 20.4873C39.2461 31.533 30.5156 40.4873 19.7461 40.4873C8.97654 40.4873 0.246094 31.533 0.246094 20.4873ZM27.3024 13.8623C28.1555 14.1123 28.7649 14.7373 29.0086 15.6123C29.4961 17.2373 29.4961 20.4873 29.4961 20.4873C29.4961 20.4873 29.4961 23.7373 29.1305 25.3623C28.8867 26.2373 28.2773 26.8623 27.4242 27.1123C25.8398 27.4873 19.7461 27.4873 19.7461 27.4873C19.7461 27.4873 13.5305 27.4873 12.068 27.1123C11.2148 26.8623 10.6055 26.2373 10.3617 25.3623C9.9961 23.7373 9.99609 20.4873 9.99609 20.4873C9.99609 20.4873 9.99609 17.2373 10.2398 15.6123C10.4836 14.7373 11.093 14.1123 11.9461 13.8623C13.5305 13.4873 19.6242 13.4873 19.6242 13.4873C19.6242 13.4873 25.8399 13.4873 27.3024 13.8623Z" fill="#283C28"/>
</svg>
