<svg width="41" height="41" viewBox="0 0 41 41" fill="none" xmlns="http://www.w3.org/2000/svg">
<rect x="0.845703" y="0.901367" width="40" height="40" rx="20" fill="#DBC6BC"/>
<path d="M22.9644 17.349H16.2275C15.6388 17.349 15.1616 16.8718 15.1616 16.2831C15.1616 15.6945 15.6388 15.2173 16.2275 15.2173H25.4649C26.0535 15.2173 26.5308 15.6945 26.5308 16.2831V25.5206C26.5308 26.1092 26.0535 26.5864 25.4649 26.5864C24.8763 26.5864 24.399 26.1092 24.399 25.5206V18.9285L16.9776 26.278C16.5593 26.6922 15.8844 26.6889 15.4702 26.2706C15.056 25.8524 15.0593 25.1775 15.4776 24.7634L22.9644 17.349ZM6.63477 20.9019C6.63477 28.7505 12.9974 35.1133 20.8462 35.1133C28.6949 35.1133 35.0576 28.7505 35.0576 20.9019C35.0576 13.0531 28.6949 6.69043 20.8462 6.69043C12.9974 6.69043 6.63477 13.0531 6.63477 20.9019ZM20.8462 32.9816C14.1748 32.9816 8.76648 27.5733 8.76648 20.9019C8.76648 14.2304 14.1748 8.82214 20.8462 8.82214C27.5176 8.82214 32.9259 14.2304 32.9259 20.9019C32.9259 27.5733 27.5176 32.9816 20.8462 32.9816Z" fill="#283C28"/>
</svg>
