<svg width="115" height="116" viewBox="0 0 115 116" fill="none" xmlns="http://www.w3.org/2000/svg">
<g clip-path="url(#clip0_414_1781)">
<path d="M57.8818 75.6541C67.5203 75.6541 75.3339 67.756 75.3339 58.0133C75.3339 48.2706 67.5203 40.3726 57.8818 40.3726C48.2433 40.3726 40.4297 48.2706 40.4297 58.0133C40.4297 67.756 48.2433 75.6541 57.8818 75.6541Z" fill="white"/>
<path d="M6.23366 47.2346C5.90066 47.8407 5.43437 48.3614 4.87074 48.7566C4.61495 48.929 4.32691 49.0465 4.02437 49.1018C3.72182 49.1571 3.41125 49.149 3.11192 49.078C2.65394 48.9804 2.2347 48.7482 1.90682 48.4106C1.57894 48.073 1.35703 47.645 1.26897 47.1803C1.18092 46.7157 1.23066 46.2351 1.4119 45.7989C1.59313 45.3627 1.89778 44.9903 2.28766 44.7285C2.68355 44.4937 3.12779 44.3545 3.58569 44.3218L3.80634 45.6011C3.51979 45.6248 3.24019 45.7027 2.98207 45.8306C2.75015 45.9906 2.58918 46.2358 2.53342 46.5139C2.47765 46.7921 2.53153 47.0813 2.68355 47.3199C2.75535 47.4368 2.84991 47.5378 2.96147 47.6168C3.07303 47.6957 3.19927 47.7509 3.33257 47.7791C3.4686 47.8126 3.61015 47.8165 3.74779 47.7905C3.88543 47.7645 4.016 47.7092 4.13085 47.6282C4.44664 47.4023 4.72116 47.1226 4.94212 46.8016C5.32692 46.0944 5.87461 45.4914 6.53876 45.0434C6.88502 44.8021 7.2754 44.633 7.68714 44.5461C8.09887 44.4592 8.52366 44.4563 8.93653 44.5375C9.3494 44.6187 9.74206 44.7823 10.0916 45.0189C10.4411 45.2554 10.7403 45.5601 10.9718 45.915C11.2034 46.27 11.3625 46.6681 11.4398 47.086C11.5172 47.5039 11.5113 47.9332 11.4224 48.3488C11.3335 48.7643 11.1634 49.1578 10.9222 49.506C10.6809 49.8543 10.3734 50.1504 10.0175 50.377C9.36055 50.7836 8.59058 50.9632 7.8238 50.8887L7.62906 49.5307C8.19987 49.6335 8.78833 49.5436 9.30358 49.2748C9.51016 49.1414 9.68752 48.9666 9.82481 48.7613C9.96209 48.5559 10.0564 48.3244 10.1019 48.0809C10.1551 47.8405 10.1584 47.5916 10.1114 47.35C10.0645 47.1083 9.9684 46.8791 9.82924 46.6769C9.69992 46.4657 9.52778 46.2846 9.32418 46.1455C9.12058 46.0064 8.89017 45.9125 8.64807 45.87C8.4096 45.8167 8.16282 45.813 7.92291 45.8593C7.683 45.9055 7.45498 46.0007 7.25266 46.139C6.84441 46.4322 6.49797 46.8046 6.23366 47.2346Z" fill="white"/>
<path d="M12.756 36.049L13.9371 35.4585C14.5092 36.7858 14.5534 38.2848 14.0605 39.644C13.4933 40.8438 12.4967 41.7813 11.2721 42.2669C10.0474 42.7526 8.68612 42.7503 7.46311 42.2605C6.24011 41.7706 5.24667 40.8298 4.68348 39.6281C4.12029 38.4264 4.02937 37.0534 4.42908 35.7866C4.99384 34.4562 6.0413 33.3951 7.35616 32.8213L7.82343 34.0743C6.85462 34.5118 6.08336 35.3007 5.66215 36.2851C5.37914 37.2205 5.45453 38.2293 5.87329 39.1112C6.29205 39.993 7.02357 40.6834 7.92262 41.0452C8.82168 41.4071 9.82245 41.4139 10.7263 41.0644C11.6301 40.7149 12.3708 40.0346 12.8014 39.1586C13.174 38.1532 13.1578 37.0428 12.756 36.049Z" fill="white"/>
<path d="M14.6126 31.1487L13.9636 32.1787L16.7219 33.9106L16.0275 35.039L7.41504 29.6202L8.93372 27.1535C9.42545 26.5309 10.1121 26.096 10.8808 25.9202C11.3235 25.8171 11.7821 25.8033 12.2301 25.8794C12.6782 25.9556 13.107 26.1202 13.4921 26.3638C13.8773 26.6075 14.2111 26.9255 14.4746 27.2997C14.7381 27.6738 14.9262 28.0967 15.028 28.5443C15.1621 28.9677 15.1977 29.4168 15.1319 29.8564L19.2661 29.7776L18.4224 31.1422L14.6126 31.1487ZM9.23874 29.1806L12.8603 31.4571L13.5093 30.4271C13.6606 30.1896 13.7622 29.9233 13.8079 29.6447C13.8537 29.366 13.8426 29.0809 13.7754 28.8067C13.7122 28.5272 13.5945 28.2633 13.4291 28.0305C13.2636 27.7977 13.0538 27.6006 12.812 27.4509C12.5701 27.3012 12.3011 27.2018 12.0208 27.1586C11.7404 27.1154 11.4543 27.1293 11.1793 27.1994C10.9103 27.2603 10.6564 27.3761 10.4332 27.5397C10.21 27.7032 10.0222 27.9111 9.88126 28.1507L9.23874 29.1806Z" fill="white"/>
<path d="M19.2132 16.5123C20.4135 16.4711 21.5909 16.8518 22.5447 17.5895C23.4985 18.3273 24.1698 19.3764 24.4442 20.5583C24.7186 21.7401 24.5793 22.9816 24.0498 24.0712C23.5204 25.1609 22.6336 26.0313 21.5405 26.5342C20.4474 27.0372 19.2157 27.1415 18.055 26.8295C16.8944 26.5175 15.8766 25.8085 15.1751 24.8231C14.4736 23.8378 14.1317 22.6371 14.2077 21.4255C14.2836 20.214 14.7728 19.0666 15.5917 18.1786C16.0518 17.6668 16.6102 17.2551 17.2328 16.9686C17.8555 16.6821 18.5293 16.5269 19.2132 16.5123ZM16.5653 19.0905C15.9481 19.7553 15.5784 20.616 15.5192 21.5257C15.46 22.4353 15.715 23.3376 16.2407 24.0783C16.7664 24.8191 17.5301 25.3525 18.4016 25.5874C19.273 25.8222 20.1981 25.7441 21.0189 25.3663C21.8397 24.9884 22.5052 24.3343 22.902 23.5156C23.2987 22.6969 23.402 21.7644 23.1943 20.8773C22.9865 19.9902 22.4806 19.2035 21.7628 18.6514C21.045 18.0994 20.16 17.8164 19.2587 17.8506C18.7496 17.8595 18.2478 17.9742 17.7845 18.1875C17.3211 18.4008 16.9061 18.7082 16.5653 19.0905Z" fill="white"/>
<path d="M27.8461 20.724L21.8232 12.4777L22.8746 11.6904L28.1188 18.8609L31.0328 16.6829L31.8181 17.7522L27.8461 20.724Z" fill="white"/>
<path d="M32.843 17.1028L27.917 8.14139L29.0658 7.48535L33.3493 15.2856L36.5165 13.5012L37.1655 14.6689L32.843 17.1028Z" fill="white"/>
<path d="M44.9281 1.15462L46.2262 0.813477L48.0759 7.78057C48.1881 8.56932 48.035 9.37332 47.641 10.0636C47.3015 10.6609 46.7943 11.143 46.1836 11.449C45.573 11.755 44.8863 11.8711 44.2104 11.7826C43.5345 11.6941 42.8997 11.4051 42.3863 10.952C41.8729 10.4988 41.504 9.90202 41.3261 9.23697L39.5283 2.62414L40.8264 2.27644L42.5852 8.88927C42.651 9.16586 42.7734 9.42547 42.9445 9.65143C43.1155 9.87739 43.3313 10.0647 43.5782 10.2013C43.9429 10.4145 44.3619 10.5136 44.7823 10.4859C45.2027 10.4583 45.6055 10.3052 45.9397 10.046C46.274 9.78676 46.5247 9.43315 46.66 9.02988C46.7953 8.62662 46.8093 8.19183 46.7 7.78057L44.9281 1.15462Z" fill="white"/>
<path d="M51.3333 7.0918L51.6643 10.372L50.3662 10.5032L49.3408 0.308407L52.203 0.0131836C52.9901 0.0263539 53.7495 0.308452 54.3577 0.813546C54.8854 1.2495 55.2737 1.83358 55.4736 2.49217C55.6735 3.15077 55.6761 3.85443 55.4811 4.51452C55.2861 5.17461 54.9022 5.76161 54.3778 6.20156C53.8533 6.64152 53.2118 6.91475 52.534 6.98683L51.3333 7.0918ZM50.7751 1.4827L51.2035 5.76661L52.3977 5.64853C52.6761 5.61907 52.946 5.5344 53.192 5.39938C53.438 5.26436 53.6552 5.08164 53.8312 4.86167C54.0072 4.64169 54.1386 4.38878 54.2178 4.11742C54.297 3.84606 54.3225 3.56157 54.2928 3.28024C54.2688 2.99902 54.1879 2.72579 54.055 2.47752C53.9221 2.22924 53.7402 2.01122 53.5205 1.83697C53.3061 1.65571 53.0574 1.52037 52.7897 1.43918C52.5219 1.35798 52.2406 1.33262 51.9629 1.36462L50.7751 1.4827Z" fill="white"/>
<path d="M66.5793 0.380359L68.7729 11.0606L67.3905 10.8572L66.6117 7.07846L63.9572 6.68485L62.1529 10.0897L60.7705 9.88629L65.8718 0.275391L66.5793 0.380359ZM66.3326 5.69423L65.8134 3.19474L64.6192 5.44494L66.3326 5.69423Z" fill="white"/>
<path d="M72.7769 1.58105L73.9127 1.96155L75.6196 10.2341L77.8847 3.28674L79.1373 3.70004L75.9636 13.4356L74.8732 13.0748L73.1404 4.69722L70.8428 11.7299L69.5967 11.3166L72.7769 1.58105Z" fill="white"/>
<path d="M82.9542 5.47143C83.595 5.76766 84.1695 6.19264 84.6425 6.72047C85.1156 7.24831 85.4775 7.86794 85.7061 8.54167C86.1116 9.87096 85.9785 11.3086 85.3359 12.5388C84.6934 13.7689 83.5939 14.6908 82.2792 15.102C81.5993 15.2887 80.8891 15.335 80.191 15.238C79.493 15.1411 78.8214 14.9029 78.2164 14.5378L77.3662 14.0786L82.0975 5.01221L82.9542 5.47143ZM82.6362 6.82942L79.151 13.5078C79.562 13.7469 80.0173 13.8977 80.4886 13.9508C80.9598 14.0038 81.4369 13.958 81.8898 13.8162C82.8634 13.5034 83.6763 12.8164 84.1534 11.9034C84.6305 10.9904 84.7336 9.92442 84.4404 8.93529C84.2982 8.47735 84.0648 8.0537 83.7545 7.6904C83.4442 7.3271 83.0637 7.03186 82.6362 6.82286V6.82942Z" fill="white"/>
<path d="M94.9607 13.3438C95.5128 13.7897 95.9699 14.3438 96.3045 14.9729C96.6391 15.6021 96.8443 16.2931 96.9078 17.0045C96.9785 18.3936 96.5007 19.7543 95.5795 20.7876C94.6583 21.8209 93.3689 22.4423 91.9947 22.5152C91.2898 22.5284 90.5896 22.3976 89.936 22.1304C89.2824 21.8632 88.689 21.4652 88.1914 20.9604L87.4775 20.3043L94.2662 12.6943L94.9607 13.3438ZM94.3117 14.5837L89.3077 20.1928C89.6501 20.5286 90.0575 20.7894 90.5042 20.9587C90.9509 21.128 91.4274 21.2023 91.9038 21.1769C92.9254 21.1159 93.8822 20.6508 94.5672 19.8822C95.2522 19.1137 95.6104 18.1035 95.5643 17.0701C95.5395 16.5877 95.4166 16.1156 95.2033 15.6833C94.9901 15.251 94.691 14.8678 94.3247 14.5575L94.3117 14.5837Z" fill="white"/>
<path d="M105.274 27.1206C105.096 28.3215 104.512 29.423 103.621 30.2374C102.73 31.0517 101.587 31.5286 100.387 31.5867C99.1871 31.6448 98.0044 31.2806 97.0404 30.5561C96.0764 29.8316 95.3907 28.7916 95.1003 27.6133C94.8099 26.4351 94.9327 25.1915 95.4476 24.0945C95.9626 22.9975 96.838 22.1149 97.9246 21.5972C99.0112 21.0794 100.242 20.9586 101.407 21.2552C102.572 21.5518 103.599 22.2475 104.313 23.2237C104.727 23.7728 105.027 24.4017 105.192 25.0718C105.357 25.742 105.385 26.4392 105.274 27.1206ZM103.249 24.0241C102.872 23.4944 102.371 23.0676 101.79 22.7821C101.21 22.4967 100.569 22.3615 99.9239 22.3887C99.2791 22.416 98.651 22.6048 98.0962 22.9383C97.5415 23.2717 97.0775 23.7393 96.7458 24.299C96.4142 24.8587 96.2254 25.4929 96.1964 26.1446C96.1674 26.7963 96.2991 27.4451 96.5797 28.0326C96.8603 28.6202 97.2809 29.128 97.8037 29.5104C98.3266 29.8929 98.9353 30.1379 99.5751 30.2236C100.079 30.3036 100.593 30.2796 101.087 30.1534C101.581 30.0271 102.045 29.8011 102.45 29.4889C103.266 28.8663 103.808 27.9443 103.957 26.9218C104.106 25.8993 103.852 24.8585 103.249 24.0241Z" fill="white"/>
<path d="M102.885 37.3283L110.433 33.9759L110.965 35.1896L103.417 38.5419C103.351 38.6376 103.296 38.7411 103.255 38.8503C103.126 39.1957 103.138 39.5787 103.287 39.9155C103.437 40.2523 103.712 40.5155 104.053 40.6478C104.219 40.7219 104.398 40.7602 104.579 40.7602C104.76 40.7602 104.939 40.7219 105.105 40.6478L112.004 37.5841L112.529 38.8043L105.585 41.8877C104.93 42.153 104.199 42.1516 103.546 41.8836C102.892 41.6157 102.367 41.1022 102.08 40.451C101.936 40.1342 101.861 39.7895 101.861 39.4407C101.861 39.0919 101.936 38.7472 102.08 38.4304C101.752 38.3154 101.451 38.1314 101.199 37.8906C100.946 37.6497 100.746 37.3574 100.613 37.033C100.472 36.7038 100.399 36.3488 100.399 35.9899C100.399 35.6311 100.472 35.2761 100.613 34.9469C100.729 34.619 100.909 34.3185 101.144 34.0635C101.378 33.8086 101.661 33.6047 101.976 33.4642L108.921 30.3809L109.453 31.5945L102.482 34.6516C102.316 34.7228 102.165 34.8283 102.041 34.9617C101.917 35.095 101.822 35.2531 101.762 35.4258C101.691 35.5938 101.655 35.7745 101.655 35.9572C101.655 36.1398 101.691 36.3205 101.762 36.4885C101.833 36.6572 101.936 36.81 102.065 36.9384C102.194 37.0667 102.347 37.168 102.515 37.2364C102.634 37.2835 102.758 37.3143 102.885 37.3283Z" fill="white"/>
<path d="M113.445 41.9927L113.705 43.1735L107.552 48.8941L114.613 47.3L114.899 48.6121L105.001 50.836L104.755 49.7076L110.985 43.9149L103.846 45.5221L103.561 44.2101L113.445 41.9927Z" fill="white"/>
<path d="M109.576 68.582C109.902 67.9752 110.365 67.454 110.926 67.06C111.181 66.8857 111.469 66.7661 111.771 66.7085C112.074 66.651 112.385 66.6567 112.685 66.7254C113.143 66.8221 113.563 67.0536 113.892 67.3908C114.221 67.7281 114.443 68.156 114.532 68.6208C114.621 69.0856 114.572 69.5665 114.391 70.0032C114.21 70.4398 113.905 70.8127 113.516 71.0749C113.12 71.3121 112.676 71.4536 112.218 71.4882L111.99 70.209C112.277 70.1817 112.556 70.1017 112.815 69.9728C113.043 69.8221 113.204 69.5865 113.262 69.3168C113.293 69.1787 113.294 69.0357 113.268 68.8969C113.241 68.7581 113.186 68.6263 113.107 68.5098C112.951 68.2727 112.708 68.1077 112.432 68.0511C112.156 67.9946 111.868 68.051 111.633 68.2081C111.321 68.4387 111.049 68.7203 110.829 69.0412C110.446 69.7479 109.901 70.351 109.239 70.7994C108.897 71.0415 108.51 71.2096 108.101 71.2931C107.692 71.3767 107.271 71.3739 106.863 71.2849C106.453 71.2073 106.063 71.0456 105.717 70.8097C105.371 70.5739 105.076 70.269 104.851 69.9138C104.388 69.2082 104.22 68.3453 104.386 67.5149C104.551 66.6845 105.036 65.9546 105.734 65.4855C106.39 65.0752 107.159 64.891 107.928 64.9607L108.129 66.3187C107.556 66.2164 106.967 66.3111 106.454 66.5877C106.045 66.8643 105.76 67.2941 105.664 67.7826C105.568 68.271 105.668 68.778 105.942 69.1921C106.215 69.6062 106.64 69.8934 107.124 69.9906C107.607 70.0878 108.109 69.987 108.518 69.7104C108.942 69.4091 109.301 69.0255 109.576 68.582Z" fill="white"/>
<path d="M103.093 79.8002L101.912 80.3972C101.336 79.0693 101.287 77.5684 101.776 76.2052C102.279 74.9147 103.268 73.8784 104.526 73.3227C105.783 72.767 107.207 72.7372 108.486 73.2399C109.123 73.484 109.704 73.8556 110.195 74.3325C110.685 74.8094 111.076 75.3817 111.342 76.0149C111.627 76.6428 111.782 77.3233 111.795 78.0142C111.808 78.705 111.681 79.3911 111.42 80.0298C110.862 81.3631 109.819 82.4291 108.506 83.0082L108.032 81.7552C108.997 81.3135 109.764 80.5224 110.18 79.5378C110.554 78.5756 110.534 77.5029 110.125 76.5556C109.716 75.6082 108.951 74.8639 108 74.4863C107.048 74.1088 105.986 74.1289 105.049 74.5423C104.112 74.9557 103.376 75.7284 103.002 76.6906C102.644 77.7017 102.676 78.8122 103.093 79.8002Z" fill="white"/>
<path d="M101.256 84.707L101.905 83.677L99.1402 81.9516L99.8282 80.8232L108.46 86.2093L106.948 88.6825C106.457 89.3071 105.77 89.7444 105.001 89.9225C104.56 90.0288 104.103 90.0463 103.656 89.9739C103.208 89.9015 102.78 89.7407 102.394 89.5006C102.008 89.2605 101.673 88.9459 101.407 88.5748C101.142 88.2036 100.952 87.7833 100.847 87.3377C100.71 86.915 100.672 86.4657 100.737 86.0256L96.6025 86.124L97.4398 84.7529L101.256 84.707ZM106.63 86.6357L103.002 84.379L102.353 85.4089C102.135 85.7722 102.028 86.1923 102.045 86.6168C102.062 87.0412 102.203 87.4511 102.45 87.795C102.697 88.1389 103.038 88.4016 103.432 88.5501C103.826 88.6987 104.254 88.7265 104.663 88.6301C104.933 88.5655 105.186 88.4468 105.409 88.2812C105.632 88.1155 105.82 87.9062 105.961 87.6657L106.63 86.6357Z" fill="white"/>
<path d="M96.7067 99.3627C95.5063 99.4099 94.3269 99.035 93.3694 98.3018C92.4119 97.5685 91.7354 96.5223 91.4555 95.3415C91.1755 94.1606 91.3093 92.9182 91.8341 91.8259C92.3588 90.7336 93.242 89.859 94.3332 89.3512C95.4243 88.8433 96.6559 88.7337 97.8182 89.0408C98.9804 89.348 100.001 90.0531 100.707 91.0358C101.412 92.0186 101.759 93.2182 101.688 94.4303C101.616 95.6425 101.131 96.7921 100.315 97.6832C99.8588 98.1971 99.3032 98.6111 98.6827 98.8999C98.0621 99.1887 97.3897 99.3462 96.7067 99.3627ZM99.3482 96.7714C99.9621 96.1038 100.328 95.2417 100.383 94.332C100.438 93.4223 100.179 92.5215 99.6503 91.7832C99.1216 91.045 98.3558 90.5151 97.4837 90.2839C96.6115 90.0528 95.687 90.1347 94.8679 90.5158C94.0489 90.8968 93.3861 91.5533 92.9925 92.3733C92.599 93.1933 92.499 94.1259 92.7099 95.012C92.9208 95.8981 93.4293 96.6828 94.1487 97.2322C94.8682 97.7815 95.7539 98.0615 96.6548 98.0244C97.1644 98.0115 97.6661 97.8937 98.1292 97.6783C98.5923 97.4628 99.0071 97.1543 99.3482 96.7714Z" fill="white"/>
<path d="M88.0879 95.1777L94.1498 103.391L93.0984 104.185L87.8219 97.0343L84.9207 99.2255L84.1289 98.1561L88.0879 95.1777Z" fill="white"/>
<path d="M83.0898 98.812L88.0548 107.754L86.906 108.41L82.59 100.596L79.4293 102.387L78.7803 101.226L83.0898 98.812Z" fill="white"/>
<path d="M71.0507 114.813L69.7527 115.167L67.8706 108.2C67.7594 107.412 67.91 106.609 68.2989 105.917C68.6361 105.317 69.142 104.832 69.7522 104.523C70.3625 104.215 71.0497 104.096 71.7268 104.182C72.4038 104.269 73.0402 104.556 73.5554 105.009C74.0705 105.461 74.4411 106.058 74.6203 106.724L76.4051 113.33L75.1071 113.678L73.3223 107.071C73.1734 106.521 72.8142 106.052 72.3237 105.769C71.8332 105.486 71.2516 105.412 70.7068 105.563C70.162 105.713 69.6987 106.076 69.4187 106.572C69.1388 107.068 69.0651 107.656 69.214 108.206L71.0507 114.813Z" fill="white"/>
<path d="M64.6255 108.902L64.288 105.621L65.586 105.477L66.6569 115.685L63.7947 115.993C63.0066 115.981 62.2453 115.702 61.6335 115.199C61.1042 114.765 60.7139 114.182 60.5117 113.524C60.3096 112.866 60.3047 112.162 60.4976 111.502C60.6906 110.841 61.0727 110.252 61.5959 109.811C62.1192 109.369 62.76 109.094 63.4377 109.02L64.6255 108.902ZM65.2095 114.511L64.7617 110.227L63.5741 110.351C63.1563 110.399 62.7617 110.57 62.4397 110.843C62.1177 111.117 61.8827 111.48 61.7642 111.888C61.6457 112.296 61.6489 112.73 61.7734 113.135C61.8979 113.541 62.1382 113.901 62.4642 114.17C62.6789 114.35 62.9278 114.484 63.1956 114.564C63.4634 114.644 63.7445 114.669 64.0218 114.635L65.2095 114.511Z" fill="white"/>
<path d="M49.4129 115.685L47.1738 105.011L48.5562 105.208L49.348 108.987L52.009 109.367L53.8003 105.956L55.1827 106.153L50.1139 115.783L49.4129 115.685ZM49.6336 110.364L50.1658 112.864L51.347 110.607L49.6336 110.364Z" fill="white"/>
<path d="M43.2019 114.498L42.0661 114.124L40.3267 105.858L38.0876 112.812L36.835 112.398L39.9698 102.656L41.0601 103.01L42.8254 111.382L45.0969 104.342L46.3431 104.749L43.2019 114.498Z" fill="white"/>
<path d="M33.0374 110.666C32.3959 110.371 31.8199 109.948 31.3438 109.423C30.8676 108.898 30.501 108.281 30.266 107.609C29.8594 106.283 29.989 104.849 30.6264 103.619C31.2637 102.39 32.357 101.465 33.6669 101.049C34.346 100.86 35.0558 100.811 35.7539 100.906C36.452 101.001 37.124 101.237 37.7298 101.6L38.5865 102.046L33.8811 111.093L33.0374 110.666ZM33.3489 109.302L36.8082 102.61C36.3955 102.372 35.9388 102.223 35.4665 102.171C34.9942 102.119 34.5164 102.166 34.0628 102.308C33.0899 102.625 32.2792 103.316 31.8056 104.231C31.3321 105.147 31.2337 106.214 31.5317 107.202C31.6758 107.659 31.9108 108.08 32.2222 108.441C32.5336 108.802 32.9148 109.095 33.3424 109.302H33.3489Z" fill="white"/>
<path d="M20.9658 102.847C20.4142 102.402 19.9573 101.849 19.6227 101.221C19.2881 100.593 19.0826 99.9027 19.0187 99.1924C18.9426 97.8032 19.4153 96.4403 20.3329 95.4032C21.2505 94.3662 22.5379 93.7399 23.9122 93.662C24.616 93.6489 25.3151 93.7786 25.9684 94.0434C26.6216 94.3082 27.2158 94.7028 27.7156 95.2037L28.436 95.8598L21.6732 103.503L20.9658 102.847ZM21.6148 101.6L26.5927 95.9713C26.2487 95.6385 25.8409 95.3806 25.3943 95.2136C24.9478 95.0466 24.472 94.974 23.9966 95.0004C22.9761 95.0663 22.0223 95.5354 21.341 96.3062C20.6598 97.0771 20.3058 98.0878 20.3556 99.1202C20.3845 99.5978 20.5099 100.064 20.7243 100.491C20.9386 100.917 21.2373 101.295 21.6018 101.6H21.6148Z" fill="white"/>
<path d="M10.6013 89.1028C10.7726 87.9009 11.3509 86.7962 12.2377 85.977C13.1246 85.1579 14.265 84.6749 15.4646 84.6104C16.6643 84.546 17.8489 84.904 18.8167 85.6235C19.7844 86.343 20.4754 87.3795 20.7719 88.5562C21.0683 89.733 20.9519 90.9773 20.4425 92.077C19.933 93.1767 19.0619 94.0639 17.9779 94.5872C16.8938 95.1105 15.6638 95.2377 14.4974 94.947C13.331 94.6563 12.3004 93.9658 11.5812 92.9931C11.1645 92.4462 10.8627 91.8191 10.6942 91.1501C10.5257 90.4812 10.4941 89.7845 10.6013 89.1028ZM12.6456 92.1927C13.1844 92.9237 13.9574 93.4431 14.8329 93.6621C15.7083 93.8811 16.6318 93.7861 17.4457 93.3935C18.2595 93.0008 18.9134 92.3348 19.2956 91.5092C19.6777 90.6835 19.7646 89.7493 19.5412 88.8662C19.3178 87.983 18.7981 87.2056 18.0707 86.6666C17.3434 86.1276 16.4536 85.8605 15.5532 85.9109C14.6527 85.9613 13.7975 86.3261 13.1335 86.9429C12.4695 87.5597 12.0378 88.3903 11.9122 89.293C11.8327 89.8014 11.8567 90.3208 11.9828 90.8194C12.1089 91.318 12.3344 91.7853 12.6456 92.1927Z" fill="white"/>
<path d="M12.9572 78.8686L5.42203 82.2275L4.88987 81.0204L12.425 77.6353C12.4863 77.5376 12.5384 77.4344 12.5807 77.3269C12.7043 76.9812 12.6902 76.6004 12.5413 76.265C12.3923 75.9296 12.1202 75.6658 11.7824 75.5294C11.6169 75.4553 11.4378 75.417 11.2567 75.417C11.0756 75.417 10.8966 75.4553 10.731 75.5294L3.83196 78.6521L3.2998 77.4385L10.2313 74.3223C10.5489 74.1879 10.8897 74.1187 11.234 74.1187C11.5783 74.1187 11.9191 74.1879 12.2367 74.3223C12.5724 74.4453 12.8794 74.6369 13.1385 74.8853C13.3975 75.1336 13.6032 75.4333 13.7425 75.7656C13.8866 76.0836 13.9612 76.4293 13.9612 76.7791C13.9612 77.129 13.8866 77.4747 13.7425 77.7927C14.0721 77.9028 14.3743 78.0835 14.6285 78.3224C14.8828 78.5613 15.0831 78.8527 15.2158 79.1769C15.5014 79.8266 15.5256 80.5631 15.2833 81.2305C15.0411 81.8978 14.5513 82.4437 13.9177 82.7523L6.98618 85.8619L6.45402 84.6548L13.3401 81.5649C13.5076 81.4931 13.6583 81.3865 13.7824 81.252C13.9065 81.1175 14.0013 80.9581 14.0605 80.7842C14.1312 80.6162 14.1676 80.4354 14.1676 80.2528C14.1676 80.0702 14.1312 79.8895 14.0605 79.7214C13.9931 79.5517 13.8912 79.398 13.7616 79.2703C13.6319 79.1427 13.4773 79.0438 13.3076 78.9801C13.1973 78.9245 13.0791 78.8869 12.9572 78.8686Z" fill="white"/>
<path d="M2.37822 74.2501L2.11859 73.0692L8.25186 67.3224L1.19054 68.9428L0.898438 67.6307L10.7895 65.3608L11.0426 66.4958L4.83802 72.3148L11.9772 70.6747L12.2627 71.9868L2.37822 74.2501Z" fill="white"/>
</g>
<defs>
<clipPath id="clip0_414_1781">
<rect width="114" height="116" fill="white" transform="translate(0.898438)"/>
</clipPath>
</defs>
</svg>
